Sprat-Condensed.ufo
<glyph name="exclam" format="2">
  <advance width="302"/>
  <unicode hex="0021"/>
  <outline>
    <contour>
      <point x="126" y="199" type="line"/>
      <point x="176" y="199" type="line"/>
      <point x="206" y="700" type="line"/>
      <point x="96" y="700" type="line"/>
    </contour>
    <contour>
      <point x="151" y="-14" type="curve" smooth="yes"/>
      <point x="181" y="-14"/>
      <point x="208" y="9"/>
      <point x="208" y="44" type="curve" smooth="yes"/>
      <point x="208" y="79"/>
      <point x="181" y="101"/>
      <point x="151" y="101" type="curve" smooth="yes"/>
      <point x="121" y="101"/>
      <point x="94" y="79"/>
      <point x="94" y="44" type="curve" smooth="yes"/>
      <point x="94" y="9"/>
      <point x="121" y="-14"/>
    </contour>
  </outline>
</glyph>
<glyph name="quotedbl" format="2">
  <advance width="435"/>
  <unicode hex="0022"/>
  <outline>
    <contour>
      <point x="268" y="481" type="line"/>
      <point x="321" y="503"/>
      <point x="355" y="540"/>
      <point x="355" y="653" type="curve" smooth="yes"/>
      <point x="355" y="688"/>
      <point x="328" y="715"/>
      <point x="295" y="715" type="curve" smooth="yes"/>
      <point x="262" y="715"/>
      <point x="235" y="688"/>
      <point x="235" y="655" type="curve" smooth="yes"/>
      <point x="235" y="622"/>
      <point x="262" y="595"/>
      <point x="295" y="595" type="curve" smooth="yes"/>
      <point x="306" y="595"/>
      <point x="316" y="598"/>
      <point x="324" y="603" type="curve"/>
      <point x="324" y="548"/>
      <point x="297" y="514"/>
      <point x="261" y="497" type="curve"/>
    </contour>
    <contour>
      <point x="98" y="481" type="line"/>
      <point x="151" y="503"/>
      <point x="185" y="540"/>
      <point x="185" y="653" type="curve" smooth="yes"/>
      <point x="185" y="688"/>
      <point x="158" y="715"/>
      <point x="125" y="715" type="curve" smooth="yes"/>
      <point x="92" y="715"/>
      <point x="65" y="688"/>
      <point x="65" y="655" type="curve" smooth="yes"/>
      <point x="65" y="622"/>
      <point x="92" y="595"/>
      <point x="125" y="595" type="curve" smooth="yes"/>
      <point x="136" y="595"/>
      <point x="146" y="598"/>
      <point x="154" y="603" type="curve"/>
      <point x="154" y="548"/>
      <point x="127" y="514"/>
      <point x="91" y="497" type="curve"/>
    </contour>
  </outline>
</glyph>
<glyph name="numbersign" format="2">
  <advance width="630"/>
  <unicode hex="0023"/>
  <outline>
    <contour>
      <point x="250" y="610" type="line"/>
      <point x="75" y="0" type="line"/>
      <point x="138" y="0" type="line"/>
      <point x="313" y="610" type="line"/>
    </contour>
    <contour>
      <point x="480" y="610" type="line"/>
      <point x="305" y="0" type="line"/>
      <point x="368" y="0" type="line"/>
      <point x="543" y="610" type="line"/>
    </contour>
    <contour>
      <point x="98" y="430" type="line"/>
      <point x="98" y="398" type="line"/>
      <point x="577" y="398" type="line"/>
      <point x="577" y="430" type="line"/>
    </contour>
    <contour>
      <point x="58" y="230" type="line"/>
      <point x="58" y="198" type="line"/>
      <point x="532" y="198" type="line"/>
      <point x="532" y="230" type="line"/>
    </contour>
  </outline>
</glyph>
<glyph name="percent" format="2">
  <advance width="642"/>
  <unicode hex="0025"/>
  <outline>
    <contour>
      <point x="85" y="0" type="line"/>
      <point x="119" y="0" type="line"/>
      <point x="568" y="715" type="line"/>
      <point x="534" y="715" type="line"/>
    </contour>
    <contour>
      <point x="192" y="463" type="curve" smooth="yes"/>
      <point x="261" y="463"/>
      <point x="317" y="519"/>
      <point x="317" y="589" type="curve" smooth="yes"/>
      <point x="317" y="657"/>
      <point x="261" y="713"/>
      <point x="192" y="713" type="curve" smooth="yes"/>
      <point x="123" y="713"/>
      <point x="67" y="657"/>
      <point x="67" y="589" type="curve" smooth="yes"/>
      <point x="67" y="519"/>
      <point x="123" y="463"/>
    </contour>
    <contour>
      <point x="294" y="589" type="curve" smooth="yes"/>
      <point x="294" y="533"/>
      <point x="241" y="508"/>
      <point x="192" y="508" type="curve" smooth="yes"/>
      <point x="142" y="508"/>
      <point x="90" y="533"/>
      <point x="90" y="589" type="curve" smooth="yes"/>
      <point x="90" y="644"/>
      <point x="142" y="668"/>
      <point x="192" y="668" type="curve" smooth="yes"/>
      <point x="241" y="668"/>
      <point x="294" y="645"/>
    </contour>
    <contour>
      <point x="468" y="-14" type="curve" smooth="yes"/>
      <point x="536" y="-14"/>
      <point x="592" y="42"/>
      <point x="592" y="111" type="curve" smooth="yes"/>
      <point x="592" y="180"/>
      <point x="536" y="236"/>
      <point x="468" y="236" type="curve" smooth="yes"/>
      <point x="398" y="236"/>
      <point x="342" y="180"/>
      <point x="342" y="111" type="curve" smooth="yes"/>
      <point x="342" y="42"/>
      <point x="398" y="-14"/>
    </contour>
    <contour>
      <point x="569" y="111" type="curve" smooth="yes"/>
      <point x="569" y="56"/>
      <point x="517" y="31"/>
      <point x="468" y="31" type="curve" smooth="yes"/>
      <point x="418" y="31"/>
      <point x="365" y="56"/>
      <point x="365" y="111" type="curve" smooth="yes"/>
      <point x="365" y="167"/>
      <point x="418" y="191"/>
      <point x="468" y="191" type="curve" smooth="yes"/>
      <point x="517" y="191"/>
      <point x="569" y="167"/>
    </contour>
  </outline>
</glyph>
<glyph name="ampersand" format="2">
  <advance width="706"/>
  <unicode hex="0026"/>
  <outline>
    <contour>
      <point x="650" y="84" type="curve"/>
      <point x="627" y="92" type="line"/>
      <point x="617" y="45"/>
      <point x="597" y="27"/>
      <point x="578" y="27" type="curve" smooth="yes"/>
      <point x="547" y="27"/>
      <point x="517" y="81"/>
      <point x="483" y="131" type="curve" smooth="yes"/>
      <point x="263" y="459" type="line" smooth="yes"/>
      <point x="229" y="509"/>
      <point x="206" y="568"/>
      <point x="206" y="613" type="curve" smooth="yes"/>
      <point x="206" y="653"/>
      <point x="225" y="682"/>
      <point x="272" y="682" type="curve" smooth="yes"/>
      <point x="336" y="682"/>
      <point x="422" y="621"/>
      <point x="463" y="480" type="curve"/>
      <point x="473" y="480" type="line"/>
      <point x="452" y="639" type="line"/>
      <point x="410" y="691"/>
      <point x="355" y="715"/>
      <point x="302" y="715" type="curve" smooth="yes"/>
      <point x="214" y="715"/>
      <point x="133" y="650"/>
      <point x="133" y="552" type="curve" smooth="yes"/>
      <point x="133" y="509"/>
      <point x="151" y="460"/>
      <point x="188" y="405" type="curve" smooth="yes"/>
      <point x="422" y="59" type="line" smooth="yes"/>
      <point x="457" y="7"/>
      <point x="497" y="-15"/>
      <point x="534" y="-15" type="curve" smooth="yes"/>
      <point x="604" y="-15"/>
      <point x="641" y="24"/>
    </contour>
    <contour>
      <point x="286" y="-15" type="curve" smooth="yes"/>
      <point x="421" y="-15"/>
      <point x="556" y="40"/>
      <point x="556" y="409" type="curve"/>
      <point x="461" y="409" type="line"/>
      <point x="462" y="114"/>
      <point x="422" y="10"/>
      <point x="306" y="10" type="curve" smooth="yes"/>
      <point x="217" y="10"/>
      <point x="152" y="147"/>
      <point x="152" y="257" type="curve" smooth="yes"/>
      <point x="152" y="327"/>
      <point x="176" y="378"/>
      <point x="223" y="402" type="curve"/>
      <point x="196" y="409" type="line"/>
      <point x="106" y="372"/>
      <point x="57" y="292"/>
      <point x="57" y="211" type="curve" smooth="yes"/>
      <point x="57" y="99"/>
      <point x="145" y="-15"/>
    </contour>
    <contour>
      <point x="329" y="409" type="line"/>
      <point x="556" y="409" type="line"/>
      <point x="556" y="434" type="line"/>
      <point x="329" y="434" type="line"/>
    </contour>
  </outline>
</glyph>
<glyph name="quotesingle" format="2">
  <advance width="271"/>
  <unicode hex="0027"/>
  <outline>
    <contour>
      <point x="85" y="481" type="line"/>
      <point x="148" y="501"/>
      <point x="198" y="540"/>
      <point x="192" y="653" type="curve" smooth="yes"/>
      <point x="190" y="691"/>
      <point x="165" y="715"/>
      <point x="132" y="715" type="curve" smooth="yes"/>
      <point x="99" y="715"/>
      <point x="72" y="688"/>
      <point x="72" y="655" type="curve" smooth="yes"/>
      <point x="72" y="622"/>
      <point x="99" y="595"/>
      <point x="132" y="595" type="curve" smooth="yes"/>
      <point x="143" y="595"/>
      <point x="153" y="598"/>
      <point x="161" y="603" type="curve"/>
      <point x="169" y="548"/>
      <point x="124" y="512"/>
      <point x="78" y="497" type="curve"/>
    </contour>
  </outline>
</glyph>
<glyph name="parenleft" format="2">
  <advance width="306"/>
  <unicode hex="0028"/>
  <outline>
    <contour>
      <point x="272" y="-97" type="curve"/>
      <point x="285" y="-80" type="line"/>
      <point x="161" y="19"/>
      <point x="110" y="166"/>
      <point x="111" y="330" type="curve" smooth="yes"/>
      <point x="112" y="495"/>
      <point x="162" y="643"/>
      <point x="286" y="741" type="curve"/>
      <point x="274" y="758" type="line"/>
      <point x="133" y="660"/>
      <point x="49" y="505"/>
      <point x="48" y="330" type="curve" smooth="yes"/>
      <point x="47" y="155"/>
      <point x="133" y="2"/>
    </contour>
  </outline>
</glyph>
<glyph name="parenright" format="2">
  <advance width="305"/>
  <unicode hex="0029"/>
  <outline>
    <contour>
      <point x="33" y="-97" type="line"/>
      <point x="172" y="2"/>
      <point x="258" y="155"/>
      <point x="257" y="330" type="curve" smooth="yes"/>
      <point x="256" y="505"/>
      <point x="172" y="660"/>
      <point x="31" y="758" type="curve"/>
      <point x="19" y="741" type="line"/>
      <point x="143" y="643"/>
      <point x="193" y="495"/>
      <point x="194" y="330" type="curve" smooth="yes"/>
      <point x="195" y="166"/>
      <point x="144" y="19"/>
      <point x="20" y="-80" type="curve"/>
    </contour>
  </outline>
</glyph>
<glyph name="asterisk" format="2">
  <advance width="493"/>
  <unicode hex="002A"/>
  <outline>
    <contour>
      <point x="420" y="617" type="line"/>
      <point x="393" y="655" type="line"/>
      <point x="257" y="553" type="line"/>
      <point x="271" y="715" type="line"/>
      <point x="222" y="715" type="line"/>
      <point x="238" y="551" type="line"/>
      <point x="100" y="655" type="line"/>
      <point x="73" y="617" type="line"/>
      <point x="232" y="537" type="line"/>
      <point x="73" y="454" type="line"/>
      <point x="100" y="417" type="line"/>
      <point x="239" y="522" type="line"/>
      <point x="222" y="356" type="line"/>
      <point x="271" y="356" type="line"/>
      <point x="256" y="521" type="line"/>
      <point x="393" y="417" type="line"/>
      <point x="420" y="454" type="line"/>
      <point x="261" y="537" type="line"/>
    </contour>
  </outline>
</glyph>
<glyph name="plus" format="2">
  <advance width="653"/>
  <unicode hex="002B"/>
  <outline>
    <contour>
      <point x="90" y="266" type="line"/>
      <point x="90" y="236" type="line"/>
      <point x="563" y="236" type="line"/>
      <point x="563" y="266" type="line"/>
    </contour>
    <contour>
      <point x="314" y="10" type="line"/>
      <point x="339" y="10" type="line"/>
      <point x="339" y="492" type="line"/>
      <point x="314" y="492" type="line"/>
    </contour>
  </outline>
</glyph>
<glyph name="comma" format="2">
  <advance width="302"/>
  <unicode hex="002C"/>
  <outline>
    <contour>
      <point x="74" y="-162" type="line"/>
      <point x="171" y="-145"/>
      <point x="212" y="-70"/>
      <point x="212" y="40" type="curve" smooth="yes"/>
      <point x="212" y="78"/>
      <point x="185" y="105"/>
      <point x="152" y="105" type="curve" smooth="yes"/>
      <point x="119" y="105"/>
      <point x="92" y="78"/>
      <point x="92" y="45" type="curve" smooth="yes"/>
      <point x="92" y="12"/>
      <point x="119" y="-15"/>
      <point x="152" y="-15" type="curve" smooth="yes"/>
      <point x="163" y="-15"/>
      <point x="173" y="-12"/>
      <point x="181" y="-7" type="curve"/>
      <point x="181" y="-62"/>
      <point x="148" y="-132"/>
      <point x="70" y="-144" type="curve"/>
    </contour>
  </outline>
</glyph>
<glyph name="hyphen" format="2">
  <advance width="472"/>
  <unicode hex="002D"/>
  <outline>
    <contour>
      <point x="80" y="266" type="line"/>
      <point x="80" y="236" type="line"/>
      <point x="392" y="236" type="line"/>
      <point x="392" y="266" type="line"/>
    </contour>
  </outline>
</glyph>
<glyph name="period" format="2">
  <advance width="320"/>
  <unicode hex="002E"/>
  <outline>
    <contour>
      <point x="159" y="-14" type="curve" smooth="yes"/>
      <point x="189" y="-14"/>
      <point x="216" y="9"/>
      <point x="216" y="44" type="curve" smooth="yes"/>
      <point x="216" y="79"/>
      <point x="189" y="101"/>
      <point x="159" y="101" type="curve" smooth="yes"/>
      <point x="129" y="101"/>
      <point x="102" y="79"/>
      <point x="102" y="44" type="curve" smooth="yes"/>
      <point x="102" y="9"/>
      <point x="129" y="-14"/>
    </contour>
  </outline>
</glyph>
<glyph name="zero" format="2">
  <advance width="579"/>
  <unicode hex="0030"/>
  <outline>
    <contour>
      <point x="290" y="-15" type="curve" smooth="yes"/>
      <point x="469" y="-15"/>
      <point x="510" y="139"/>
      <point x="510" y="345" type="curve" smooth="yes"/>
      <point x="510" y="550"/>
      <point x="469" y="715"/>
      <point x="290" y="715" type="curve" smooth="yes"/>
      <point x="111" y="715"/>
      <point x="69" y="550"/>
      <point x="69" y="345" type="curve" smooth="yes"/>
      <point x="69" y="139"/>
      <point x="111" y="-15"/>
    </contour>
    <contour>
      <point x="290" y="80" type="curve" smooth="yes"/>
      <point x="138" y="80"/>
      <point x="94" y="182"/>
      <point x="94" y="346" type="curve" smooth="yes"/>
      <point x="94" y="510"/>
      <point x="138" y="620"/>
      <point x="290" y="620" type="curve" smooth="yes"/>
      <point x="440" y="620"/>
      <point x="485" y="510"/>
      <point x="485" y="346" type="curve" smooth="yes"/>
      <point x="485" y="182"/>
      <point x="440" y="80"/>
    </contour>
  </outline>
</glyph>
<glyph name="one" format="2">
  <advance width="377"/>
  <unicode hex="0031"/>
  <outline>
    <contour>
      <point x="253" y="84" type="curve" smooth="yes"/>
      <point x="253" y="700" type="line"/>
      <point x="198" y="700" type="line"/>
      <point x="182" y="573"/>
      <point x="64" y="532"/>
      <point x="24" y="531" type="curve"/>
      <point x="24" y="506" type="line"/>
      <point x="60" y="507"/>
      <point x="122" y="519"/>
      <point x="158" y="544" type="curve"/>
      <point x="158" y="84" type="line" smooth="yes"/>
      <point x="158" y="36"/>
      <point x="121" y="17"/>
      <point x="58" y="10" type="curve"/>
      <point x="58" y="0" type="line"/>
      <point x="353" y="0" type="line"/>
      <point x="353" y="10" type="line"/>
      <point x="288" y="17"/>
      <point x="253" y="36"/>
    </contour>
  </outline>
</glyph>
<glyph name="two" format="2">
  <advance width="499"/>
  <unicode hex="0032"/>
  <outline>
    <contour>
      <point x="333" y="-15" type="curve" smooth="yes"/>
      <point x="410" y="-15"/>
      <point x="440" y="25"/>
      <point x="439" y="162" type="curve"/>
      <point x="414" y="162" type="line"/>
      <point x="414" y="91"/>
      <point x="402" y="63"/>
      <point x="359" y="63" type="curve" smooth="yes"/>
      <point x="295" y="63"/>
      <point x="203" y="172"/>
      <point x="152" y="162" type="curve"/>
      <point x="304" y="327"/>
      <point x="446" y="297"/>
      <point x="446" y="518" type="curve" smooth="yes"/>
      <point x="446" y="640"/>
      <point x="366" y="714"/>
      <point x="250" y="714" type="curve" smooth="yes"/>
      <point x="199" y="714"/>
      <point x="142" y="700"/>
      <point x="82" y="669" type="curve"/>
      <point x="61" y="503" type="line"/>
      <point x="71" y="503" type="line"/>
      <point x="112" y="626"/>
      <point x="183" y="689"/>
      <point x="243" y="689" type="curve" smooth="yes"/>
      <point x="302" y="689"/>
      <point x="350" y="629"/>
      <point x="350" y="505" type="curve" smooth="yes"/>
      <point x="350" y="312"/>
      <point x="227" y="326"/>
      <point x="113" y="151" type="curve" smooth="yes"/>
      <point x="82" y="104"/>
      <point x="53" y="40"/>
      <point x="47" y="0" type="curve"/>
      <point x="72" y="0" type="line"/>
      <point x="81" y="40"/>
      <point x="89" y="58"/>
      <point x="98" y="71" type="curve" smooth="yes"/>
      <point x="105" y="81"/>
      <point x="116" y="85"/>
      <point x="124" y="85" type="curve" smooth="yes"/>
      <point x="173" y="85"/>
      <point x="250" y="-15"/>
    </contour>
  </outline>
</glyph>
<glyph name="three" format="2">
  <advance width="529"/>
  <unicode hex="0033"/>
  <outline>
    <contour>
      <point x="236" y="-13" type="curve" smooth="yes"/>
      <point x="365" y="-13"/>
      <point x="468" y="60"/>
      <point x="468" y="202" type="curve" smooth="yes"/>
      <point x="468" y="281"/>
      <point x="424" y="361"/>
      <point x="328" y="399" type="curve"/>
      <point x="420" y="436"/>
      <point x="462" y="500"/>
      <point x="462" y="561" type="curve" smooth="yes"/>
      <point x="462" y="641"/>
      <point x="389" y="715"/>
      <point x="257" y="715" type="curve" smooth="yes"/>
      <point x="205" y="715"/>
      <point x="152" y="700"/>
      <point x="111" y="668" type="curve"/>
      <point x="88" y="502" type="line"/>
      <point x="98" y="502" type="line"/>
      <point x="125" y="620"/>
      <point x="179" y="689"/>
      <point x="252" y="689" type="curve" smooth="yes"/>
      <point x="325" y="689"/>
      <point x="364" y="616"/>
      <point x="364" y="545" type="curve" smooth="yes"/>
      <point x="364" y="478"/>
      <point x="329" y="413"/>
      <point x="254" y="413" type="curve" smooth="yes"/>
      <point x="199" y="413" type="line"/>
      <point x="189" y="388" type="line"/>
      <point x="249" y="388" type="line" smooth="yes"/>
      <point x="329" y="388"/>
      <point x="368" y="299"/>
      <point x="368" y="208" type="curve" smooth="yes"/>
      <point x="368" y="77"/>
      <point x="300" y="9"/>
      <point x="225" y="9" type="curve" smooth="yes"/>
      <point x="158" y="9"/>
      <point x="85" y="63"/>
      <point x="50" y="174" type="curve"/>
      <point x="39" y="174" type="line"/>
      <point x="65" y="26" type="line"/>
      <point x="123" y="0"/>
      <point x="182" y="-13"/>
    </contour>
  </outline>
</glyph>
<glyph name="four" format="2">
  <advance width="463"/>
  <unicode hex="0034"/>
  <outline>
    <contour>
      <point x="316" y="84" type="curve" smooth="yes"/>
      <point x="316" y="284" type="line"/>
      <point x="402" y="284" type="line"/>
      <point x="402" y="416" type="line"/>
      <point x="392" y="416" type="line"/>
      <point x="392" y="376"/>
      <point x="373" y="364"/>
      <point x="326" y="364" type="curve" smooth="yes"/>
      <point x="316" y="364" type="line"/>
      <point x="316" y="700" type="line"/>
      <point x="221" y="700" type="line"/>
      <point x="34" y="364" type="line"/>
      <point x="34" y="284" type="line"/>
      <point x="221" y="284" type="line"/>
      <point x="221" y="84" type="line" smooth="yes"/>
      <point x="221" y="36"/>
      <point x="184" y="17"/>
      <point x="121" y="10" type="curve"/>
      <point x="121" y="0" type="line"/>
      <point x="416" y="0" type="line"/>
      <point x="416" y="10" type="line"/>
      <point x="351" y="17"/>
      <point x="316" y="36"/>
    </contour>
    <contour>
      <point x="67" y="364" type="line"/>
      <point x="221" y="645" type="line"/>
      <point x="221" y="364" type="line"/>
    </contour>
  </outline>
</glyph>
<glyph name="five" format="2">
  <advance width="536"/>
  <unicode hex="0035"/>
  <outline>
    <contour>
      <point x="420" y="568" type="curve"/>
      <point x="430" y="568" type="line"/>
      <point x="430" y="700" type="line"/>
      <point x="86" y="700" type="line"/>
      <point x="86" y="620" type="line"/>
      <point x="355" y="620" type="line"/>
      <point x="402" y="620"/>
      <point x="420" y="608"/>
    </contour>
    <contour>
      <point x="81" y="197" type="line"/>
      <point x="104" y="31" type="line"/>
      <point x="161" y="1"/>
      <point x="215" y="-13"/>
      <point x="263" y="-13" type="curve" smooth="yes"/>
      <point x="385" y="-13"/>
      <point x="477" y="84"/>
      <point x="477" y="248" type="curve" smooth="yes"/>
      <point x="477" y="417"/>
      <point x="413" y="516"/>
      <point x="255" y="516" type="curve" smooth="yes"/>
      <point x="200" y="516"/>
      <point x="147" y="487"/>
      <point x="111" y="419" type="curve"/>
      <point x="111" y="665" type="line"/>
      <point x="86" y="665" type="line"/>
      <point x="86" y="351" type="line"/>
      <point x="110" y="351" type="line"/>
      <point x="143" y="453"/>
      <point x="193" y="489"/>
      <point x="244" y="489" type="curve" smooth="yes"/>
      <point x="343" y="489"/>
      <point x="377" y="412"/>
      <point x="377" y="254" type="curve" smooth="yes"/>
      <point x="377" y="96"/>
      <point x="325" y="13"/>
      <point x="245" y="13" type="curve" smooth="yes"/>
      <point x="188" y="13"/>
      <point x="125" y="73"/>
      <point x="91" y="197" type="curve"/>
    </contour>
  </outline>
</glyph>
<glyph name="six" format="2">
  <advance width="568"/>
  <unicode hex="0036"/>
  <outline>
    <contour>
      <point x="505" y="250" type="curve" smooth="yes"/>
      <point x="505" y="414"/>
      <point x="420" y="515"/>
      <point x="290" y="515" type="curve" smooth="yes"/>
      <point x="230" y="515"/>
      <point x="176" y="493"/>
      <point x="155" y="471" type="curve"/>
      <point x="160" y="612"/>
      <point x="229" y="690"/>
      <point x="301" y="690" type="curve" smooth="yes"/>
      <point x="366" y="690"/>
      <point x="428" y="633"/>
      <point x="471" y="511" type="curve"/>
      <point x="481" y="511" type="line"/>
      <point x="463" y="648" type="line"/>
      <point x="404" y="694"/>
      <point x="350" y="714"/>
      <point x="302" y="714" type="curve" smooth="yes"/>
      <point x="154" y="714"/>
      <point x="66" y="582"/>
      <point x="66" y="313" type="curve" smooth="yes"/>
      <point x="66" y="104"/>
      <point x="136" y="-15"/>
      <point x="284" y="-15" type="curve" smooth="yes"/>
      <point x="425" y="-15"/>
      <point x="505" y="90"/>
    </contour>
    <contour>
      <point x="162" y="273" type="curve" smooth="yes"/>
      <point x="162" y="426"/>
      <point x="220" y="490"/>
      <point x="292" y="490" type="curve" smooth="yes"/>
      <point x="344" y="490"/>
      <point x="410" y="416"/>
      <point x="410" y="252" type="curve" smooth="yes"/>
      <point x="410" y="80"/>
      <point x="351" y="10"/>
      <point x="291" y="10" type="curve" smooth="yes"/>
      <point x="227" y="10"/>
      <point x="162" y="91"/>
    </contour>
  </outline>
</glyph>
<glyph name="seven" format="2">
  <advance width="424"/>
  <unicode hex="0037"/>
  <outline>
    <contour>
      <point x="45" y="700" type="line"/>
      <point x="45" y="568" type="line"/>
      <point x="55" y="568" type="line"/>
      <point x="55" y="608"/>
      <point x="74" y="620"/>
      <point x="121" y="620" type="curve" smooth="yes"/>
      <point x="362" y="620" type="line"/>
      <point x="362" y="531"/>
      <point x="306" y="499"/>
      <point x="206" y="373" type="curve" smooth="yes"/>
      <point x="120" y="265"/>
      <point x="75" y="137"/>
      <point x="75" y="0" type="curve"/>
      <point x="180" y="0" type="line"/>
      <point x="180" y="160"/>
      <point x="206" y="247"/>
      <point x="245" y="322" type="curve" smooth="yes"/>
      <point x="284" y="401"/>
      <point x="389" y="493"/>
      <point x="389" y="620" type="curve"/>
      <point x="389" y="700" type="line"/>
    </contour>
  </outline>
</glyph>
<glyph name="eight" format="2">
  <advance width="555"/>
  <unicode hex="0038"/>
  <outline>
    <contour>
      <point x="78" y="296"/>
      <point x="420" y="421"/>
      <point x="420" y="170" type="curve" smooth="yes"/>
      <point x="420" y="64"/>
      <point x="346" y="10"/>
      <point x="285" y="10" type="curve" smooth="yes"/>
      <point x="219" y="10"/>
      <point x="153" y="68"/>
      <point x="153" y="186" type="curve" smooth="yes"/>
      <point x="153" y="307"/>
      <point x="203" y="375"/>
      <point x="241" y="383" type="curve"/>
      <point x="221" y="395" type="line"/>
      <point x="156" y="385"/>
      <point x="58" y="329"/>
      <point x="58" y="183" type="curve" smooth="yes"/>
      <point x="58" y="51"/>
      <point x="164" y="-15"/>
      <point x="279" y="-15" type="curve" smooth="yes"/>
      <point x="385" y="-15"/>
      <point x="500" y="57"/>
      <point x="500" y="203" type="curve" smooth="yes"/>
      <point x="500" y="500"/>
      <point x="155" y="383"/>
      <point x="155" y="590" type="curve" smooth="yes"/>
      <point x="155" y="660"/>
      <point x="202" y="695"/>
      <point x="265" y="695" type="curve" smooth="yes"/>
      <point x="332" y="695"/>
      <point x="375" y="656"/>
      <point x="375" y="561" type="curve" smooth="yes"/>
      <point x="375" y="471"/>
      <point x="346" y="440"/>
      <point x="319" y="429" type="curve"/>
      <point x="339" y="417" type="line"/>
      <point x="385" y="425"/>
      <point x="470" y="470"/>
      <point x="470" y="557" type="curve" smooth="yes"/>
      <point x="470" y="664"/>
      <point x="379" y="715"/>
      <point x="285" y="715" type="curve" smooth="yes"/>
      <point x="179" y="715"/>
      <point x="78" y="656"/>
      <point x="78" y="544" type="curve" smooth="yes"/>
    </contour>
  </outline>
</glyph>
<glyph name="nine" format="2">
  <advance width="568"/>
  <unicode hex="0039"/>
  <outline>
    <contour>
      <point x="63" y="449" type="curve" smooth="yes"/>
      <point x="63" y="285"/>
      <point x="148" y="184"/>
      <point x="278" y="184" type="curve" smooth="yes"/>
      <point x="338" y="184"/>
      <point x="392" y="206"/>
      <point x="413" y="228" type="curve"/>
      <point x="408" y="87"/>
      <point x="349" y="9"/>
      <point x="277" y="9" type="curve" smooth="yes"/>
      <point x="212" y="9"/>
      <point x="140" y="66"/>
      <point x="97" y="188" type="curve"/>
      <point x="87" y="188" type="line"/>
      <point x="105" y="51" type="line"/>
      <point x="164" y="5"/>
      <point x="228" y="-15"/>
      <point x="276" y="-15" type="curve" smooth="yes"/>
      <point x="424" y="-15"/>
      <point x="502" y="117"/>
      <point x="502" y="386" type="curve" smooth="yes"/>
      <point x="502" y="595"/>
      <point x="432" y="714"/>
      <point x="284" y="714" type="curve" smooth="yes"/>
      <point x="143" y="714"/>
      <point x="63" y="609"/>
    </contour>
    <contour>
      <point x="406" y="426" type="curve" smooth="yes"/>
      <point x="406" y="273"/>
      <point x="348" y="209"/>
      <point x="276" y="209" type="curve" smooth="yes"/>
      <point x="224" y="209"/>
      <point x="158" y="283"/>
      <point x="158" y="447" type="curve" smooth="yes"/>
      <point x="158" y="619"/>
      <point x="217" y="689"/>
      <point x="277" y="689" type="curve" smooth="yes"/>
      <point x="341" y="689"/>
      <point x="406" y="608"/>
    </contour>
  </outline>
</glyph>
<glyph name="less" format="2">
  <advance width="647"/>
  <unicode hex="003C"/>
  <outline>
    <contour>
      <point x="536" y="-11" type="line"/>
      <point x="536" y="24" type="line"/>
      <point x="134" y="267" type="line"/>
      <point x="536" y="511" type="line"/>
      <point x="536" y="546" type="line"/>
      <point x="107" y="286" type="line"/>
      <point x="107" y="248" type="line"/>
    </contour>
  </outline>
</glyph>
<glyph name="equal" format="2">
  <advance width="653"/>
  <unicode hex="003D"/>
  <outline>
    <contour>
      <point x="90" y="401" type="line"/>
      <point x="90" y="371" type="line"/>
      <point x="563" y="371" type="line"/>
      <point x="563" y="401" type="line"/>
    </contour>
    <contour>
      <point x="90" y="141" type="line"/>
      <point x="90" y="111" type="line"/>
      <point x="563" y="111" type="line"/>
      <point x="563" y="141" type="line"/>
    </contour>
  </outline>
</glyph>
<glyph name="greater" format="2">
  <advance width="648"/>
  <unicode hex="003E"/>
  <outline>
    <contour>
      <point x="111" y="546" type="line"/>
      <point x="111" y="511" type="line"/>
      <point x="513" y="267" type="line"/>
      <point x="111" y="24" type="line"/>
      <point x="111" y="-11" type="line"/>
      <point x="540" y="248" type="line"/>
      <point x="540" y="286" type="line"/>
    </contour>
  </outline>
</glyph>
<glyph name="question" format="2">
  <advance width="516"/>
  <unicode hex="003F"/>
  <outline>
    <contour>
      <point x="250" y="186" type="curve" smooth="yes"/>
      <point x="293" y="186"/>
      <point x="337" y="215"/>
      <point x="337" y="278" type="curve"/>
      <point x="312" y="278" type="line"/>
      <point x="311" y="236"/>
      <point x="284" y="213"/>
      <point x="260" y="213" type="curve" smooth="yes"/>
      <point x="238" y="213"/>
      <point x="218" y="231"/>
      <point x="218" y="269" type="curve" smooth="yes"/>
      <point x="218" y="365"/>
      <point x="468" y="384"/>
      <point x="468" y="557" type="curve" smooth="yes"/>
      <point x="468" y="658"/>
      <point x="380" y="714"/>
      <point x="267" y="714" type="curve" smooth="yes"/>
      <point x="198" y="714"/>
      <point x="123" y="696"/>
      <point x="71" y="637" type="curve"/>
      <point x="50" y="470" type="line"/>
      <point x="60" y="470" type="line"/>
      <point x="104" y="608"/>
      <point x="188" y="689"/>
      <point x="263" y="689" type="curve" smooth="yes"/>
      <point x="322" y="689"/>
      <point x="368" y="639"/>
      <point x="368" y="557" type="curve" smooth="yes"/>
      <point x="368" y="387"/>
      <point x="165" y="413"/>
      <point x="165" y="265" type="curve" smooth="yes"/>
      <point x="165" y="214"/>
      <point x="207" y="186"/>
    </contour>
    <contour>
      <point x="250" y="-14" type="curve" smooth="yes"/>
      <point x="280" y="-14"/>
      <point x="307" y="9"/>
      <point x="307" y="44" type="curve" smooth="yes"/>
      <point x="307" y="79"/>
      <point x="280" y="101"/>
      <point x="250" y="101" type="curve" smooth="yes"/>
      <point x="220" y="101"/>
      <point x="193" y="79"/>
      <point x="193" y="44" type="curve" smooth="yes"/>
      <point x="193" y="9"/>
      <point x="220" y="-14"/>
    </contour>
  </outline>
</glyph>
<glyph name="at" format="2">
  <advance width="866"/>
  <unicode hex="0040"/>
  <outline>
    <contour>
      <point x="433" y="-105" type="curve" smooth="yes"/>
      <point x="482" y="-105"/>
      <point x="544" y="-91"/>
      <point x="584" y="-68" type="curve"/>
      <point x="572" y="-46" type="line"/>
      <point x="536" y="-68"/>
      <point x="490" y="-80"/>
      <point x="433" y="-80" type="curve" smooth="yes"/>
      <point x="241" y="-80"/>
      <point x="152" y="50"/>
      <point x="152" y="255" type="curve" smooth="yes"/>
      <point x="152" y="469"/>
      <point x="241" y="600"/>
      <point x="433" y="600" type="curve" smooth="yes"/>
      <point x="623" y="600"/>
      <point x="713" y="469"/>
      <point x="713" y="255" type="curve" smooth="yes"/>
      <point x="713" y="178"/>
      <point x="700" y="5"/>
      <point x="645" y="5" type="curve" smooth="yes"/>
      <point x="614" y="5"/>
      <point x="606" y="48"/>
      <point x="606" y="87" type="curve" smooth="yes"/>
      <point x="606" y="296" type="line" smooth="yes"/>
      <point x="606" y="445"/>
      <point x="551" y="515"/>
      <point x="433" y="515" type="curve" smooth="yes"/>
      <point x="377" y="515"/>
      <point x="331" y="494"/>
      <point x="283" y="469" type="curve"/>
      <point x="255" y="303" type="line"/>
      <point x="265" y="303" type="line"/>
      <point x="303" y="425"/>
      <point x="353" y="489"/>
      <point x="422" y="489" type="curve" smooth="yes"/>
      <point x="487" y="489"/>
      <point x="516" y="455"/>
      <point x="519" y="392" type="curve"/>
      <point x="334" y="362"/>
      <point x="245" y="230"/>
      <point x="245" y="134" type="curve" smooth="yes"/>
      <point x="245" y="25"/>
      <point x="337" y="-16"/>
      <point x="413" y="-16" type="curve" smooth="yes"/>
      <point x="458" y="-16"/>
      <point x="495" y="5"/>
      <point x="518" y="52" type="curve"/>
      <point x="527" y="9"/>
      <point x="578" y="-16"/>
      <point x="630" y="-16" type="curve" smooth="yes"/>
      <point x="736" y="-16"/>
      <point x="788" y="82"/>
      <point x="788" y="255" type="curve" smooth="yes"/>
      <point x="788" y="456"/>
      <point x="683" y="625"/>
      <point x="433" y="625" type="curve" smooth="yes"/>
      <point x="184" y="625"/>
      <point x="77" y="456"/>
      <point x="77" y="255" type="curve" smooth="yes"/>
      <point x="77" y="53"/>
      <point x="184" y="-105"/>
    </contour>
    <contour>
      <point x="423" y="10" type="curve" smooth="yes"/>
      <point x="388" y="10"/>
      <point x="341" y="54"/>
      <point x="341" y="149" type="curve" smooth="yes"/>
      <point x="341" y="256"/>
      <point x="387" y="346"/>
      <point x="520" y="367" type="curve"/>
      <point x="520" y="354"/>
      <point x="520" y="342"/>
      <point x="520" y="329" type="curve"/>
      <point x="520" y="174" type="line" smooth="yes"/>
      <point x="520" y="65"/>
      <point x="463" y="10"/>
    </contour>
  </outline>
</glyph>
<glyph name="A" format="2">
  <advance width="635"/>
  <unicode hex="0041"/>
  <anchor x="318" y="0" name="bottom"/>
  <anchor x="572" y="10" name="ogonek"/>
  <anchor x="307" y="686" name="top"/>
  <outline>
    <contour>
      <point x="18" y="0" type="line"/>
      <point x="245" y="0" type="line"/>
      <point x="245" y="10" type="line"/>
      <point x="182" y="17"/>
      <point x="154" y="33"/>
      <point x="166" y="80" type="curve" smooth="yes"/>
      <point x="186" y="157" type="line"/>
      <point x="369" y="157" type="line"/>
      <point x="391" y="84" type="line" smooth="yes"/>
      <point x="406" y="33"/>
      <point x="381" y="17"/>
      <point x="316" y="10" type="curve"/>
      <point x="316" y="0" type="line"/>
      <point x="617" y="0" type="line"/>
      <point x="617" y="10" type="line"/>
      <point x="554" y="17"/>
      <point x="508" y="31"/>
      <point x="494" y="79" type="curve" smooth="yes"/>
      <point x="309" y="715" type="line"/>
      <point x="304" y="715" type="line"/>
      <point x="139" y="82" type="line" smooth="yes"/>
      <point x="127" y="36"/>
      <point x="82" y="17"/>
      <point x="18" y="10" type="curve"/>
    </contour>
    <contour>
      <point x="193" y="182" type="line"/>
      <point x="273" y="489" type="line"/>
      <point x="362" y="182" type="line"/>
    </contour>
  </outline>
</glyph>
<glyph name="B" format="2">
  <advance width="560"/>
  <unicode hex="0042"/>
  <anchor x="280" y="0" name="bottom"/>
  <anchor x="280" y="350" name="center"/>
  <anchor x="280" y="700" name="top"/>
  <outline>
    <contour>
      <point x="335" y="487" type="curve"/>
      <point x="405" y="497"/>
      <point x="460" y="534"/>
      <point x="460" y="588" type="curve" smooth="yes"/>
      <point x="460" y="656"/>
      <point x="409" y="700"/>
      <point x="287" y="700" type="curve" smooth="yes"/>
      <point x="25" y="700" type="line"/>
      <point x="25" y="690" type="line"/>
      <point x="90" y="683"/>
      <point x="125" y="664"/>
      <point x="125" y="616" type="curve" smooth="yes"/>
      <point x="125" y="84" type="line" smooth="yes"/>
      <point x="125" y="36"/>
      <point x="90" y="17"/>
      <point x="25" y="10" type="curve"/>
      <point x="25" y="0" type="line"/>
      <point x="276" y="0" type="line" smooth="yes"/>
      <point x="451" y="0"/>
      <point x="496" y="112"/>
      <point x="496" y="250" type="curve" smooth="yes"/>
      <point x="496" y="360"/>
      <point x="441" y="475"/>
    </contour>
    <contour>
      <point x="251" y="675" type="line" smooth="yes"/>
      <point x="341" y="675"/>
      <point x="360" y="627"/>
      <point x="360" y="587" type="curve" smooth="yes"/>
      <point x="360" y="547"/>
      <point x="344" y="500"/>
      <point x="251" y="500" type="curve" smooth="yes"/>
      <point x="220" y="500" type="line"/>
      <point x="220" y="675" type="line"/>
    </contour>
    <contour>
      <point x="241" y="25" type="curve" smooth="yes"/>
      <point x="220" y="25" type="line"/>
      <point x="220" y="475" type="line"/>
      <point x="241" y="475" type="line" smooth="yes"/>
      <point x="383" y="475"/>
      <point x="396" y="352"/>
      <point x="396" y="243" type="curve" smooth="yes"/>
      <point x="396" y="122"/>
      <point x="383" y="25"/>
    </contour>
  </outline>
</glyph>
<glyph name="C" format="2">
  <advance width="609"/>
  <unicode hex="0043"/>
  <anchor x="305" y="0" name="bottom"/>
  <anchor x="305" y="700" name="top"/>
  <outline>
    <contour>
      <point x="333" y="715" type="curve" smooth="yes"/>
      <point x="183" y="715"/>
      <point x="60" y="574"/>
      <point x="60" y="345" type="curve" smooth="yes"/>
      <point x="60" y="143"/>
      <point x="166" y="-15"/>
      <point x="341" y="-13" type="curve" smooth="yes"/>
      <point x="451" y="-12"/>
      <point x="523" y="76"/>
      <point x="558" y="179" type="curve"/>
      <point x="536" y="191" type="line"/>
      <point x="498" y="79"/>
      <point x="425" y="10"/>
      <point x="340" y="12" type="curve" smooth="yes"/>
      <point x="228" y="14"/>
      <point x="160" y="142"/>
      <point x="160" y="345" type="curve" smooth="yes"/>
      <point x="160" y="565"/>
      <point x="243" y="690"/>
      <point x="344" y="690" type="curve" smooth="yes"/>
      <point x="420" y="690"/>
      <point x="492" y="619"/>
      <point x="538" y="470" type="curve"/>
      <point x="548" y="470" type="line"/>
      <point x="527" y="637" type="line"/>
      <point x="496" y="679"/>
      <point x="433" y="715"/>
    </contour>
  </outline>
</glyph>
<glyph name="D" format="2">
  <advance width="677"/>
  <unicode hex="0044"/>
  <anchor x="339" y="0" name="bottom"/>
  <anchor x="339" y="350" name="center"/>
  <anchor x="339" y="700" name="top"/>
  <outline>
    <contour>
      <point x="287" y="700" type="curve" smooth="yes"/>
      <point x="25" y="700" type="line"/>
      <point x="25" y="690" type="line"/>
      <point x="91" y="684"/>
      <point x="126" y="665"/>
      <point x="125" y="616" type="curve" smooth="yes"/>
      <point x="125" y="84" type="line" smooth="yes"/>
      <point x="125" y="36"/>
      <point x="90" y="17"/>
      <point x="25" y="10" type="curve"/>
      <point x="25" y="0" type="line"/>
      <point x="296" y="0" type="line" smooth="yes"/>
      <point x="503" y="0"/>
      <point x="618" y="140"/>
      <point x="618" y="346" type="curve" smooth="yes"/>
      <point x="618" y="565"/>
      <point x="511" y="700"/>
    </contour>
    <contour>
      <point x="251" y="25" type="curve" smooth="yes"/>
      <point x="220" y="25" type="line"/>
      <point x="220" y="675" type="line"/>
      <point x="251" y="675" type="line" smooth="yes"/>
      <point x="461" y="675"/>
      <point x="518" y="537"/>
      <point x="518" y="346" type="curve" smooth="yes"/>
      <point x="518" y="157"/>
      <point x="467" y="25"/>
    </contour>
  </outline>
</glyph>
<glyph name="E" format="2">
  <advance width="569"/>
  <unicode hex="0045"/>
  <anchor x="285" y="0" name="bottom"/>
  <anchor x="512" y="10" name="ogonek"/>
  <anchor x="285" y="700" name="top"/>
  <anchor x="20" y="700" name="topleft"/>
  <outline>
    <contour>
      <point x="334" y="675" type="line" smooth="yes"/>
      <point x="427" y="675"/>
      <point x="470" y="574"/>
      <point x="477" y="475" type="curve"/>
      <point x="487" y="475" type="line"/>
      <point x="487" y="700" type="line"/>
      <point x="25" y="700" type="line"/>
      <point x="25" y="690" type="line"/>
      <point x="90" y="683"/>
      <point x="125" y="664"/>
      <point x="125" y="616" type="curve" smooth="yes"/>
      <point x="125" y="84" type="line" smooth="yes"/>
      <point x="125" y="36"/>
      <point x="90" y="17"/>
      <point x="25" y="10" type="curve"/>
      <point x="25" y="0" type="line"/>
      <point x="487" y="0" type="line"/>
      <point x="487" y="225" type="line"/>
      <point x="477" y="225" type="line"/>
      <point x="470" y="126"/>
      <point x="427" y="25"/>
      <point x="334" y="25" type="curve" smooth="yes"/>
      <point x="220" y="25" type="line"/>
      <point x="220" y="475" type="line"/>
      <point x="234" y="475" type="line" smooth="yes"/>
      <point x="305" y="475"/>
      <point x="385" y="381"/>
      <point x="414" y="307" type="curve"/>
      <point x="424" y="310" type="line"/>
      <point x="319" y="620" type="line"/>
      <point x="309" y="617" type="line"/>
      <point x="331" y="536"/>
      <point x="314" y="500"/>
      <point x="234" y="500" type="curve" smooth="yes"/>
      <point x="220" y="500" type="line"/>
      <point x="220" y="675" type="line"/>
    </contour>
  </outline>
</glyph>
<glyph name="G" format="2">
  <advance width="703"/>
  <unicode hex="0047"/>
  <anchor x="352" y="0" name="bottom"/>
  <anchor x="352" y="700" name="top"/>
  <outline>
    <contour>
      <point x="375" y="443" type="line"/>
      <point x="375" y="433" type="line"/>
      <point x="441" y="426"/>
      <point x="475" y="407"/>
      <point x="475" y="359" type="curve" smooth="yes"/>
      <point x="475" y="83" type="line"/>
      <point x="428" y="33"/>
      <point x="379" y="10"/>
      <point x="335" y="10" type="curve" smooth="yes"/>
      <point x="230" y="10"/>
      <point x="160" y="139"/>
      <point x="160" y="345" type="curve" smooth="yes"/>
      <point x="160" y="565"/>
      <point x="243" y="690"/>
      <point x="344" y="690" type="curve" smooth="yes"/>
      <point x="420" y="690"/>
      <point x="492" y="619"/>
      <point x="538" y="470" type="curve"/>
      <point x="548" y="470" type="line"/>
      <point x="527" y="637" type="line"/>
      <point x="496" y="679"/>
      <point x="435" y="715"/>
      <point x="343" y="715" type="curve" smooth="yes"/>
      <point x="183" y="715"/>
      <point x="60" y="574"/>
      <point x="60" y="345" type="curve" smooth="yes"/>
      <point x="60" y="131"/>
      <point x="190" y="-15"/>
      <point x="329" y="-15" type="curve" smooth="yes"/>
      <point x="382" y="-15"/>
      <point x="433" y="5"/>
      <point x="476" y="49" type="curve"/>
      <point x="570" y="-15" type="line"/>
      <point x="570" y="359" type="line" smooth="yes"/>
      <point x="570" y="407"/>
      <point x="605" y="426"/>
      <point x="670" y="433" type="curve"/>
      <point x="670" y="443" type="line"/>
    </contour>
  </outline>
</glyph>
<glyph name="H" format="2">
  <advance width="674"/>
  <unicode hex="0048"/>
  <anchor x="337" y="0" name="bottom"/>
  <anchor x="337" y="350" name="center"/>
  <anchor x="337" y="700" name="top"/>
  <anchor x="20" y="700" name="topleft"/>
  <outline>
    <contour>
      <point x="649" y="690" type="curve"/>
      <point x="649" y="700" type="line"/>
      <point x="354" y="700" type="line"/>
      <point x="354" y="690" type="line"/>
      <point x="419" y="683"/>
      <point x="454" y="664"/>
      <point x="454" y="616" type="curve" smooth="yes"/>
      <point x="454" y="500" type="line"/>
      <point x="220" y="500" type="line"/>
      <point x="220" y="616" type="line" smooth="yes"/>
      <point x="220" y="666"/>
      <point x="255" y="685"/>
      <point x="320" y="690" type="curve"/>
      <point x="320" y="700" type="line"/>
      <point x="25" y="700" type="line"/>
      <point x="25" y="690" type="line"/>
      <point x="93" y="684"/>
      <point x="125" y="666"/>
      <point x="125" y="616" type="curve" smooth="yes"/>
      <point x="125" y="84" type="line" smooth="yes"/>
      <point x="125" y="36"/>
      <point x="90" y="17"/>
      <point x="25" y="10" type="curve"/>
      <point x="25" y="0" type="line"/>
      <point x="320" y="0" type="line"/>
      <point x="320" y="10" type="line"/>
      <point x="255" y="17"/>
      <point x="220" y="36"/>
      <point x="220" y="84" type="curve" smooth="yes"/>
      <point x="220" y="475" type="line"/>
      <point x="454" y="475" type="line"/>
      <point x="454" y="84" type="line" smooth="yes"/>
      <point x="454" y="36"/>
      <point x="419" y="17"/>
      <point x="354" y="10" type="curve"/>
      <point x="354" y="0" type="line"/>
      <point x="649" y="0" type="line"/>
      <point x="649" y="10" type="line"/>
      <point x="584" y="17"/>
      <point x="549" y="36"/>
      <point x="549" y="84" type="curve" smooth="yes"/>
      <point x="549" y="616" type="line" smooth="yes"/>
      <point x="549" y="664"/>
      <point x="584" y="683"/>
    </contour>
  </outline>
</glyph>
<glyph name="I" format="2">
  <advance width="355"/>
  <unicode hex="0049"/>
  <anchor x="178" y="0" name="bottom"/>
  <anchor x="320" y="10" name="ogonek"/>
  <anchor x="178" y="700" name="top"/>
  <anchor x="20" y="700" name="topleft"/>
  <outline>
    <contour>
      <point x="30" y="0" type="line"/>
      <point x="325" y="0" type="line"/>
      <point x="325" y="10" type="line"/>
      <point x="260" y="17"/>
      <point x="225" y="36"/>
      <point x="225" y="84" type="curve" smooth="yes"/>
      <point x="225" y="616" type="line" smooth="yes"/>
      <point x="225" y="664"/>
      <point x="260" y="683"/>
      <point x="325" y="690" type="curve"/>
      <point x="325" y="700" type="line"/>
      <point x="30" y="700" type="line"/>
      <point x="30" y="690" type="line"/>
      <point x="95" y="683"/>
      <point x="130" y="664"/>
      <point x="130" y="616" type="curve" smooth="yes"/>
      <point x="130" y="84" type="line" smooth="yes"/>
      <point x="130" y="36"/>
      <point x="95" y="17"/>
      <point x="30" y="10" type="curve"/>
    </contour>
  </outline>
</glyph>
<glyph name="J" format="2">
  <advance width="332"/>
  <unicode hex="004A"/>
  <anchor x="166" y="0" name="bottom"/>
  <anchor x="166" y="700" name="top"/>
  <outline>
    <contour>
      <point x="314" y="700" type="line"/>
      <point x="19" y="700" type="line"/>
      <point x="19" y="690" type="line"/>
      <point x="84" y="683"/>
      <point x="119" y="665"/>
      <point x="119" y="616" type="curve" smooth="yes"/>
      <point x="119" y="4" type="line" smooth="yes"/>
      <point x="119" y="-120"/>
      <point x="95" y="-180"/>
      <point x="13" y="-180" type="curve" smooth="yes"/>
      <point x="-52" y="-180"/>
      <point x="-105" y="-148"/>
      <point x="-129" y="-105" type="curve"/>
      <point x="-150" y="-117" type="line"/>
      <point x="-123" y="-171"/>
      <point x="-53" y="-215"/>
      <point x="35" y="-215" type="curve" smooth="yes"/>
      <point x="145" y="-215"/>
      <point x="214" y="-147"/>
      <point x="214" y="4" type="curve" smooth="yes"/>
      <point x="214" y="616" type="line" smooth="yes"/>
      <point x="214" y="664"/>
      <point x="249" y="683"/>
      <point x="314" y="690" type="curve"/>
    </contour>
  </outline>
</glyph>
<glyph name="K" format="2">
  <advance width="702"/>
  <unicode hex="004B"/>
  <guideline x="584" y="265" angle="90"/>
  <anchor x="351" y="0" name="bottom"/>
  <anchor x="351" y="700" name="top"/>
  <outline>
    <contour>
      <point x="529" y="101" type="curve" smooth="yes"/>
      <point x="327" y="526" type="line"/>
      <point x="426" y="615" type="line" smooth="yes"/>
      <point x="459" y="645"/>
      <point x="553" y="683"/>
      <point x="618" y="690" type="curve"/>
      <point x="618" y="700" type="line"/>
      <point x="381" y="700" type="line"/>
      <point x="381" y="690" type="line"/>
      <point x="442" y="683"/>
      <point x="437" y="662"/>
      <point x="402" y="628" type="curve"/>
      <point x="220" y="464" type="line"/>
      <point x="220" y="616" type="line" smooth="yes"/>
      <point x="220" y="664"/>
      <point x="255" y="683"/>
      <point x="320" y="690" type="curve"/>
      <point x="320" y="700" type="line"/>
      <point x="25" y="700" type="line"/>
      <point x="25" y="690" type="line"/>
      <point x="90" y="683"/>
      <point x="125" y="664"/>
      <point x="125" y="616" type="curve" smooth="yes"/>
      <point x="125" y="84" type="line" smooth="yes"/>
      <point x="125" y="36"/>
      <point x="90" y="17"/>
      <point x="25" y="10" type="curve"/>
      <point x="25" y="0" type="line"/>
      <point x="320" y="0" type="line"/>
      <point x="320" y="10" type="line"/>
      <point x="255" y="17"/>
      <point x="220" y="36"/>
      <point x="220" y="84" type="curve" smooth="yes"/>
      <point x="220" y="428" type="line"/>
      <point x="249" y="457" type="line"/>
      <point x="430" y="82" type="line" smooth="yes"/>
      <point x="452" y="33"/>
      <point x="434" y="17"/>
      <point x="370" y="10" type="curve"/>
      <point x="370" y="0" type="line"/>
      <point x="678" y="0" type="line"/>
      <point x="678" y="10" type="line"/>
      <point x="619" y="16"/>
      <point x="560" y="35"/>
    </contour>
  </outline>
</glyph>
<glyph name="L" format="2">
  <advance width="542"/>
  <unicode hex="004C"/>
  <anchor x="271" y="0" name="bottom"/>
  <anchor x="271" y="350" name="center"/>
  <anchor x="209" y="700" name="top"/>
  <anchor x="312" y="750" name="topright"/>
  <outline>
    <contour>
      <point x="487" y="225" type="line"/>
      <point x="480" y="126"/>
      <point x="437" y="25"/>
      <point x="344" y="25" type="curve" smooth="yes"/>
      <point x="225" y="25" type="line"/>
      <point x="225" y="616" type="line" smooth="yes"/>
      <point x="225" y="664"/>
      <point x="260" y="683"/>
      <point x="325" y="690" type="curve"/>
      <point x="325" y="700" type="line"/>
      <point x="30" y="700" type="line"/>
      <point x="30" y="690" type="line"/>
      <point x="95" y="683"/>
      <point x="130" y="664"/>
      <point x="130" y="616" type="curve" smooth="yes"/>
      <point x="130" y="84" type="line" smooth="yes"/>
      <point x="130" y="36"/>
      <point x="95" y="17"/>
      <point x="30" y="10" type="curve"/>
      <point x="30" y="0" type="line"/>
      <point x="497" y="0" type="line"/>
      <point x="497" y="225" type="line"/>
    </contour>
  </outline>
</glyph>
<glyph name="M" format="2">
  <advance width="688"/>
  <unicode hex="004D"/>
  <anchor x="344" y="0" name="bottom"/>
  <anchor x="344" y="700" name="top"/>
  <outline>
    <contour>
      <point x="663" y="690" type="curve"/>
      <point x="663" y="700" type="line"/>
      <point x="463" y="700" type="line"/>
      <point x="343" y="398" type="line"/>
      <point x="214" y="700" type="line"/>
      <point x="22" y="700" type="line"/>
      <point x="22" y="690" type="line"/>
      <point x="87" y="683"/>
      <point x="122" y="665"/>
      <point x="122" y="616" type="curve" smooth="yes"/>
      <point x="122" y="84" type="line" smooth="yes"/>
      <point x="122" y="36"/>
      <point x="87" y="17"/>
      <point x="42" y="10" type="curve"/>
      <point x="42" y="0" type="line"/>
      <point x="247" y="0" type="line"/>
      <point x="247" y="10" type="line"/>
      <point x="182" y="17"/>
      <point x="147" y="36"/>
      <point x="147" y="84" type="curve" smooth="yes"/>
      <point x="147" y="604" type="line"/>
      <point x="308" y="234" type="line"/>
      <point x="463" y="628" type="line"/>
      <point x="463" y="84" type="line" smooth="yes"/>
      <point x="463" y="36"/>
      <point x="428" y="17"/>
      <point x="383" y="10" type="curve"/>
      <point x="383" y="0" type="line"/>
      <point x="663" y="0" type="line"/>
      <point x="663" y="10" type="line"/>
      <point x="598" y="17"/>
      <point x="563" y="36"/>
      <point x="563" y="84" type="curve" smooth="yes"/>
      <point x="563" y="616" type="line" smooth="yes"/>
      <point x="563" y="665"/>
      <point x="598" y="683"/>
    </contour>
  </outline>
</glyph>
<glyph name="N" format="2">
  <advance width="604"/>
  <unicode hex="004E"/>
  <anchor x="302" y="0" name="bottom"/>
  <anchor x="302" y="700" name="top"/>
  <outline>
    <contour>
      <point x="361" y="700" type="line"/>
      <point x="361" y="690" type="line"/>
      <point x="426" y="683"/>
      <point x="461" y="664"/>
      <point x="461" y="616" type="curve" smooth="yes"/>
      <point x="461" y="231" type="line"/>
      <point x="211" y="700" type="line"/>
      <point x="26" y="700" type="line"/>
      <point x="26" y="690" type="line"/>
      <point x="85" y="684"/>
      <point x="119" y="668"/>
      <point x="125" y="629" type="curve"/>
      <point x="125" y="84" type="line" smooth="yes"/>
      <point x="125" y="36"/>
      <point x="90" y="17"/>
      <point x="25" y="10" type="curve"/>
      <point x="25" y="0" type="line"/>
      <point x="250" y="0" type="line"/>
      <point x="250" y="10" type="line"/>
      <point x="185" y="17"/>
      <point x="150" y="36"/>
      <point x="150" y="84" type="curve" smooth="yes"/>
      <point x="150" y="606" type="line"/>
      <point x="481" y="-15" type="line"/>
      <point x="486" y="-15" type="line"/>
      <point x="486" y="616" type="line" smooth="yes"/>
      <point x="486" y="664"/>
      <point x="521" y="683"/>
      <point x="586" y="690" type="curve"/>
      <point x="586" y="700" type="line"/>
    </contour>
  </outline>
</glyph>
<glyph name="O" format="2">
  <advance width="663"/>
  <unicode hex="004F"/>
  <anchor x="332" y="0" name="bottom"/>
  <anchor x="332" y="350" name="center"/>
  <anchor x="597" y="10" name="ogonek"/>
  <anchor x="332" y="700" name="top"/>
  <anchor x="20" y="700" name="topleft"/>
  <anchor x="643" y="700" name="topright"/>
  <outline>
    <contour>
      <point x="332" y="-15" type="curve" smooth="yes"/>
      <point x="493" y="-15"/>
      <point x="603" y="143"/>
      <point x="603" y="345" type="curve" smooth="yes"/>
      <point x="603" y="546"/>
      <point x="493" y="715"/>
      <point x="332" y="715" type="curve" smooth="yes"/>
      <point x="171" y="715"/>
      <point x="60" y="546"/>
      <point x="60" y="345" type="curve" smooth="yes"/>
      <point x="60" y="143"/>
      <point x="171" y="-15"/>
    </contour>
    <contour>
      <point x="332" y="10" type="curve" smooth="yes"/>
      <point x="208" y="10"/>
      <point x="160" y="140"/>
      <point x="160" y="345" type="curve" smooth="yes"/>
      <point x="160" y="559"/>
      <point x="208" y="690"/>
      <point x="332" y="690" type="curve" smooth="yes"/>
      <point x="454" y="690"/>
      <point x="503" y="559"/>
      <point x="503" y="345" type="curve" smooth="yes"/>
      <point x="503" y="140"/>
      <point x="454" y="10"/>
    </contour>
  </outline>
</glyph>
<glyph name="P" format="2">
  <advance width="517"/>
  <unicode hex="0050"/>
  <anchor x="259" y="0" name="bottom"/>
  <anchor x="259" y="700" name="top"/>
  <outline>
    <contour>
      <point x="316" y="700" type="curve" smooth="yes"/>
      <point x="25" y="700" type="line"/>
      <point x="25" y="690" type="line"/>
      <point x="90" y="683"/>
      <point x="125" y="664"/>
      <point x="125" y="616" type="curve" smooth="yes"/>
      <point x="125" y="84" type="line" smooth="yes"/>
      <point x="125" y="36"/>
      <point x="90" y="17"/>
      <point x="25" y="10" type="curve"/>
      <point x="25" y="0" type="line"/>
      <point x="320" y="0" type="line"/>
      <point x="320" y="10" type="line"/>
      <point x="255" y="17"/>
      <point x="220" y="36"/>
      <point x="220" y="84" type="curve" smooth="yes"/>
      <point x="220" y="452" type="line"/>
      <point x="270" y="452" type="line" smooth="yes"/>
      <point x="399" y="452"/>
      <point x="485" y="496"/>
      <point x="485" y="576" type="curve" smooth="yes"/>
      <point x="485" y="651"/>
      <point x="415" y="700"/>
    </contour>
    <contour>
      <point x="268" y="675" type="line" smooth="yes"/>
      <point x="356" y="675"/>
      <point x="385" y="622"/>
      <point x="385" y="575" type="curve" smooth="yes"/>
      <point x="385" y="529"/>
      <point x="356" y="477"/>
      <point x="268" y="477" type="curve" smooth="yes"/>
      <point x="220" y="477" type="line"/>
      <point x="220" y="675" type="line"/>
    </contour>
  </outline>
</glyph>
<glyph name="Q" format="2">
  <advance width="668"/>
  <unicode hex="0051"/>
  <anchor x="334" y="0" name="bottom"/>
  <anchor x="334" y="700" name="top"/>
  <outline>
    <contour>
      <point x="332" y="715" type="curve" smooth="yes"/>
      <point x="171" y="715"/>
      <point x="60" y="546"/>
      <point x="60" y="345" type="curve" smooth="yes"/>
      <point x="60" y="211"/>
      <point x="109" y="96"/>
      <point x="189" y="34" type="curve"/>
      <point x="143" y="21"/>
      <point x="116" y="-20"/>
      <point x="116" y="-83" type="curve"/>
      <point x="123" y="-83" type="line"/>
      <point x="124" y="-55"/>
      <point x="140" y="-15"/>
      <point x="167" y="-15" type="curve" smooth="yes"/>
      <point x="255" y="-15"/>
      <point x="329" y="-154"/>
      <point x="472" y="-154" type="curve" smooth="yes"/>
      <point x="551" y="-154"/>
      <point x="588" y="-111"/>
      <point x="588" y="10" type="curve"/>
      <point x="578" y="10" type="line"/>
      <point x="578" y="-48"/>
      <point x="551" y="-84"/>
      <point x="508" y="-84" type="curve" smooth="yes"/>
      <point x="472" y="-84"/>
      <point x="407" y="-58"/>
      <point x="347" y="-15" type="curve"/>
      <point x="500" y="-5"/>
      <point x="603" y="149"/>
      <point x="603" y="345" type="curve" smooth="yes"/>
      <point x="603" y="546"/>
      <point x="493" y="715"/>
    </contour>
    <contour>
      <point x="160" y="345" type="curve" smooth="yes"/>
      <point x="160" y="559"/>
      <point x="208" y="690"/>
      <point x="332" y="690" type="curve" smooth="yes"/>
      <point x="454" y="690"/>
      <point x="503" y="559"/>
      <point x="503" y="345" type="curve" smooth="yes"/>
      <point x="503" y="140"/>
      <point x="454" y="10"/>
      <point x="332" y="10" type="curve" smooth="yes"/>
      <point x="199" y="10"/>
      <point x="160" y="168"/>
    </contour>
  </outline>
</glyph>
<glyph name="R" format="2">
  <advance width="599"/>
  <unicode hex="0052"/>
  <anchor x="300" y="0" name="bottom"/>
  <anchor x="300" y="700" name="top"/>
  <outline>
    <contour>
      <point x="489" y="89" type="curve" smooth="yes"/>
      <point x="436" y="234"/>
      <point x="530" y="472"/>
      <point x="361" y="486" type="curve"/>
      <point x="449" y="500"/>
      <point x="495" y="539"/>
      <point x="495" y="588" type="curve" smooth="yes"/>
      <point x="495" y="656"/>
      <point x="439" y="700"/>
      <point x="332" y="700" type="curve" smooth="yes"/>
      <point x="25" y="700" type="line"/>
      <point x="25" y="690" type="line"/>
      <point x="90" y="683"/>
      <point x="125" y="664"/>
      <point x="125" y="616" type="curve" smooth="yes"/>
      <point x="125" y="84" type="line" smooth="yes"/>
      <point x="125" y="36"/>
      <point x="90" y="17"/>
      <point x="25" y="10" type="curve"/>
      <point x="25" y="0" type="line"/>
      <point x="320" y="0" type="line"/>
      <point x="320" y="10" type="line"/>
      <point x="255" y="17"/>
      <point x="220" y="36"/>
      <point x="220" y="84" type="curve" smooth="yes"/>
      <point x="220" y="475" type="line"/>
      <point x="261" y="475" type="line" smooth="yes"/>
      <point x="440" y="475"/>
      <point x="339" y="214"/>
      <point x="396" y="64" type="curve" smooth="yes"/>
      <point x="421" y="-1"/>
      <point x="484" y="-3"/>
      <point x="556" y="-3" type="curve" smooth="yes"/>
      <point x="581" y="-3" type="line"/>
      <point x="581" y="7" type="line"/>
      <point x="544" y="7"/>
      <point x="515" y="17"/>
    </contour>
    <contour>
      <point x="297" y="500" type="curve" smooth="yes"/>
      <point x="221" y="500" type="line"/>
      <point x="220" y="675" type="line"/>
      <point x="297" y="675" type="line" smooth="yes"/>
      <point x="359" y="675"/>
      <point x="390" y="632"/>
      <point x="390" y="588" type="curve" smooth="yes"/>
      <point x="390" y="544"/>
      <point x="359" y="500"/>
    </contour>
  </outline>
</glyph>
<glyph name="S" format="2">
  <advance width="463"/>
  <unicode hex="0053"/>
  <guideline x="243" y="358" angle="90"/>
  <anchor x="232" y="0" name="bottom"/>
  <anchor x="232" y="700" name="top"/>
  <outline>
    <contour>
      <point x="247" y="-15" type="curve" smooth="yes"/>
      <point x="323" y="-15"/>
      <point x="410" y="21"/>
      <point x="410" y="123" type="curve" smooth="yes"/>
      <point x="410" y="302"/>
      <point x="163" y="442"/>
      <point x="163" y="610" type="curve" smooth="yes"/>
      <point x="163" y="664"/>
      <point x="191" y="690"/>
      <point x="229" y="690" type="curve" smooth="yes"/>
      <point x="286" y="690"/>
      <point x="341" y="624"/>
      <point x="374" y="515" type="curve"/>
      <point x="384" y="515" type="line"/>
      <point x="365" y="671" type="line"/>
      <point x="326" y="698"/>
      <point x="296" y="715"/>
      <point x="224" y="715" type="curve" smooth="yes"/>
      <point x="129" y="715"/>
      <point x="74" y="656"/>
      <point x="74" y="585" type="curve" smooth="yes"/>
      <point x="74" y="406"/>
      <point x="331" y="222"/>
      <point x="331" y="100" type="curve" smooth="yes"/>
      <point x="331" y="37"/>
      <point x="298" y="8"/>
      <point x="253" y="8" type="curve" smooth="yes"/>
      <point x="181" y="8"/>
      <point x="95" y="82"/>
      <point x="66" y="209" type="curve"/>
      <point x="56" y="209" type="line"/>
      <point x="79" y="36" type="line"/>
      <point x="113" y="-1"/>
      <point x="183" y="-15"/>
    </contour>
  </outline>
</glyph>
<glyph name="T" format="2">
  <advance width="545"/>
  <unicode hex="0054"/>
  <anchor x="273" y="0" name="bottom"/>
  <anchor x="273" y="350" name="center"/>
  <anchor x="273" y="700" name="top"/>
  <outline>
    <contour>
      <point x="500" y="700" type="line"/>
      <point x="45" y="700" type="line"/>
      <point x="45" y="475" type="line"/>
      <point x="55" y="475" type="line"/>
      <point x="62" y="574"/>
      <point x="106" y="675"/>
      <point x="198" y="675" type="curve" smooth="yes"/>
      <point x="225" y="675" type="line"/>
      <point x="225" y="84" type="line" smooth="yes"/>
      <point x="225" y="36"/>
      <point x="190" y="17"/>
      <point x="125" y="10" type="curve"/>
      <point x="125" y="0" type="line"/>
      <point x="420" y="0" type="line"/>
      <point x="420" y="10" type="line"/>
      <point x="355" y="17"/>
      <point x="320" y="36"/>
      <point x="320" y="84" type="curve" smooth="yes"/>
      <point x="320" y="675" type="line"/>
      <point x="347" y="675" type="line" smooth="yes"/>
      <point x="439" y="675"/>
      <point x="483" y="574"/>
      <point x="490" y="475" type="curve"/>
      <point x="500" y="475" type="line"/>
    </contour>
  </outline>
</glyph>
<glyph name="U" format="2">
  <advance width="667"/>
  <unicode hex="0055"/>
  <anchor x="334" y="0" name="bottom"/>
  <anchor x="542" y="10" name="ogonek"/>
  <anchor x="334" y="700" name="top"/>
  <anchor x="647" y="700" name="topright"/>
  <outline>
    <contour>
      <point x="642" y="690" type="curve"/>
      <point x="642" y="700" type="line"/>
      <point x="347" y="700" type="line"/>
      <point x="347" y="690" type="line"/>
      <point x="412" y="683"/>
      <point x="447" y="664"/>
      <point x="447" y="616" type="curve" smooth="yes"/>
      <point x="447" y="208" type="line" smooth="yes"/>
      <point x="447" y="100"/>
      <point x="389" y="14"/>
      <point x="322" y="14" type="curve" smooth="yes"/>
      <point x="269" y="14"/>
      <point x="213" y="80"/>
      <point x="213" y="232" type="curve" smooth="yes"/>
      <point x="213" y="616" type="line" smooth="yes"/>
      <point x="213" y="665"/>
      <point x="248" y="683"/>
      <point x="313" y="690" type="curve"/>
      <point x="313" y="700" type="line"/>
      <point x="18" y="700" type="line"/>
      <point x="18" y="690" type="line"/>
      <point x="83" y="683"/>
      <point x="118" y="664"/>
      <point x="118" y="616" type="curve" smooth="yes"/>
      <point x="118" y="232" type="line" smooth="yes"/>
      <point x="118" y="43"/>
      <point x="200" y="-15"/>
      <point x="300" y="-15" type="curve" smooth="yes"/>
      <point x="360" y="-15"/>
      <point x="415" y="16"/>
      <point x="447" y="67" type="curve"/>
      <point x="442" y="0" type="line"/>
      <point x="642" y="0" type="line"/>
      <point x="642" y="10" type="line"/>
      <point x="577" y="17"/>
      <point x="542" y="36"/>
      <point x="542" y="84" type="curve" smooth="yes"/>
      <point x="542" y="616" type="line" smooth="yes"/>
      <point x="542" y="664"/>
      <point x="577" y="683"/>
    </contour>
  </outline>
</glyph>
<glyph name="V" format="2">
  <advance width="633"/>
  <unicode hex="0056"/>
  <anchor x="317" y="0" name="bottom"/>
  <anchor x="317" y="700" name="top"/>
  <outline>
    <contour>
      <point x="330" y="-15" type="line"/>
      <point x="335" y="-15" type="line"/>
      <point x="511" y="616" type="line" smooth="yes"/>
      <point x="523" y="660"/>
      <point x="571" y="683"/>
      <point x="615" y="690" type="curve"/>
      <point x="615" y="700" type="line"/>
      <point x="407" y="700" type="line"/>
      <point x="407" y="690" type="line"/>
      <point x="470" y="683"/>
      <point x="497" y="666"/>
      <point x="485" y="623" type="curve" smooth="yes"/>
      <point x="366" y="193" type="line"/>
      <point x="228" y="618" type="line" smooth="yes"/>
      <point x="213" y="663"/>
      <point x="238" y="683"/>
      <point x="301" y="690" type="curve"/>
      <point x="301" y="700" type="line"/>
      <point x="18" y="700" type="line"/>
      <point x="18" y="690" type="line"/>
      <point x="65" y="684"/>
      <point x="107" y="667"/>
      <point x="124" y="620" type="curve" smooth="yes"/>
    </contour>
  </outline>
</glyph>
<glyph name="W" format="2">
  <advance width="1013"/>
  <unicode hex="0057"/>
  <anchor x="507" y="0" name="bottom"/>
  <anchor x="507" y="700" name="top"/>
  <outline>
    <contour>
      <point x="787" y="700" type="line"/>
      <point x="787" y="690" type="line"/>
      <point x="850" y="683"/>
      <point x="877" y="666"/>
      <point x="865" y="623" type="curve" smooth="yes"/>
      <point x="744" y="198" type="line"/>
      <point x="607" y="618" type="line" smooth="yes"/>
      <point x="592" y="663"/>
      <point x="617" y="683"/>
      <point x="680" y="690" type="curve"/>
      <point x="680" y="700" type="line"/>
      <point x="398" y="700" type="line"/>
      <point x="398" y="690" type="line"/>
      <point x="436" y="685"/>
      <point x="472" y="673"/>
      <point x="493" y="643" type="curve"/>
      <point x="364" y="198" type="line"/>
      <point x="227" y="618" type="line" smooth="yes"/>
      <point x="212" y="663"/>
      <point x="237" y="683"/>
      <point x="300" y="690" type="curve"/>
      <point x="300" y="700" type="line"/>
      <point x="18" y="700" type="line"/>
      <point x="18" y="690" type="line"/>
      <point x="65" y="684"/>
      <point x="107" y="667"/>
      <point x="124" y="620" type="curve" smooth="yes"/>
      <point x="330" y="-15" type="line"/>
      <point x="509" y="605" type="line"/>
      <point x="710" y="-15" type="line"/>
      <point x="891" y="616" type="line" smooth="yes"/>
      <point x="904" y="660"/>
      <point x="951" y="683"/>
      <point x="995" y="690" type="curve"/>
      <point x="995" y="700" type="line"/>
    </contour>
  </outline>
</glyph>
<glyph name="X" format="2">
  <advance width="648"/>
  <unicode hex="0058"/>
  <anchor x="324" y="0" name="bottom"/>
  <anchor x="324" y="700" name="top"/>
  <outline>
    <contour>
      <point x="28" y="0" type="line"/>
      <point x="238" y="0" type="line"/>
      <point x="238" y="10" type="line"/>
      <point x="176" y="17"/>
      <point x="158" y="35"/>
      <point x="176" y="74" type="curve" smooth="yes"/>
      <point x="300" y="311" type="line"/>
      <point x="404" y="80" type="line" smooth="yes"/>
      <point x="422" y="37"/>
      <point x="404" y="17"/>
      <point x="340" y="10" type="curve"/>
      <point x="340" y="0" type="line"/>
      <point x="628" y="0" type="line"/>
      <point x="628" y="10" type="line"/>
      <point x="582" y="16"/>
      <point x="536" y="25"/>
      <point x="515" y="72" type="curve" smooth="yes"/>
      <point x="370" y="393" type="line"/>
      <point x="487" y="619" type="line" smooth="yes"/>
      <point x="508" y="660"/>
      <point x="564" y="683"/>
      <point x="609" y="690" type="curve"/>
      <point x="609" y="700" type="line"/>
      <point x="399" y="700" type="line"/>
      <point x="399" y="690" type="line"/>
      <point x="460" y="683"/>
      <point x="478" y="660"/>
      <point x="455" y="615" type="curve" smooth="yes"/>
      <point x="356" y="424" type="line"/>
      <point x="268" y="619" type="line" smooth="yes"/>
      <point x="249" y="661"/>
      <point x="268" y="683"/>
      <point x="331" y="690" type="curve"/>
      <point x="331" y="700" type="line"/>
      <point x="24" y="700" type="line"/>
      <point x="24" y="690" type="line"/>
      <point x="88" y="684"/>
      <point x="136" y="666"/>
      <point x="158" y="625" type="curve" smooth="yes"/>
      <point x="286" y="342" type="line"/>
      <point x="146" y="73" type="line" smooth="yes"/>
      <point x="124" y="33"/>
      <point x="73" y="17"/>
      <point x="28" y="10" type="curve"/>
    </contour>
  </outline>
</glyph>
<glyph name="Y" format="2">
  <advance width="633"/>
  <unicode hex="0059"/>
  <anchor x="317" y="0" name="bottom"/>
  <anchor x="317" y="700" name="top"/>
  <anchor x="20" y="700" name="topleft"/>
  <outline>
    <contour>
      <point x="164" y="0" type="line"/>
      <point x="459" y="0" type="line"/>
      <point x="459" y="10" type="line"/>
      <point x="394" y="17"/>
      <point x="359" y="36"/>
      <point x="359" y="84" type="curve" smooth="yes"/>
      <point x="359" y="297" type="line"/>
      <point x="501" y="621" type="line" smooth="yes"/>
      <point x="519" y="663"/>
      <point x="572" y="683"/>
      <point x="615" y="690" type="curve"/>
      <point x="615" y="700" type="line"/>
      <point x="407" y="700" type="line"/>
      <point x="407" y="690" type="line"/>
      <point x="470" y="683"/>
      <point x="489" y="659"/>
      <point x="472" y="620" type="curve" smooth="yes"/>
      <point x="351" y="341" type="line"/>
      <point x="237" y="618" type="line" smooth="yes"/>
      <point x="220" y="660"/>
      <point x="240" y="683"/>
      <point x="303" y="690" type="curve"/>
      <point x="303" y="700" type="line"/>
      <point x="18" y="700" type="line"/>
      <point x="18" y="690" type="line"/>
      <point x="64" y="684"/>
      <point x="108" y="667"/>
      <point x="130" y="623" type="curve"/>
      <point x="264" y="298" type="line"/>
      <point x="264" y="84" type="line" smooth="yes"/>
      <point x="264" y="36"/>
      <point x="229" y="17"/>
      <point x="164" y="10" type="curve"/>
    </contour>
  </outline>
</glyph>
<glyph name="Z" format="2">
  <advance width="581"/>
  <unicode hex="005A"/>
  <anchor x="291" y="0" name="bottom"/>
  <anchor x="291" y="350" name="center"/>
  <anchor x="291" y="700" name="top"/>
  <outline>
    <contour>
      <point x="59" y="0" type="line"/>
      <point x="522" y="0" type="line"/>
      <point x="522" y="225" type="line"/>
      <point x="512" y="225" type="line"/>
      <point x="505" y="126"/>
      <point x="462" y="25"/>
      <point x="369" y="25" type="curve" smooth="yes"/>
      <point x="171" y="25" type="line"/>
      <point x="522" y="675" type="line"/>
      <point x="522" y="700" type="line"/>
      <point x="59" y="700" type="line"/>
      <point x="59" y="475" type="line"/>
      <point x="69" y="475" type="line"/>
      <point x="76" y="574"/>
      <point x="119" y="675"/>
      <point x="212" y="675" type="curve" smooth="yes"/>
      <point x="411" y="675" type="line"/>
      <point x="59" y="25" type="line"/>
    </contour>
  </outline>
</glyph>
<glyph name="bracketleft" format="2">
  <advance width="353"/>
  <unicode hex="005B"/>
  <outline>
    <contour>
      <point x="333" y="774" type="line"/>
      <point x="333" y="799" type="line"/>
      <point x="96" y="799" type="line"/>
      <point x="96" y="-109" type="line"/>
      <point x="333" y="-109" type="line"/>
      <point x="333" y="-84" type="line"/>
      <point x="154" y="-84" type="line"/>
      <point x="154" y="774" type="line"/>
    </contour>
  </outline>
</glyph>
<glyph name="backslash" format="2">
  <advance width="269"/>
  <unicode hex="005C"/>
  <outline>
    <contour>
      <point x="40" y="725" type="line"/>
      <point x="9" y="722" type="line"/>
      <point x="228" y="-13" type="line"/>
      <point x="259" y="-10" type="line"/>
    </contour>
  </outline>
</glyph>
<glyph name="bracketright" format="2">
  <advance width="353"/>
  <unicode hex="005D"/>
  <outline>
    <contour>
      <point x="20" y="-109" type="line"/>
      <point x="257" y="-109" type="line"/>
      <point x="257" y="799" type="line"/>
      <point x="20" y="799" type="line"/>
      <point x="20" y="774" type="line"/>
      <point x="199" y="774" type="line"/>
      <point x="199" y="-84" type="line"/>
      <point x="20" y="-84" type="line"/>
    </contour>
  </outline>
</glyph>
<glyph name="asciicircum" format="2">
  <advance width="490"/>
  <unicode hex="005E"/>
  <outline>
    <contour>
      <point x="410" y="614" type="line"/>
      <point x="245" y="749" type="line"/>
      <point x="80" y="614" type="line"/>
      <point x="93" y="600" type="line"/>
      <point x="245" y="719" type="line"/>
      <point x="397" y="600" type="line"/>
    </contour>
  </outline>
</glyph>
<glyph name="underscore" format="2">
  <advance width="512"/>
  <unicode hex="005F"/>
  <outline>
    <contour>
      <point x="80" y="-14" type="line"/>
      <point x="80" y="-44" type="line"/>
      <point x="432" y="-44" type="line"/>
      <point x="432" y="-14" type="line"/>
    </contour>
  </outline>
</glyph>
<glyph name="a" format="2">
  <advance width="510"/>
  <unicode hex="0061"/>
  <anchor x="255" y="0" name="bottom"/>
  <anchor x="459" y="10" name="ogonek"/>
  <anchor x="255" y="500" name="top"/>
  <outline>
    <contour>
      <point x="211" y="-15" type="curve" smooth="yes"/>
      <point x="277" y="-15"/>
      <point x="317" y="19"/>
      <point x="332" y="53" type="curve"/>
      <point x="342" y="8"/>
      <point x="376" y="-15"/>
      <point x="405" y="-15" type="curve" smooth="yes"/>
      <point x="437" y="-15"/>
      <point x="468" y="-4"/>
      <point x="493" y="71" type="curve"/>
      <point x="480" y="88" type="line"/>
      <point x="462" y="43"/>
      <point x="448" y="20"/>
      <point x="437" y="20" type="curve" smooth="yes"/>
      <point x="415" y="21"/>
      <point x="418" y="58"/>
      <point x="418" y="134" type="curve" smooth="yes"/>
      <point x="418" y="334" type="line" smooth="yes"/>
      <point x="418" y="467"/>
      <point x="339" y="515"/>
      <point x="243" y="515" type="curve" smooth="yes"/>
      <point x="179" y="515"/>
      <point x="130" y="486"/>
      <point x="95" y="469" type="curve"/>
      <point x="67" y="303" type="line"/>
      <point x="77" y="303" type="line"/>
      <point x="124" y="421"/>
      <point x="168" y="492"/>
      <point x="241" y="492" type="curve" smooth="yes"/>
      <point x="288" y="492"/>
      <point x="332" y="455"/>
      <point x="332" y="392" type="curve"/>
      <point x="145" y="367"/>
      <point x="57" y="244"/>
      <point x="57" y="143" type="curve" smooth="yes"/>
      <point x="57" y="32"/>
      <point x="142" y="-15"/>
    </contour>
    <contour>
      <point x="229" y="9" type="curve" smooth="yes"/>
      <point x="188" y="10"/>
      <point x="149" y="50"/>
      <point x="149" y="137" type="curve" smooth="yes"/>
      <point x="149" y="276"/>
      <point x="206" y="346"/>
      <point x="332" y="369" type="curve"/>
      <point x="332" y="349"/>
      <point x="332" y="308"/>
      <point x="332" y="296" type="curve" smooth="yes"/>
      <point x="332" y="164" type="line" smooth="yes"/>
      <point x="332" y="64"/>
      <point x="275" y="8"/>
    </contour>
  </outline>
</glyph>
<glyph name="b" format="2">
  <advance width="554"/>
  <unicode hex="0062"/>
  <anchor x="277" y="0" name="bottom"/>
  <anchor x="277" y="250" name="center"/>
  <anchor x="277" y="500" name="top"/>
  <outline>
    <contour>
      <point x="80" y="-15" type="line"/>
      <point x="85" y="-15" type="line"/>
      <point x="158" y="95" type="line"/>
      <point x="192" y="28"/>
      <point x="248" y="-15"/>
      <point x="318" y="-15" type="curve" smooth="yes"/>
      <point x="444" y="-15"/>
      <point x="506" y="118"/>
      <point x="506" y="250" type="curve" smooth="yes"/>
      <point x="506" y="383"/>
      <point x="444" y="515"/>
      <point x="318" y="515" type="curve" smooth="yes"/>
      <point x="261" y="515"/>
      <point x="200" y="488"/>
      <point x="166" y="441" type="curve"/>
      <point x="166" y="700" type="line"/>
      <point x="-10" y="700" type="line"/>
      <point x="-10" y="690" type="line"/>
      <point x="56" y="684"/>
      <point x="80" y="664"/>
      <point x="80" y="616" type="curve" smooth="yes"/>
    </contour>
    <contour>
      <point x="295" y="13" type="curve" smooth="yes"/>
      <point x="233" y="13"/>
      <point x="166" y="108"/>
      <point x="166" y="258" type="curve" smooth="yes"/>
      <point x="166" y="397"/>
      <point x="232" y="489"/>
      <point x="295" y="489" type="curve" smooth="yes"/>
      <point x="375" y="489"/>
      <point x="414" y="370"/>
      <point x="414" y="251" type="curve" smooth="yes"/>
      <point x="414" y="132"/>
      <point x="375" y="13"/>
    </contour>
  </outline>
</glyph>
<glyph name="c" format="2">
  <advance width="488"/>
  <unicode hex="0063"/>
  <anchor x="244" y="0" name="bottom"/>
  <anchor x="244" y="500" name="top"/>
  <outline>
    <contour>
      <point x="264" y="-15" type="curve" smooth="yes"/>
      <point x="381" y="-15"/>
      <point x="424" y="58"/>
      <point x="438" y="144" type="curve"/>
      <point x="415" y="149" type="line"/>
      <point x="404" y="76"/>
      <point x="369" y="8"/>
      <point x="270" y="8" type="curve" smooth="yes"/>
      <point x="183" y="8"/>
      <point x="138" y="117"/>
      <point x="138" y="246" type="curve" smooth="yes"/>
      <point x="138" y="383"/>
      <point x="180" y="492"/>
      <point x="265" y="492" type="curve" smooth="yes"/>
      <point x="327" y="492"/>
      <point x="378" y="440"/>
      <point x="425" y="316" type="curve"/>
      <point x="435" y="316" type="line"/>
      <point x="418" y="463" type="line"/>
      <point x="401" y="485"/>
      <point x="337" y="515"/>
      <point x="271" y="515" type="curve" smooth="yes"/>
      <point x="121" y="515"/>
      <point x="46" y="380"/>
      <point x="46" y="246" type="curve" smooth="yes"/>
      <point x="46" y="115"/>
      <point x="118" y="-15"/>
    </contour>
  </outline>
</glyph>
<glyph name="d" format="2">
  <advance width="558"/>
  <unicode hex="0064"/>
  <anchor x="279" y="0" name="bottom"/>
  <anchor x="279" y="250" name="center"/>
  <anchor x="279" y="700" name="top"/>
  <anchor x="498" y="750" name="topright"/>
  <outline>
    <contour>
      <point x="245" y="-16" type="curve" smooth="yes"/>
      <point x="309" y="-16"/>
      <point x="365" y="18"/>
      <point x="400" y="95" type="curve"/>
      <point x="473" y="-15" type="line"/>
      <point x="478" y="-15" type="line"/>
      <point x="478" y="700" type="line"/>
      <point x="302" y="700" type="line"/>
      <point x="302" y="690" type="line"/>
      <point x="368" y="682"/>
      <point x="392" y="664"/>
      <point x="392" y="616" type="curve" smooth="yes"/>
      <point x="392" y="441" type="line"/>
      <point x="347" y="492"/>
      <point x="303" y="515"/>
      <point x="250" y="515" type="curve" smooth="yes"/>
      <point x="118" y="515"/>
      <point x="52" y="381"/>
      <point x="52" y="248" type="curve" smooth="yes"/>
      <point x="52" y="115"/>
      <point x="117" y="-16"/>
    </contour>
    <contour>
      <point x="275" y="18" type="curve" smooth="yes"/>
      <point x="188" y="18"/>
      <point x="144" y="138"/>
      <point x="144" y="258" type="curve" smooth="yes"/>
      <point x="144" y="374"/>
      <point x="186" y="490"/>
      <point x="268" y="490" type="curve" smooth="yes"/>
      <point x="328" y="490"/>
      <point x="392" y="399"/>
      <point x="392" y="246" type="curve" smooth="yes"/>
      <point x="392" y="95"/>
      <point x="333" y="18"/>
    </contour>
  </outline>
</glyph>
<glyph name="e" format="2">
  <advance width="477"/>
  <unicode hex="0065"/>
  <anchor x="239" y="0" name="bottom"/>
  <anchor x="414" y="10" name="ogonek"/>
  <anchor x="239" y="500" name="top"/>
  <outline>
    <contour>
      <point x="267" y="-15" type="curve" smooth="yes"/>
      <point x="325" y="-15"/>
      <point x="395" y="19"/>
      <point x="430" y="149" type="curve"/>
      <point x="408" y="157" type="line"/>
      <point x="379" y="45"/>
      <point x="320" y="8"/>
      <point x="272" y="8" type="curve" smooth="yes"/>
      <point x="191" y="8"/>
      <point x="137" y="103"/>
      <point x="137" y="246" type="curve" smooth="yes"/>
      <point x="137" y="399"/>
      <point x="208" y="492"/>
      <point x="259" y="492" type="curve" smooth="yes"/>
      <point x="298" y="492"/>
      <point x="340" y="455"/>
      <point x="344" y="320" type="curve"/>
      <point x="434" y="320" type="line"/>
      <point x="434" y="405"/>
      <point x="382" y="515"/>
      <point x="251" y="515" type="curve" smooth="yes"/>
      <point x="136" y="515"/>
      <point x="45" y="390"/>
      <point x="45" y="245" type="curve" smooth="yes"/>
      <point x="45" y="104"/>
      <point x="139" y="-15"/>
    </contour>
    <contour>
      <point x="114" y="320" type="line"/>
      <point x="416" y="320" type="line"/>
      <point x="416" y="343" type="line"/>
      <point x="114" y="343" type="line"/>
    </contour>
  </outline>
</glyph>
<glyph name="f" format="2">
  <advance width="397"/>
  <unicode hex="0066"/>
  <anchor x="199" y="0" name="bottom"/>
  <anchor x="199" y="700" name="top"/>
  <outline>
    <contour>
      <point x="12" y="0" type="line"/>
      <point x="298" y="0" type="line"/>
      <point x="298" y="10" type="line"/>
      <point x="233" y="17"/>
      <point x="198" y="36"/>
      <point x="198" y="84" type="curve" smooth="yes"/>
      <point x="198" y="477" type="line"/>
      <point x="394" y="477" type="line"/>
      <point x="394" y="500" type="line"/>
      <point x="266" y="500" type="line" smooth="yes"/>
      <point x="194" y="500"/>
      <point x="181" y="533"/>
      <point x="181" y="579" type="curve" smooth="yes"/>
      <point x="181" y="651"/>
      <point x="211" y="690"/>
      <point x="262" y="690" type="curve" smooth="yes"/>
      <point x="333" y="690"/>
      <point x="378" y="617"/>
      <point x="414" y="532" type="curve"/>
      <point x="424" y="532" type="line"/>
      <point x="405" y="669" type="line"/>
      <point x="373" y="700"/>
      <point x="320" y="715"/>
      <point x="267" y="715" type="curve" smooth="yes"/>
      <point x="173" y="715"/>
      <point x="112" y="656"/>
      <point x="112" y="547" type="curve" smooth="yes"/>
      <point x="112" y="500" type="line"/>
      <point x="16" y="500" type="line"/>
      <point x="16" y="477" type="line"/>
      <point x="112" y="477" type="line"/>
      <point x="112" y="84" type="line" smooth="yes"/>
      <point x="112" y="37"/>
      <point x="77" y="18"/>
      <point x="12" y="10" type="curve"/>
    </contour>
  </outline>
</glyph>
<glyph name="g" format="2">
  <advance width="503"/>
  <unicode hex="0067"/>
  <guideline x="188" y="323" angle="90"/>
  <anchor x="252" y="-200" name="bottom"/>
  <anchor x="252" y="500" name="top"/>
  <outline>
    <contour>
      <point x="261" y="169" type="curve" smooth="yes"/>
      <point x="363" y="169"/>
      <point x="445" y="244"/>
      <point x="445" y="335" type="curve" smooth="yes"/>
      <point x="445" y="426"/>
      <point x="363" y="500"/>
      <point x="261" y="500" type="curve" smooth="yes"/>
      <point x="158" y="500"/>
      <point x="76" y="426"/>
      <point x="76" y="335" type="curve" smooth="yes"/>
      <point x="76" y="244"/>
      <point x="158" y="169"/>
    </contour>
    <contour>
      <point x="261" y="192" type="curve" smooth="yes"/>
      <point x="199" y="192"/>
      <point x="168" y="263"/>
      <point x="168" y="335" type="curve" smooth="yes"/>
      <point x="168" y="406"/>
      <point x="199" y="477"/>
      <point x="261" y="477" type="curve" smooth="yes"/>
      <point x="322" y="477"/>
      <point x="353" y="406"/>
      <point x="353" y="335" type="curve" smooth="yes"/>
      <point x="353" y="263"/>
      <point x="322" y="192"/>
    </contour>
    <contour>
      <point x="262" y="477" type="line"/>
      <point x="473" y="477" type="line"/>
      <point x="473" y="500" type="line"/>
      <point x="262" y="500" type="line"/>
    </contour>
    <contour>
      <point x="61" y="17"/>
      <point x="400" y="71"/>
      <point x="400" y="-71" type="curve" smooth="yes"/>
      <point x="400" y="-152"/>
      <point x="325" y="-191"/>
      <point x="259" y="-191" type="curve" smooth="yes"/>
      <point x="190" y="-191"/>
      <point x="104" y="-148"/>
      <point x="104" y="-65" type="curve" smooth="yes"/>
      <point x="104" y="-22"/>
      <point x="140" y="26"/>
      <point x="186" y="50" type="curve"/>
      <point x="160" y="56" type="line"/>
      <point x="55" y="36"/>
      <point x="13" y="-19"/>
      <point x="13" y="-73" type="curve" smooth="yes"/>
      <point x="13" y="-144"/>
      <point x="95" y="-215"/>
      <point x="254" y="-215" type="curve" smooth="yes"/>
      <point x="417" y="-215"/>
      <point x="491" y="-147"/>
      <point x="491" y="-58" type="curve" smooth="yes"/>
      <point x="491" y="109"/>
      <point x="133" y="79"/>
      <point x="133" y="144" type="curve" smooth="yes"/>
      <point x="133" y="173"/>
      <point x="181" y="180"/>
      <point x="202" y="188" type="curve"/>
      <point x="169" y="200" type="line"/>
      <point x="108" y="187"/>
      <point x="64" y="159"/>
      <point x="63" y="121" type="curve" smooth="yes"/>
    </contour>
  </outline>
</glyph>
<glyph name="h" format="2">
  <advance width="563"/>
  <unicode hex="0068"/>
  <anchor x="282" y="0" name="bottom"/>
  <anchor x="282" y="350" name="center"/>
  <anchor x="282" y="700" name="top"/>
  <outline>
    <contour>
      <point x="10" y="0" type="line"/>
      <point x="276" y="0" type="line"/>
      <point x="276" y="10" type="line"/>
      <point x="211" y="17"/>
      <point x="186" y="36"/>
      <point x="186" y="84" type="curve" smooth="yes"/>
      <point x="186" y="270" type="line" smooth="yes"/>
      <point x="186" y="407"/>
      <point x="225" y="487"/>
      <point x="295" y="487" type="curve" smooth="yes"/>
      <point x="346" y="487"/>
      <point x="387" y="440"/>
      <point x="387" y="347" type="curve" smooth="yes"/>
      <point x="387" y="84" type="line" smooth="yes"/>
      <point x="387" y="37"/>
      <point x="362" y="18"/>
      <point x="297" y="10" type="curve"/>
      <point x="297" y="0" type="line"/>
      <point x="563" y="0" type="line"/>
      <point x="563" y="10" type="line"/>
      <point x="497" y="16"/>
      <point x="473" y="36"/>
      <point x="473" y="84" type="curve" smooth="yes"/>
      <point x="473" y="347" type="line" smooth="yes"/>
      <point x="473" y="458"/>
      <point x="404" y="514"/>
      <point x="314" y="514" type="curve" smooth="yes"/>
      <point x="276" y="514"/>
      <point x="223" y="506"/>
      <point x="186" y="452" type="curve"/>
      <point x="186" y="700" type="line"/>
      <point x="10" y="700" type="line"/>
      <point x="10" y="690" type="line" smooth="yes"/>
      <point x="76" y="683"/>
      <point x="100" y="664"/>
      <point x="100" y="616" type="curve"/>
      <point x="100" y="84" type="line"/>
      <point x="100" y="36"/>
      <point x="75" y="17"/>
      <point x="10" y="10" type="curve" smooth="yes"/>
    </contour>
  </outline>
</glyph>
<glyph name="k" format="2">
  <advance width="590"/>
  <unicode hex="006B"/>
  <anchor x="295" y="0" name="bottom"/>
  <anchor x="295" y="700" name="top"/>
  <outline>
    <contour>
      <point x="14" y="0" type="line"/>
      <point x="280" y="0" type="line"/>
      <point x="280" y="10" type="line"/>
      <point x="214" y="16"/>
      <point x="190" y="36"/>
      <point x="190" y="84" type="curve" smooth="yes"/>
      <point x="190" y="323" type="line"/>
      <point x="217" y="344" type="line"/>
      <point x="355" y="71" type="line" smooth="yes"/>
      <point x="374" y="34"/>
      <point x="360" y="16"/>
      <point x="301" y="10" type="curve"/>
      <point x="301" y="0" type="line"/>
      <point x="574" y="-7" type="line"/>
      <point x="574" y="3" type="line"/>
      <point x="508" y="9"/>
      <point x="481" y="22"/>
      <point x="455" y="73" type="curve" smooth="yes"/>
      <point x="290" y="400" type="line"/>
      <point x="344" y="438" type="line" smooth="yes"/>
      <point x="388" y="469"/>
      <point x="441" y="484"/>
      <point x="504" y="490" type="curve"/>
      <point x="504" y="500" type="line"/>
      <point x="290" y="500" type="line"/>
      <point x="290" y="490" type="line"/>
      <point x="349" y="485"/>
      <point x="340" y="470"/>
      <point x="307" y="444" type="curve" smooth="yes"/>
      <point x="190" y="355" type="line"/>
      <point x="190" y="616" type="line" smooth="yes"/>
      <point x="190" y="664"/>
      <point x="214" y="684"/>
      <point x="280" y="690" type="curve"/>
      <point x="280" y="700" type="line"/>
      <point x="14" y="700" type="line"/>
      <point x="14" y="690" type="line"/>
      <point x="80" y="684"/>
      <point x="104" y="664"/>
      <point x="104" y="616" type="curve" smooth="yes"/>
      <point x="104" y="84" type="line" smooth="yes"/>
      <point x="104" y="36"/>
      <point x="80" y="16"/>
      <point x="14" y="10" type="curve"/>
    </contour>
  </outline>
</glyph>
<glyph name="l" format="2">
  <advance width="296"/>
  <unicode hex="006C"/>
  <anchor x="148" y="0" name="bottom"/>
  <anchor x="148" y="350" name="center"/>
  <anchor x="148" y="700" name="top"/>
  <anchor x="216" y="750" name="topright"/>
  <outline>
    <contour>
      <point x="0" y="0" type="line"/>
      <point x="286" y="0" type="line"/>
      <point x="286" y="10" type="line"/>
      <point x="221" y="17"/>
      <point x="186" y="36"/>
      <point x="186" y="84" type="curve" smooth="yes"/>
      <point x="186" y="700" type="line"/>
      <point x="0" y="700" type="line"/>
      <point x="0" y="690" type="line"/>
      <point x="66" y="683"/>
      <point x="100" y="664"/>
      <point x="100" y="616" type="curve" smooth="yes"/>
      <point x="100" y="84" type="line" smooth="yes"/>
      <point x="100" y="36"/>
      <point x="65" y="17"/>
      <point x="0" y="10" type="curve"/>
    </contour>
  </outline>
</glyph>
<glyph name="m" format="2">
  <advance width="877"/>
  <unicode hex="006D"/>
  <anchor x="439" y="0" name="bottom"/>
  <anchor x="439" y="500" name="top"/>
  <outline>
    <contour>
      <point x="11" y="0" type="line"/>
      <point x="277" y="0" type="line"/>
      <point x="277" y="10" type="line"/>
      <point x="212" y="17"/>
      <point x="187" y="36"/>
      <point x="187" y="84" type="curve" smooth="yes"/>
      <point x="187" y="255" type="line" smooth="yes"/>
      <point x="187" y="400"/>
      <point x="261" y="491"/>
      <point x="321" y="491" type="curve" smooth="yes"/>
      <point x="364" y="491"/>
      <point x="401" y="446"/>
      <point x="401" y="343" type="curve" smooth="yes"/>
      <point x="401" y="84" type="line" smooth="yes"/>
      <point x="401" y="37"/>
      <point x="376" y="18"/>
      <point x="311" y="10" type="curve"/>
      <point x="311" y="0" type="line"/>
      <point x="577" y="0" type="line"/>
      <point x="577" y="10" type="line"/>
      <point x="511" y="16"/>
      <point x="486" y="36"/>
      <point x="487" y="84" type="curve" smooth="yes"/>
      <point x="487" y="255" type="line" smooth="yes"/>
      <point x="487" y="403"/>
      <point x="559" y="490"/>
      <point x="620" y="490" type="curve" smooth="yes"/>
      <point x="663" y="490"/>
      <point x="701" y="445"/>
      <point x="701" y="343" type="curve" smooth="yes"/>
      <point x="701" y="84" type="line" smooth="yes"/>
      <point x="701" y="37"/>
      <point x="676" y="18"/>
      <point x="611" y="10" type="curve"/>
      <point x="611" y="0" type="line"/>
      <point x="877" y="0" type="line"/>
      <point x="877" y="10" type="line"/>
      <point x="811" y="16"/>
      <point x="786" y="36"/>
      <point x="787" y="84" type="curve" smooth="yes"/>
      <point x="787" y="347" type="line" smooth="yes"/>
      <point x="787" y="452"/>
      <point x="712" y="514"/>
      <point x="634" y="514" type="curve" smooth="yes"/>
      <point x="575" y="514"/>
      <point x="514" y="480"/>
      <point x="479" y="404" type="curve"/>
      <point x="455" y="477"/>
      <point x="397" y="514"/>
      <point x="336" y="514" type="curve" smooth="yes"/>
      <point x="280" y="514"/>
      <point x="223" y="483"/>
      <point x="187" y="419" type="curve"/>
      <point x="187" y="500" type="line"/>
      <point x="11" y="500" type="line"/>
      <point x="11" y="490" type="line"/>
      <point x="77" y="483"/>
      <point x="101" y="464"/>
      <point x="101" y="416" type="curve" smooth="yes"/>
      <point x="101" y="84" type="line" smooth="yes"/>
      <point x="101" y="36"/>
      <point x="76" y="17"/>
      <point x="11" y="10" type="curve"/>
    </contour>
  </outline>
</glyph>
<glyph name="n" format="2">
  <advance width="576"/>
  <unicode hex="006E"/>
  <anchor x="288" y="0" name="bottom"/>
  <anchor x="288" y="500" name="top"/>
  <outline>
    <contour>
      <point x="486" y="84" type="curve" smooth="yes"/>
      <point x="486" y="339" type="line" smooth="yes"/>
      <point x="486" y="451"/>
      <point x="426" y="515"/>
      <point x="328" y="515" type="curve" smooth="yes"/>
      <point x="275" y="515"/>
      <point x="221" y="485"/>
      <point x="186" y="419" type="curve"/>
      <point x="186" y="500" type="line"/>
      <point x="10" y="500" type="line"/>
      <point x="10" y="490" type="line"/>
      <point x="76" y="483"/>
      <point x="100" y="464"/>
      <point x="100" y="416" type="curve" smooth="yes"/>
      <point x="100" y="84" type="line" smooth="yes"/>
      <point x="100" y="36"/>
      <point x="75" y="17"/>
      <point x="10" y="10" type="curve"/>
      <point x="10" y="0" type="line"/>
      <point x="276" y="0" type="line"/>
      <point x="276" y="10" type="line"/>
      <point x="211" y="17"/>
      <point x="186" y="36"/>
      <point x="186" y="84" type="curve" smooth="yes"/>
      <point x="186" y="255" type="line" smooth="yes"/>
      <point x="186" y="397"/>
      <point x="257" y="491"/>
      <point x="318" y="491" type="curve" smooth="yes"/>
      <point x="369" y="491"/>
      <point x="400" y="441"/>
      <point x="400" y="323" type="curve" smooth="yes"/>
      <point x="400" y="84" type="line" smooth="yes"/>
      <point x="400" y="37"/>
      <point x="375" y="18"/>
      <point x="310" y="10" type="curve"/>
      <point x="310" y="0" type="line"/>
      <point x="576" y="0" type="line"/>
      <point x="576" y="10" type="line"/>
      <point x="510" y="16"/>
      <point x="485" y="36"/>
    </contour>
  </outline>
</glyph>
<glyph name="o" format="2">
  <advance width="540"/>
  <unicode hex="006F"/>
  <anchor x="270" y="0" name="bottom"/>
  <anchor x="270" y="250" name="center"/>
  <anchor x="486" y="10" name="ogonek"/>
  <anchor x="270" y="500" name="top"/>
  <anchor x="520" y="500" name="topright"/>
  <outline>
    <contour>
      <point x="271" y="-15" type="curve" smooth="yes"/>
      <point x="400" y="-15"/>
      <point x="492" y="80"/>
      <point x="492" y="246" type="curve" smooth="yes"/>
      <point x="492" y="412"/>
      <point x="400" y="515"/>
      <point x="271" y="515" type="curve" smooth="yes"/>
      <point x="142" y="515"/>
      <point x="48" y="412"/>
      <point x="48" y="246" type="curve" smooth="yes"/>
      <point x="48" y="80"/>
      <point x="142" y="-15"/>
    </contour>
    <contour>
      <point x="271" y="10" type="curve" smooth="yes"/>
      <point x="190" y="10"/>
      <point x="140" y="112"/>
      <point x="140" y="246" type="curve" smooth="yes"/>
      <point x="140" y="388"/>
      <point x="190" y="490"/>
      <point x="271" y="490" type="curve" smooth="yes"/>
      <point x="351" y="490"/>
      <point x="400" y="388"/>
      <point x="400" y="246" type="curve" smooth="yes"/>
      <point x="400" y="112"/>
      <point x="351" y="10"/>
    </contour>
  </outline>
</glyph>
<glyph name="p" format="2">
  <advance width="554"/>
  <unicode hex="0070"/>
  <anchor x="277" y="0" name="bottom"/>
  <anchor x="277" y="500" name="top"/>
  <outline>
    <contour>
      <point x="0" y="-200" type="line"/>
      <point x="266" y="-200" type="line"/>
      <point x="266" y="-190" type="line"/>
      <point x="200" y="-182"/>
      <point x="176" y="-164"/>
      <point x="176" y="-116" type="curve" smooth="yes"/>
      <point x="176" y="59" type="line"/>
      <point x="216" y="8"/>
      <point x="263" y="-15"/>
      <point x="308" y="-15" type="curve" smooth="yes"/>
      <point x="438" y="-15"/>
      <point x="502" y="119"/>
      <point x="502" y="252" type="curve" smooth="yes"/>
      <point x="502" y="384"/>
      <point x="439" y="515"/>
      <point x="312" y="515" type="curve" smooth="yes"/>
      <point x="266" y="515"/>
      <point x="218" y="492"/>
      <point x="176" y="441" type="curve"/>
      <point x="176" y="500" type="line"/>
      <point x="0" y="500" type="line"/>
      <point x="0" y="490" type="line"/>
      <point x="66" y="482"/>
      <point x="90" y="464"/>
      <point x="90" y="416" type="curve" smooth="yes"/>
      <point x="90" y="-116" type="line" smooth="yes"/>
      <point x="90" y="-164"/>
      <point x="66" y="-182"/>
      <point x="0" y="-190" type="curve"/>
    </contour>
    <contour>
      <point x="292" y="12" type="curve" smooth="yes"/>
      <point x="234" y="12"/>
      <point x="176" y="93"/>
      <point x="176" y="254" type="curve" smooth="yes"/>
      <point x="176" y="410"/>
      <point x="235" y="489"/>
      <point x="293" y="489" type="curve" smooth="yes"/>
      <point x="371" y="489"/>
      <point x="410" y="370"/>
      <point x="410" y="251" type="curve" smooth="yes"/>
      <point x="410" y="132"/>
      <point x="371" y="12"/>
    </contour>
  </outline>
</glyph>
<glyph name="q" format="2">
  <advance width="544"/>
  <unicode hex="0071"/>
  <anchor x="272" y="0" name="bottom"/>
  <anchor x="272" y="500" name="top"/>
  <outline>
    <contour>
      <point x="288" y="-200" type="line"/>
      <point x="554" y="-200" type="line"/>
      <point x="554" y="-190" type="line"/>
      <point x="488" y="-182"/>
      <point x="464" y="-164"/>
      <point x="464" y="-116" type="curve" smooth="yes"/>
      <point x="464" y="515" type="line"/>
      <point x="459" y="515" type="line"/>
      <point x="393" y="423" type="line"/>
      <point x="349" y="487"/>
      <point x="295" y="515"/>
      <point x="243" y="515" type="curve" smooth="yes"/>
      <point x="114" y="515"/>
      <point x="49" y="382"/>
      <point x="49" y="249" type="curve" smooth="yes"/>
      <point x="49" y="117"/>
      <point x="113" y="-15"/>
      <point x="240" y="-15" type="curve" smooth="yes"/>
      <point x="297" y="-15"/>
      <point x="344" y="12"/>
      <point x="378" y="59" type="curve"/>
      <point x="378" y="-116" type="line" smooth="yes"/>
      <point x="378" y="-164"/>
      <point x="354" y="-182"/>
      <point x="288" y="-190" type="curve"/>
    </contour>
    <contour>
      <point x="261" y="10" type="curve" smooth="yes"/>
      <point x="181" y="10"/>
      <point x="141" y="129"/>
      <point x="141" y="249" type="curve" smooth="yes"/>
      <point x="141" y="369"/>
      <point x="181" y="489"/>
      <point x="262" y="489" type="curve" smooth="yes"/>
      <point x="320" y="489"/>
      <point x="378" y="411"/>
      <point x="378" y="254" type="curve" smooth="yes"/>
      <point x="378" y="92"/>
      <point x="319" y="10"/>
    </contour>
  </outline>
</glyph>
<glyph name="r" format="2">
  <advance width="454"/>
  <unicode hex="0072"/>
  <anchor x="227" y="0" name="bottom"/>
  <anchor x="227" y="500" name="top"/>
  <outline>
    <contour>
      <point x="186" y="84" type="curve" smooth="yes"/>
      <point x="186" y="500" type="line"/>
      <point x="10" y="500" type="line"/>
      <point x="10" y="490" type="line"/>
      <point x="76" y="483"/>
      <point x="100" y="464"/>
      <point x="100" y="416" type="curve" smooth="yes"/>
      <point x="100" y="84" type="line" smooth="yes"/>
      <point x="100" y="36"/>
      <point x="75" y="17"/>
      <point x="10" y="10" type="curve"/>
      <point x="10" y="0" type="line"/>
      <point x="276" y="0" type="line"/>
      <point x="276" y="10" type="line"/>
      <point x="211" y="17"/>
      <point x="186" y="36"/>
    </contour>
    <contour>
      <point x="286" y="483" type="curve" smooth="yes"/>
      <point x="344" y="483"/>
      <point x="387" y="384"/>
      <point x="411" y="303" type="curve"/>
      <point x="425" y="303" type="line"/>
      <point x="407" y="469" type="line"/>
      <point x="379" y="495"/>
      <point x="336" y="514"/>
      <point x="310" y="514" type="curve" smooth="yes"/>
      <point x="206" y="514"/>
      <point x="142" y="373"/>
      <point x="142" y="237" type="curve"/>
      <point x="186" y="255" type="line"/>
      <point x="186" y="349"/>
      <point x="226" y="483"/>
    </contour>
  </outline>
</glyph>
<glyph name="s" format="2">
  <advance width="473"/>
  <unicode hex="0073"/>
  <anchor x="237" y="0" name="bottom"/>
  <anchor x="237" y="500" name="top"/>
  <outline>
    <contour>
      <point x="255" y="-14" type="curve" smooth="yes"/>
      <point x="351" y="-14"/>
      <point x="427" y="48"/>
      <point x="427" y="146" type="curve" smooth="yes"/>
      <point x="427" y="235"/>
      <point x="346" y="266"/>
      <point x="271" y="295" type="curve" smooth="yes"/>
      <point x="207" y="321"/>
      <point x="148" y="352"/>
      <point x="148" y="409" type="curve" smooth="yes"/>
      <point x="148" y="467"/>
      <point x="191" y="492"/>
      <point x="230" y="492" type="curve" smooth="yes"/>
      <point x="294" y="492"/>
      <point x="342" y="441"/>
      <point x="394" y="322" type="curve"/>
      <point x="404" y="322" type="line"/>
      <point x="387" y="469" type="line"/>
      <point x="359" y="498"/>
      <point x="305" y="515"/>
      <point x="246" y="515" type="curve" smooth="yes"/>
      <point x="161" y="515"/>
      <point x="75" y="456"/>
      <point x="75" y="369" type="curve" smooth="yes"/>
      <point x="75" y="279"/>
      <point x="155" y="250"/>
      <point x="229" y="221" type="curve" smooth="yes"/>
      <point x="294" y="195"/>
      <point x="355" y="162"/>
      <point x="355" y="101" type="curve" smooth="yes"/>
      <point x="355" y="59"/>
      <point x="326" y="9"/>
      <point x="260" y="9" type="curve" smooth="yes"/>
      <point x="165" y="9"/>
      <point x="121" y="93"/>
      <point x="66" y="253" type="curve"/>
      <point x="56" y="253" type="line"/>
      <point x="68" y="64" type="line"/>
      <point x="100" y="12"/>
      <point x="176" y="-14"/>
    </contour>
  </outline>
</glyph>
<glyph name="t" format="2">
  <advance width="341"/>
  <unicode hex="0074"/>
  <anchor x="221" y="0" name="bottom"/>
  <anchor x="171" y="250" name="center"/>
  <anchor x="171" y="500" name="top"/>
  <anchor x="196" y="750" name="topright"/>
  <outline>
    <contour>
      <point x="15" y="477" type="line"/>
      <point x="299" y="477" type="line"/>
      <point x="299" y="500" type="line"/>
      <point x="15" y="500" type="line"/>
    </contour>
    <contour>
      <point x="15" y="500" type="curve"/>
      <point x="174" y="500" type="line"/>
      <point x="174" y="700" type="line"/>
      <point x="154" y="700" type="line"/>
      <point x="143" y="567"/>
      <point x="124" y="505"/>
    </contour>
    <contour>
      <point x="328" y="83" type="curve"/>
      <point x="307" y="92" type="line"/>
      <point x="286" y="38"/>
      <point x="258" y="15"/>
      <point x="233" y="15" type="curve" smooth="yes"/>
      <point x="195" y="15"/>
      <point x="174" y="65"/>
      <point x="174" y="188" type="curve" smooth="yes"/>
      <point x="174" y="480" type="line"/>
      <point x="88" y="480" type="line"/>
      <point x="88" y="158" type="line" smooth="yes"/>
      <point x="88" y="40"/>
      <point x="143" y="-14"/>
      <point x="216" y="-14" type="curve" smooth="yes"/>
      <point x="262" y="-14"/>
      <point x="301" y="15"/>
    </contour>
  </outline>
</glyph>
<glyph name="u" format="2">
  <advance width="532"/>
  <unicode hex="0075"/>
  <anchor x="266" y="0" name="bottom"/>
  <anchor x="459" y="10" name="ogonek"/>
  <anchor x="266" y="500" name="top"/>
  <anchor x="512" y="500" name="topright"/>
  <outline>
    <contour>
      <point x="237" y="-15" type="curve" smooth="yes"/>
      <point x="313" y="-15"/>
      <point x="349" y="43"/>
      <point x="356" y="83" type="curve"/>
      <point x="356" y="0" type="line"/>
      <point x="532" y="0" type="line"/>
      <point x="532" y="10" type="line"/>
      <point x="466" y="17"/>
      <point x="442" y="36"/>
      <point x="442" y="84" type="curve" smooth="yes"/>
      <point x="442" y="500" type="line"/>
      <point x="266" y="500" type="line"/>
      <point x="266" y="490" type="line"/>
      <point x="331" y="483"/>
      <point x="356" y="464"/>
      <point x="356" y="416" type="curve" smooth="yes"/>
      <point x="356" y="239" type="line" smooth="yes"/>
      <point x="356" y="144"/>
      <point x="330" y="9"/>
      <point x="250" y="9" type="curve" smooth="yes"/>
      <point x="213" y="9"/>
      <point x="176" y="58"/>
      <point x="176" y="162" type="curve" smooth="yes"/>
      <point x="176" y="500" type="line"/>
      <point x="0" y="500" type="line"/>
      <point x="0" y="490" type="line"/>
      <point x="65" y="484"/>
      <point x="90" y="464"/>
      <point x="90" y="416" type="curve" smooth="yes"/>
      <point x="91" y="149" type="line" smooth="yes"/>
      <point x="91" y="35"/>
      <point x="153" y="-15"/>
    </contour>
  </outline>
</glyph>
<glyph name="v" format="2">
  <advance width="534"/>
  <unicode hex="0076"/>
  <anchor x="267" y="0" name="bottom"/>
  <anchor x="267" y="500" name="top"/>
  <outline>
    <contour>
      <point x="534" y="500" type="line"/>
      <point x="326" y="500" type="line"/>
      <point x="326" y="490" type="line"/>
      <point x="389" y="482"/>
      <point x="403" y="461"/>
      <point x="390" y="421" type="curve" smooth="yes"/>
      <point x="308" y="163" type="line"/>
      <point x="214" y="421" type="line" smooth="yes"/>
      <point x="197" y="467"/>
      <point x="213" y="483"/>
      <point x="275" y="490" type="curve"/>
      <point x="275" y="500" type="line"/>
      <point x="0" y="500" type="line"/>
      <point x="0" y="490" type="line"/>
      <point x="63" y="483"/>
      <point x="101" y="468"/>
      <point x="119" y="419" type="curve" smooth="yes"/>
      <point x="277" y="-15" type="line"/>
      <point x="417" y="417" type="line" smooth="yes"/>
      <point x="431" y="461"/>
      <point x="470" y="484"/>
      <point x="534" y="490" type="curve"/>
    </contour>
  </outline>
</glyph>
<glyph name="w" format="2">
  <advance width="821"/>
  <unicode hex="0077"/>
  <anchor x="411" y="0" name="bottom"/>
  <anchor x="411" y="500" name="top"/>
  <outline>
    <contour>
      <point x="277" y="-15" type="line"/>
      <point x="412" y="403" type="line"/>
      <point x="564" y="-15" type="line"/>
      <point x="704" y="417" type="line" smooth="yes"/>
      <point x="719" y="463"/>
      <point x="757" y="484"/>
      <point x="821" y="490" type="curve"/>
      <point x="821" y="500" type="line"/>
      <point x="613" y="500" type="line"/>
      <point x="613" y="490" type="line"/>
      <point x="676" y="482"/>
      <point x="690" y="462"/>
      <point x="677" y="421" type="curve" smooth="yes"/>
      <point x="596" y="162" type="line"/>
      <point x="502" y="420" type="line" smooth="yes"/>
      <point x="485" y="467"/>
      <point x="500" y="483"/>
      <point x="563" y="490" type="curve"/>
      <point x="563" y="500" type="line"/>
      <point x="326" y="500" type="line"/>
      <point x="326" y="490" type="line"/>
      <point x="389" y="482"/>
      <point x="403" y="462"/>
      <point x="390" y="421" type="curve" smooth="yes"/>
      <point x="308" y="161" type="line"/>
      <point x="215" y="420" type="line" smooth="yes"/>
      <point x="198" y="467"/>
      <point x="213" y="483"/>
      <point x="276" y="490" type="curve"/>
      <point x="276" y="500" type="line"/>
      <point x="0" y="500" type="line"/>
      <point x="0" y="490" type="line"/>
      <point x="63" y="483"/>
      <point x="101" y="470"/>
      <point x="119" y="419" type="curve" smooth="yes"/>
    </contour>
  </outline>
</glyph>
<glyph name="x" format="2">
  <advance width="555"/>
  <unicode hex="0078"/>
  <anchor x="278" y="0" name="bottom"/>
  <anchor x="278" y="500" name="top"/>
  <outline>
    <contour>
      <point x="9" y="0" type="line"/>
      <point x="220" y="0" type="line"/>
      <point x="220" y="10" type="line"/>
      <point x="157" y="17"/>
      <point x="148" y="33"/>
      <point x="174" y="80" type="curve" smooth="yes"/>
      <point x="249" y="215" type="line"/>
      <point x="322" y="76" type="line" smooth="yes"/>
      <point x="344" y="33"/>
      <point x="340" y="18"/>
      <point x="287" y="10" type="curve"/>
      <point x="287" y="0" type="line"/>
      <point x="542" y="0" type="line"/>
      <point x="542" y="10" type="line"/>
      <point x="487" y="16"/>
      <point x="449" y="28"/>
      <point x="422" y="79" type="curve" smooth="yes"/>
      <point x="311" y="290" type="line"/>
      <point x="387" y="422" type="line" smooth="yes"/>
      <point x="414" y="469"/>
      <point x="459" y="483"/>
      <point x="521" y="490" type="curve"/>
      <point x="521" y="500" type="line"/>
      <point x="310" y="500" type="line"/>
      <point x="310" y="490" type="line"/>
      <point x="373" y="483"/>
      <point x="382" y="467"/>
      <point x="356" y="420" type="curve" smooth="yes"/>
      <point x="297" y="315" type="line"/>
      <point x="241" y="421" type="line" smooth="yes"/>
      <point x="218" y="464"/>
      <point x="221" y="483"/>
      <point x="268" y="490" type="curve"/>
      <point x="268" y="500" type="line"/>
      <point x="17" y="500" type="line"/>
      <point x="17" y="490" type="line"/>
      <point x="72" y="483"/>
      <point x="115" y="467"/>
      <point x="140" y="419" type="curve" smooth="yes"/>
      <point x="235" y="241" type="line"/>
      <point x="143" y="77" type="line" smooth="yes"/>
      <point x="116" y="30"/>
      <point x="71" y="17"/>
      <point x="9" y="10" type="curve"/>
    </contour>
  </outline>
</glyph>
<glyph name="y" format="2">
  <advance width="544"/>
  <unicode hex="0079"/>
  <anchor x="272" y="0" name="bottom"/>
  <anchor x="292" y="500" name="top"/>
  <outline>
    <contour>
      <point x="91" y="-200" type="line"/>
      <point x="301" y="-200" type="line"/>
      <point x="301" y="-190" type="line"/>
      <point x="238" y="-184"/>
      <point x="221" y="-163"/>
      <point x="237" y="-119" type="curve" smooth="yes"/>
      <point x="429" y="423" type="line" smooth="yes"/>
      <point x="444" y="465"/>
      <point x="483" y="484"/>
      <point x="544" y="490" type="curve"/>
      <point x="544" y="500" type="line"/>
      <point x="335" y="500" type="line"/>
      <point x="335" y="490" type="line"/>
      <point x="396" y="482"/>
      <point x="414" y="463"/>
      <point x="401" y="426" type="curve" smooth="yes"/>
      <point x="309" y="160" type="line"/>
      <point x="214" y="421" type="line" smooth="yes"/>
      <point x="197" y="467"/>
      <point x="213" y="483"/>
      <point x="275" y="490" type="curve"/>
      <point x="275" y="500" type="line"/>
      <point x="0" y="500" type="line"/>
      <point x="0" y="490" type="line"/>
      <point x="63" y="483"/>
      <point x="101" y="469"/>
      <point x="119" y="419" type="curve" smooth="yes"/>
      <point x="261" y="29" type="line"/>
      <point x="208" y="-119" type="line" smooth="yes"/>
      <point x="192" y="-164"/>
      <point x="154" y="-182"/>
      <point x="91" y="-190" type="curve"/>
    </contour>
  </outline>
</glyph>
<glyph name="z" format="2">
  <advance width="486"/>
  <unicode hex="007A"/>
  <anchor x="243" y="0" name="bottom"/>
  <anchor x="243" y="250" name="center"/>
  <anchor x="243" y="500" name="top"/>
  <outline>
    <contour>
      <point x="37" y="0" type="line"/>
      <point x="435" y="0" type="line"/>
      <point x="451" y="136" type="line"/>
      <point x="441" y="136" type="line"/>
      <point x="428" y="71"/>
      <point x="392" y="25"/>
      <point x="344" y="25" type="curve" smooth="yes"/>
      <point x="159" y="25" type="line"/>
      <point x="451" y="500" type="line"/>
      <point x="50" y="500" type="line"/>
      <point x="34" y="364" type="line"/>
      <point x="44" y="364" type="line"/>
      <point x="57" y="429"/>
      <point x="93" y="475"/>
      <point x="141" y="475" type="curve" smooth="yes"/>
      <point x="330" y="475" type="line"/>
    </contour>
  </outline>
</glyph>
<glyph name="braceleft" format="2">
  <advance width="329"/>
  <unicode hex="007B"/>
  <outline>
    <contour>
      <point x="28" y="252" type="line"/>
      <point x="122" y="252"/>
      <point x="162" y="213"/>
      <point x="162" y="160" type="curve" smooth="yes"/>
      <point x="162" y="100"/>
      <point x="80" y="32"/>
      <point x="80" y="-60" type="curve" smooth="yes"/>
      <point x="80" y="-176"/>
      <point x="188" y="-221"/>
      <point x="288" y="-221" type="curve" smooth="yes"/>
      <point x="329" y="-221" type="line"/>
      <point x="329" y="-196" type="line"/>
      <point x="290" y="-196" type="line" smooth="yes"/>
      <point x="202" y="-196"/>
      <point x="142" y="-169"/>
      <point x="142" y="-63" type="curve" smooth="yes"/>
      <point x="142" y="42"/>
      <point x="202" y="75"/>
      <point x="202" y="156" type="curve" smooth="yes"/>
      <point x="202" y="214"/>
      <point x="149" y="255"/>
      <point x="83" y="266" type="curve"/>
      <point x="149" y="277"/>
      <point x="202" y="318"/>
      <point x="202" y="376" type="curve" smooth="yes"/>
      <point x="202" y="457"/>
      <point x="142" y="491"/>
      <point x="142" y="596" type="curve" smooth="yes"/>
      <point x="142" y="702"/>
      <point x="202" y="728"/>
      <point x="290" y="728" type="curve" smooth="yes"/>
      <point x="329" y="728" type="line"/>
      <point x="329" y="753" type="line"/>
      <point x="288" y="753" type="line" smooth="yes"/>
      <point x="188" y="753"/>
      <point x="80" y="708"/>
      <point x="80" y="592" type="curve" smooth="yes"/>
      <point x="80" y="500"/>
      <point x="162" y="432"/>
      <point x="162" y="372" type="curve" smooth="yes"/>
      <point x="162" y="319"/>
      <point x="122" y="280"/>
      <point x="28" y="280" type="curve"/>
    </contour>
  </outline>
</glyph>
<glyph name="braceright" format="2">
  <advance width="329"/>
  <unicode hex="007D"/>
  <outline>
    <contour>
      <point x="301" y="252" type="curve"/>
      <point x="301" y="280" type="line"/>
      <point x="207" y="280"/>
      <point x="167" y="319"/>
      <point x="167" y="372" type="curve" smooth="yes"/>
      <point x="167" y="432"/>
      <point x="249" y="500"/>
      <point x="249" y="592" type="curve" smooth="yes"/>
      <point x="249" y="708"/>
      <point x="141" y="753"/>
      <point x="41" y="753" type="curve" smooth="yes"/>
      <point x="0" y="753" type="line"/>
      <point x="0" y="728" type="line"/>
      <point x="39" y="728" type="line" smooth="yes"/>
      <point x="127" y="728"/>
      <point x="187" y="702"/>
      <point x="187" y="596" type="curve" smooth="yes"/>
      <point x="187" y="491"/>
      <point x="127" y="457"/>
      <point x="127" y="376" type="curve" smooth="yes"/>
      <point x="127" y="318"/>
      <point x="180" y="277"/>
      <point x="246" y="266" type="curve"/>
      <point x="180" y="255"/>
      <point x="127" y="214"/>
      <point x="127" y="156" type="curve" smooth="yes"/>
      <point x="127" y="75"/>
      <point x="187" y="42"/>
      <point x="187" y="-63" type="curve" smooth="yes"/>
      <point x="187" y="-169"/>
      <point x="127" y="-196"/>
      <point x="39" y="-196" type="curve" smooth="yes"/>
      <point x="0" y="-196" type="line"/>
      <point x="0" y="-221" type="line"/>
      <point x="41" y="-221" type="line" smooth="yes"/>
      <point x="141" y="-221"/>
      <point x="249" y="-176"/>
      <point x="249" y="-60" type="curve" smooth="yes"/>
      <point x="249" y="32"/>
      <point x="167" y="100"/>
      <point x="167" y="160" type="curve" smooth="yes"/>
      <point x="167" y="213"/>
      <point x="207" y="252"/>
    </contour>
  </outline>
</glyph>
<glyph name="asciitilde" format="2">
  <advance width="600"/>
  <unicode hex="007E"/>
  <outline>
    <contour>
      <point x="179" y="296" type="curve" smooth="yes"/>
      <point x="269" y="296"/>
      <point x="335" y="190"/>
      <point x="424" y="190" type="curve" smooth="yes"/>
      <point x="488" y="190"/>
      <point x="523" y="244"/>
      <point x="523" y="326" type="curve"/>
      <point x="498" y="326" type="line"/>
      <point x="498" y="259"/>
      <point x="473" y="220"/>
      <point x="430" y="220" type="curve" smooth="yes"/>
      <point x="343" y="220"/>
      <point x="282" y="326"/>
      <point x="186" y="326" type="curve" smooth="yes"/>
      <point x="117" y="326"/>
      <point x="80" y="272"/>
      <point x="80" y="190" type="curve"/>
      <point x="105" y="190" type="line"/>
      <point x="105" y="253"/>
      <point x="135" y="296"/>
    </contour>
  </outline>
</glyph>
<glyph name="sterling" format="2">
  <advance width="626"/>
  <unicode hex="00A3"/>
  <guideline x="84" y="687" angle="90"/>
  <outline>
    <contour>
      <point x="56" y="0" type="line"/>
      <point x="254" y="98"/>
      <point x="326" y="156"/>
      <point x="326" y="255" type="curve" smooth="yes"/>
      <point x="326" y="401"/>
      <point x="169" y="421"/>
      <point x="169" y="562" type="curve" smooth="yes"/>
      <point x="169" y="650"/>
      <point x="231" y="690"/>
      <point x="294" y="690" type="curve" smooth="yes"/>
      <point x="370" y="690"/>
      <point x="442" y="619"/>
      <point x="488" y="470" type="curve"/>
      <point x="498" y="470" type="line"/>
      <point x="477" y="637" type="line"/>
      <point x="446" y="679"/>
      <point x="383" y="715"/>
      <point x="283" y="715" type="curve" smooth="yes"/>
      <point x="174" y="715"/>
      <point x="84" y="625"/>
      <point x="84" y="536" type="curve" smooth="yes"/>
      <point x="84" y="377"/>
      <point x="263" y="337"/>
      <point x="261" y="223" type="curve" smooth="yes"/>
      <point x="260" y="155"/>
      <point x="183" y="84"/>
      <point x="56" y="25" type="curve"/>
    </contour>
    <contour>
      <point x="59" y="0" type="line"/>
      <point x="551" y="0" type="line"/>
      <point x="551" y="122" type="line"/>
      <point x="541" y="122" type="line"/>
      <point x="541" y="82"/>
      <point x="522" y="70"/>
      <point x="475" y="70" type="curve"/>
      <point x="139" y="70" type="line"/>
    </contour>
    <contour>
      <point x="56" y="260" type="line"/>
      <point x="519" y="260" type="line"/>
      <point x="519" y="280" type="line"/>
      <point x="56" y="279" type="line"/>
    </contour>
    <contour>
      <point x="56" y="394" type="line"/>
      <point x="519" y="394" type="line"/>
      <point x="519" y="414" type="line"/>
      <point x="56" y="414" type="line"/>
    </contour>
  </outline>
</glyph>
<glyph name="currency" format="2">
  <advance width="493"/>
  <unicode hex="00A4"/>
  <outline>
    <contour>
      <point x="247" y="230" type="curve" smooth="yes"/>
      <point x="338" y="230"/>
      <point x="412" y="304"/>
      <point x="412" y="395" type="curve" smooth="yes"/>
      <point x="412" y="485"/>
      <point x="338" y="559"/>
      <point x="247" y="559" type="curve" smooth="yes"/>
      <point x="157" y="559"/>
      <point x="83" y="485"/>
      <point x="83" y="395" type="curve" smooth="yes"/>
      <point x="83" y="304"/>
      <point x="157" y="230"/>
    </contour>
    <contour>
      <point x="247" y="260" type="curve" smooth="yes"/>
      <point x="173" y="260"/>
      <point x="112" y="321"/>
      <point x="112" y="395" type="curve" smooth="yes"/>
      <point x="112" y="469"/>
      <point x="173" y="530"/>
      <point x="247" y="530" type="curve" smooth="yes"/>
      <point x="321" y="530"/>
      <point x="382" y="469"/>
      <point x="382" y="395" type="curve" smooth="yes"/>
      <point x="382" y="321"/>
      <point x="321" y="260"/>
    </contour>
    <contour>
      <point x="88" y="558" type="line"/>
      <point x="67" y="539" type="line"/>
      <point x="124" y="483" type="line"/>
      <point x="144" y="501" type="line"/>
    </contour>
    <contour>
      <point x="405" y="558" type="line"/>
      <point x="349" y="501" type="line"/>
      <point x="369" y="482" type="line"/>
      <point x="426" y="538" type="line"/>
    </contour>
    <contour>
      <point x="88" y="231" type="line"/>
      <point x="144" y="288" type="line"/>
      <point x="124" y="307" type="line"/>
      <point x="67" y="251" type="line"/>
    </contour>
    <contour>
      <point x="405" y="231" type="line"/>
      <point x="426" y="252" type="line"/>
      <point x="369" y="308" type="line"/>
      <point x="349" y="288" type="line"/>
    </contour>
  </outline>
</glyph>
<glyph name="brokenbar" format="2">
  <advance width="358"/>
  <unicode hex="00A6"/>
  <outline>
    <contour>
      <point x="193" y="226" type="line"/>
      <point x="165" y="226" type="line"/>
      <point x="165" y="-120" type="line"/>
      <point x="193" y="-120" type="line"/>
    </contour>
    <contour>
      <point x="165" y="366" type="line"/>
      <point x="193" y="366" type="line"/>
      <point x="193" y="715" type="line"/>
      <point x="165" y="715" type="line"/>
    </contour>
  </outline>
</glyph>
<glyph name="section" format="2">
  <advance width="474"/>
  <unicode hex="00A7"/>
  <outline>
    <contour>
      <point x="76" y="569" type="curve" smooth="yes"/>
      <point x="76" y="487"/>
      <point x="138" y="440"/>
      <point x="203" y="397" type="curve"/>
      <point x="125" y="373"/>
      <point x="56" y="317"/>
      <point x="56" y="238" type="curve" smooth="yes"/>
      <point x="56" y="78"/>
      <point x="356" y="45"/>
      <point x="356" y="-100" type="curve" smooth="yes"/>
      <point x="356" y="-142"/>
      <point x="327" y="-192"/>
      <point x="261" y="-192" type="curve" smooth="yes"/>
      <point x="166" y="-192"/>
      <point x="132" y="-108"/>
      <point x="77" y="52" type="curve"/>
      <point x="67" y="52" type="line"/>
      <point x="79" y="-137" type="line"/>
      <point x="111" y="-189"/>
      <point x="177" y="-215"/>
      <point x="256" y="-215" type="curve" smooth="yes"/>
      <point x="357" y="-215"/>
      <point x="428" y="-149"/>
      <point x="428" y="-55" type="curve" smooth="yes"/>
      <point x="428" y="8"/>
      <point x="386" y="59"/>
      <point x="285" y="120" type="curve"/>
      <point x="369" y="153"/>
      <point x="428" y="214"/>
      <point x="428" y="286" type="curve" smooth="yes"/>
      <point x="428" y="448"/>
      <point x="149" y="470"/>
      <point x="149" y="609" type="curve" smooth="yes"/>
      <point x="149" y="667"/>
      <point x="192" y="692"/>
      <point x="231" y="692" type="curve" smooth="yes"/>
      <point x="295" y="692"/>
      <point x="333" y="641"/>
      <point x="385" y="522" type="curve"/>
      <point x="395" y="522" type="line"/>
      <point x="378" y="669" type="line"/>
      <point x="350" y="698"/>
      <point x="306" y="715"/>
      <point x="247" y="715" type="curve" smooth="yes"/>
      <point x="162" y="715"/>
      <point x="76" y="656"/>
    </contour>
    <contour>
      <point x="129" y="278" type="curve" smooth="yes"/>
      <point x="129" y="323"/>
      <point x="161" y="353"/>
      <point x="229" y="380" type="curve"/>
      <point x="316" y="324"/>
      <point x="356" y="289"/>
      <point x="356" y="241" type="curve" smooth="yes"/>
      <point x="356" y="200"/>
      <point x="311" y="158"/>
      <point x="258" y="136" type="curve"/>
      <point x="152" y="199"/>
      <point x="129" y="233"/>
    </contour>
  </outline>
</glyph>
<glyph name="copyright" format="2">
  <advance width="789"/>
  <unicode hex="00A9"/>
  <outline>
    <contour>
      <point x="395" y="-13" type="curve" smooth="yes"/>
      <point x="596" y="-13"/>
      <point x="759" y="150"/>
      <point x="759" y="352" type="curve" smooth="yes"/>
      <point x="759" y="553"/>
      <point x="596" y="716"/>
      <point x="395" y="716" type="curve" smooth="yes"/>
      <point x="193" y="716"/>
      <point x="30" y="553"/>
      <point x="30" y="352" type="curve" smooth="yes"/>
      <point x="30" y="150"/>
      <point x="193" y="-13"/>
    </contour>
    <contour>
      <point x="395" y="15" type="curve" smooth="yes"/>
      <point x="209" y="15"/>
      <point x="60" y="166"/>
      <point x="60" y="352" type="curve" smooth="yes"/>
      <point x="60" y="537"/>
      <point x="209" y="688"/>
      <point x="395" y="688" type="curve" smooth="yes"/>
      <point x="580" y="688"/>
      <point x="729" y="537"/>
      <point x="729" y="352" type="curve" smooth="yes"/>
      <point x="729" y="166"/>
      <point x="580" y="15"/>
    </contour>
    <contour>
      <point x="403" y="111" type="curve" smooth="yes"/>
      <point x="509" y="111"/>
      <point x="548" y="177"/>
      <point x="561" y="256" type="curve"/>
      <point x="540" y="260" type="line"/>
      <point x="530" y="194"/>
      <point x="498" y="132"/>
      <point x="408" y="132" type="curve" smooth="yes"/>
      <point x="329" y="132"/>
      <point x="291" y="231"/>
      <point x="291" y="348" type="curve" smooth="yes"/>
      <point x="291" y="473"/>
      <point x="327" y="572"/>
      <point x="404" y="572" type="curve" smooth="yes"/>
      <point x="460" y="572"/>
      <point x="507" y="525"/>
      <point x="549" y="412" type="curve"/>
      <point x="558" y="412" type="line"/>
      <point x="543" y="546" type="line"/>
      <point x="528" y="566"/>
      <point x="469" y="593"/>
      <point x="409" y="593" type="curve" smooth="yes"/>
      <point x="273" y="593"/>
      <point x="205" y="470"/>
      <point x="205" y="348" type="curve" smooth="yes"/>
      <point x="205" y="229"/>
      <point x="270" y="111"/>
    </contour>
  </outline>
</glyph>
<glyph name="guillemetleft" format="2">
  <advance width="426"/>
  <unicode hex="00AB"/>
  <outline>
    <contour>
      <point x="221" y="422" type="line"/>
      <point x="30" y="261" type="line"/>
      <point x="221" y="100" type="line"/>
      <point x="236" y="111" type="line"/>
      <point x="100" y="261" type="line"/>
      <point x="236" y="411" type="line"/>
    </contour>
    <contour>
      <point x="357" y="390" type="line"/>
      <point x="198" y="261" type="line"/>
      <point x="357" y="132" type="line"/>
      <point x="372" y="143" type="line"/>
      <point x="268" y="261" type="line"/>
      <point x="372" y="379" type="line"/>
    </contour>
  </outline>
</glyph>
<glyph name="logicalnot" format="2">
  <advance width="633"/>
  <unicode hex="00AC"/>
  <outline>
    <contour>
      <point x="80" y="271" type="line"/>
      <point x="80" y="241" type="line"/>
      <point x="528" y="241" type="line"/>
      <point x="528" y="0" type="line"/>
      <point x="553" y="0" type="line"/>
      <point x="553" y="271" type="line"/>
    </contour>
  </outline>
</glyph>
<glyph name="registered" format="2">
  <advance width="829"/>
  <unicode hex="00AE"/>
  <outline>
    <contour>
      <point x="415" y="-13" type="curve" smooth="yes"/>
      <point x="616" y="-13"/>
      <point x="779" y="150"/>
      <point x="779" y="352" type="curve" smooth="yes"/>
      <point x="779" y="553"/>
      <point x="616" y="716"/>
      <point x="415" y="716" type="curve" smooth="yes"/>
      <point x="213" y="716"/>
      <point x="50" y="553"/>
      <point x="50" y="352" type="curve" smooth="yes"/>
      <point x="50" y="150"/>
      <point x="213" y="-13"/>
    </contour>
    <contour>
      <point x="415" y="15" type="curve" smooth="yes"/>
      <point x="229" y="15"/>
      <point x="80" y="166"/>
      <point x="80" y="352" type="curve" smooth="yes"/>
      <point x="80" y="537"/>
      <point x="229" y="688"/>
      <point x="415" y="688" type="curve" smooth="yes"/>
      <point x="600" y="688"/>
      <point x="749" y="537"/>
      <point x="749" y="352" type="curve" smooth="yes"/>
      <point x="749" y="166"/>
      <point x="600" y="15"/>
    </contour>
    <contour>
      <point x="551" y="179" type="curve" smooth="yes"/>
      <point x="517" y="275"/>
      <point x="578" y="434"/>
      <point x="466" y="443" type="curve"/>
      <point x="524" y="453"/>
      <point x="555" y="479"/>
      <point x="555" y="511" type="curve" smooth="yes"/>
      <point x="555" y="557"/>
      <point x="518" y="586"/>
      <point x="446" y="586" type="curve" smooth="yes"/>
      <point x="242" y="586" type="line"/>
      <point x="242" y="579" type="line"/>
      <point x="285" y="575"/>
      <point x="308" y="562"/>
      <point x="308" y="530" type="curve" smooth="yes"/>
      <point x="308" y="175" type="line" smooth="yes"/>
      <point x="308" y="143"/>
      <point x="285" y="131"/>
      <point x="242" y="126" type="curve"/>
      <point x="242" y="119" type="line"/>
      <point x="438" y="119" type="line"/>
      <point x="438" y="126" type="line"/>
      <point x="395" y="131"/>
      <point x="372" y="143"/>
      <point x="372" y="175" type="curve" smooth="yes"/>
      <point x="372" y="430" type="line"/>
      <point x="399" y="430" type="line" smooth="yes"/>
      <point x="518" y="430"/>
      <point x="452" y="262"/>
      <point x="489" y="162" type="curve" smooth="yes"/>
      <point x="505" y="119"/>
      <point x="548" y="117"/>
      <point x="596" y="117" type="curve" smooth="yes"/>
      <point x="612" y="117" type="line"/>
      <point x="612" y="124" type="line"/>
      <point x="588" y="124"/>
      <point x="568" y="131"/>
    </contour>
    <contour>
      <point x="423" y="453" type="curve" smooth="yes"/>
      <point x="372" y="453" type="line"/>
      <point x="372" y="563" type="line"/>
      <point x="423" y="563" type="line" smooth="yes"/>
      <point x="464" y="563"/>
      <point x="485" y="541"/>
      <point x="485" y="511" type="curve" smooth="yes"/>
      <point x="485" y="482"/>
      <point x="464" y="453"/>
    </contour>
  </outline>
</glyph>
<glyph name="degree" format="2">
  <advance width="260"/>
  <unicode hex="00B0"/>
  <outline>
    <contour>
      <point x="127" y="542" type="curve" smooth="yes"/>
      <point x="183" y="542"/>
      <point x="229" y="588"/>
      <point x="229" y="644" type="curve" smooth="yes"/>
      <point x="229" y="700"/>
      <point x="183" y="746"/>
      <point x="127" y="746" type="curve" smooth="yes"/>
      <point x="71" y="746"/>
      <point x="25" y="700"/>
      <point x="25" y="644" type="curve" smooth="yes"/>
      <point x="25" y="588"/>
      <point x="71" y="542"/>
    </contour>
    <contour>
      <point x="127" y="567" type="curve" smooth="yes"/>
      <point x="84" y="567"/>
      <point x="52" y="601"/>
      <point x="52" y="644" type="curve" smooth="yes"/>
      <point x="52" y="687"/>
      <point x="84" y="721"/>
      <point x="127" y="721" type="curve" smooth="yes"/>
      <point x="170" y="721"/>
      <point x="202" y="687"/>
      <point x="202" y="644" type="curve" smooth="yes"/>
      <point x="202" y="601"/>
      <point x="170" y="567"/>
    </contour>
  </outline>
</glyph>
<glyph name="plusminus" format="2">
  <advance width="600"/>
  <unicode hex="00B1"/>
  <outline>
    <contour>
      <point x="90" y="296" type="line"/>
      <point x="90" y="266" type="line"/>
      <point x="563" y="266" type="line"/>
      <point x="563" y="296" type="line"/>
    </contour>
    <contour>
      <point x="314" y="70" type="line"/>
      <point x="339" y="70" type="line"/>
      <point x="339" y="492" type="line"/>
      <point x="314" y="492" type="line"/>
    </contour>
    <contour>
      <point x="90" y="30" type="line"/>
      <point x="90" y="0" type="line"/>
      <point x="563" y="0" type="line"/>
      <point x="563" y="30" type="line"/>
    </contour>
  </outline>
</glyph>
<glyph name="paragraph" format="2">
  <advance width="630"/>
  <unicode hex="00B6"/>
  <outline>
    <contour>
      <point x="459" y="700" type="line"/>
      <point x="459" y="-105" type="line"/>
      <point x="487" y="-105" type="line"/>
      <point x="487" y="700" type="line"/>
    </contour>
    <contour>
      <point x="329" y="700" type="line"/>
      <point x="329" y="-105" type="line"/>
      <point x="357" y="-105" type="line"/>
      <point x="357" y="700" type="line"/>
    </contour>
    <contour>
      <point x="276" y="672" type="line"/>
      <point x="461" y="672" type="line"/>
      <point x="461" y="700" type="line"/>
      <point x="276" y="700" type="line"/>
    </contour>
    <contour>
      <point x="339" y="369" type="curve"/>
      <point x="339" y="700" type="line"/>
      <point x="339" y="700"/>
      <point x="279" y="700"/>
      <point x="278" y="700" type="curve" smooth="yes"/>
      <point x="168" y="700"/>
      <point x="81" y="643"/>
      <point x="81" y="536" type="curve" smooth="yes"/>
      <point x="81" y="428"/>
      <point x="168" y="369"/>
      <point x="278" y="369" type="curve" smooth="yes"/>
      <point x="279" y="369"/>
      <point x="339" y="369"/>
    </contour>
    <contour>
      <point x="487" y="616" type="line"/>
      <point x="487" y="664"/>
      <point x="522" y="683"/>
      <point x="587" y="690" type="curve"/>
      <point x="587" y="700" type="line"/>
      <point x="487" y="700" type="line"/>
    </contour>
  </outline>
</glyph>
<glyph name="guillemetright" format="2">
  <advance width="428"/>
  <unicode hex="00BB"/>
  <outline>
    <contour>
      <point x="205" y="422" type="line"/>
      <point x="190" y="411" type="line"/>
      <point x="326" y="261" type="line"/>
      <point x="190" y="111" type="line"/>
      <point x="205" y="100" type="line"/>
      <point x="396" y="261" type="line"/>
    </contour>
    <contour>
      <point x="69" y="390" type="line"/>
      <point x="54" y="379" type="line"/>
      <point x="158" y="261" type="line"/>
      <point x="54" y="143" type="line"/>
      <point x="69" y="132" type="line"/>
      <point x="228" y="261" type="line"/>
    </contour>
  </outline>
</glyph>
<glyph name="onequarter" format="2">
  <advance width="642"/>
  <unicode hex="00BC"/>
  <outline>
    <contour>
      <point x="173" y="392" type="curve" smooth="yes"/>
      <point x="173" y="700" type="line"/>
      <point x="114" y="700" type="line"/>
      <point x="105" y="632"/>
      <point x="47" y="614"/>
      <point x="24" y="614" type="curve"/>
      <point x="24" y="598" type="line"/>
      <point x="44" y="598"/>
      <point x="73" y="603"/>
      <point x="94" y="616" type="curve"/>
      <point x="94" y="392" type="line" smooth="yes"/>
      <point x="94" y="365"/>
      <point x="72" y="360"/>
      <point x="51" y="358" type="curve"/>
      <point x="51" y="350" type="line"/>
      <point x="215" y="350" type="line"/>
      <point x="215" y="358" type="line"/>
      <point x="190" y="360"/>
      <point x="173" y="367"/>
    </contour>
    <contour>
      <point x="551" y="42" type="curve" smooth="yes"/>
      <point x="551" y="140" type="line"/>
      <point x="595" y="140" type="line"/>
      <point x="595" y="223" type="line"/>
      <point x="587" y="223" type="line"/>
      <point x="587" y="203"/>
      <point x="578" y="197"/>
      <point x="554" y="197" type="curve" smooth="yes"/>
      <point x="551" y="197" type="line"/>
      <point x="551" y="350" type="line"/>
      <point x="473" y="350" type="line"/>
      <point x="382" y="197" type="line"/>
      <point x="382" y="140" type="line"/>
      <point x="473" y="140" type="line"/>
      <point x="473" y="42" type="line" smooth="yes"/>
      <point x="473" y="17"/>
      <point x="456" y="10"/>
      <point x="433" y="8" type="curve"/>
      <point x="433" y="0" type="line"/>
      <point x="591" y="0" type="line"/>
      <point x="591" y="8" type="line"/>
      <point x="564" y="10"/>
      <point x="551" y="19"/>
    </contour>
    <contour>
      <point x="401" y="197" type="line"/>
      <point x="473" y="320" type="line"/>
      <point x="473" y="197" type="line"/>
    </contour>
    <component base="fraction" xOffset="115"/>
  </outline>
</glyph>
<glyph name="onehalf" format="2">
  <advance width="656"/>
  <unicode hex="00BD"/>
  <outline>
    <contour>
      <point x="166" y="392" type="curve" smooth="yes"/>
      <point x="166" y="700" type="line"/>
      <point x="113" y="700" type="line"/>
      <point x="105" y="633"/>
      <point x="45" y="614"/>
      <point x="24" y="614" type="curve"/>
      <point x="24" y="599" type="line"/>
      <point x="42" y="599"/>
      <point x="73" y="604"/>
      <point x="93" y="617" type="curve"/>
      <point x="93" y="392" type="line" smooth="yes"/>
      <point x="93" y="368"/>
      <point x="76" y="360"/>
      <point x="49" y="357" type="curve"/>
      <point x="49" y="350" type="line"/>
      <point x="210" y="350" type="line"/>
      <point x="210" y="357" type="line"/>
      <point x="183" y="360"/>
      <point x="166" y="367"/>
    </contour>
    <contour>
      <point x="547" y="-16" type="curve" smooth="yes"/>
      <point x="589" y="-16"/>
      <point x="602" y="12"/>
      <point x="602" y="91" type="curve"/>
      <point x="587" y="91" type="line"/>
      <point x="587" y="56"/>
      <point x="581" y="43"/>
      <point x="560" y="43" type="curve" smooth="yes"/>
      <point x="526" y="43"/>
      <point x="486" y="90"/>
      <point x="452" y="87" type="curve"/>
      <point x="509" y="148"/>
      <point x="603" y="150"/>
      <point x="603" y="257" type="curve" smooth="yes"/>
      <point x="603" y="315"/>
      <point x="554" y="349"/>
      <point x="494" y="349" type="curve" smooth="yes"/>
      <point x="467" y="349"/>
      <point x="435" y="342"/>
      <point x="407" y="327" type="curve"/>
      <point x="397" y="244" type="line"/>
      <point x="408" y="244" type="line"/>
      <point x="425" y="305"/>
      <point x="462" y="335"/>
      <point x="490" y="335" type="curve" smooth="yes"/>
      <point x="517" y="335"/>
      <point x="536" y="308"/>
      <point x="536" y="252" type="curve" smooth="yes"/>
      <point x="536" y="160"/>
      <point x="472" y="149"/>
      <point x="421" y="68" type="curve" smooth="yes"/>
      <point x="406" y="45"/>
      <point x="391" y="11"/>
      <point x="388" y="-8" type="curve"/>
      <point x="402" y="-8" type="line"/>
      <point x="406" y="7"/>
      <point x="408" y="14"/>
      <point x="413" y="22" type="curve" smooth="yes"/>
      <point x="418" y="30"/>
      <point x="423" y="32"/>
      <point x="429" y="32" type="curve" smooth="yes"/>
      <point x="466" y="32"/>
      <point x="497" y="-16"/>
    </contour>
    <component base="fraction" xOffset="116"/>
  </outline>
</glyph>
<glyph name="threequarters" format="2">
  <advance width="639"/>
  <unicode hex="00BE"/>
  <outline>
    <contour>
      <point x="140" y="351" type="curve" smooth="yes"/>
      <point x="209" y="351"/>
      <point x="263" y="388"/>
      <point x="263" y="459" type="curve" smooth="yes"/>
      <point x="263" y="509"/>
      <point x="230" y="544"/>
      <point x="184" y="558" type="curve"/>
      <point x="228" y="571"/>
      <point x="260" y="600"/>
      <point x="260" y="639" type="curve" smooth="yes"/>
      <point x="260" y="683"/>
      <point x="215" y="716"/>
      <point x="152" y="716" type="curve" smooth="yes"/>
      <point x="125" y="716"/>
      <point x="94" y="708"/>
      <point x="73" y="692" type="curve"/>
      <point x="61" y="609" type="line"/>
      <point x="72" y="609" type="line"/>
      <point x="87" y="666"/>
      <point x="114" y="701"/>
      <point x="144" y="701" type="curve" smooth="yes"/>
      <point x="176" y="701"/>
      <point x="191" y="670"/>
      <point x="191" y="634" type="curve" smooth="yes"/>
      <point x="191" y="597"/>
      <point x="172" y="566"/>
      <point x="134" y="566" type="curve" smooth="yes"/>
      <point x="107" y="566" type="line"/>
      <point x="102" y="551" type="line"/>
      <point x="132" y="551" type="line" smooth="yes"/>
      <point x="178" y="551"/>
      <point x="193" y="503"/>
      <point x="193" y="461" type="curve" smooth="yes"/>
      <point x="193" y="398"/>
      <point x="165" y="365"/>
      <point x="131" y="365" type="curve" smooth="yes"/>
      <point x="101" y="365"/>
      <point x="70" y="392"/>
      <point x="50" y="445" type="curve"/>
      <point x="39" y="445" type="line"/>
      <point x="52" y="371" type="line"/>
      <point x="81" y="358"/>
      <point x="110" y="351"/>
    </contour>
    <contour>
      <point x="549" y="42" type="curve" smooth="yes"/>
      <point x="549" y="140" type="line"/>
      <point x="592" y="140" type="line"/>
      <point x="592" y="220" type="line"/>
      <point x="585" y="220" type="line"/>
      <point x="585" y="200"/>
      <point x="575" y="194"/>
      <point x="552" y="194" type="curve" smooth="yes"/>
      <point x="549" y="194" type="line"/>
      <point x="549" y="350" type="line"/>
      <point x="477" y="350" type="line"/>
      <point x="385" y="194" type="line"/>
      <point x="385" y="140" type="line"/>
      <point x="477" y="140" type="line"/>
      <point x="477" y="42" type="line" smooth="yes"/>
      <point x="477" y="18"/>
      <point x="461" y="10"/>
      <point x="435" y="7" type="curve"/>
      <point x="435" y="0" type="line"/>
      <point x="591" y="0" type="line"/>
      <point x="591" y="7" type="line"/>
      <point x="566" y="10"/>
      <point x="549" y="16"/>
    </contour>
    <contour>
      <point x="404" y="194" type="line"/>
      <point x="477" y="321" type="line"/>
      <point x="477" y="194" type="line"/>
    </contour>
    <component base="fraction" xOffset="101"/>
  </outline>
</glyph>
<glyph name="AE" format="2">
  <advance width="900"/>
  <unicode hex="00C6"/>
  <anchor x="450" y="0" name="bottom"/>
  <anchor x="450" y="700" name="top"/>
  <outline>
    <contour>
      <point x="358" y="0" type="line"/>
      <point x="820" y="0" type="line"/>
      <point x="820" y="225" type="line"/>
      <point x="810" y="225" type="line"/>
      <point x="803" y="126"/>
      <point x="760" y="25"/>
      <point x="667" y="25" type="curve" smooth="yes"/>
      <point x="558" y="25" type="line"/>
      <point x="558" y="675" type="line"/>
      <point x="667" y="675" type="line" smooth="yes"/>
      <point x="760" y="675"/>
      <point x="803" y="574"/>
      <point x="810" y="475" type="curve"/>
      <point x="820" y="475" type="line"/>
      <point x="820" y="700" type="line"/>
      <point x="358" y="700" type="line"/>
      <point x="358" y="690" type="line"/>
      <point x="423" y="683"/>
      <point x="458" y="664"/>
      <point x="458" y="616" type="curve" smooth="yes"/>
      <point x="458" y="84" type="line" smooth="yes"/>
      <point x="458" y="36"/>
      <point x="423" y="17"/>
      <point x="358" y="10" type="curve"/>
    </contour>
    <contour>
      <point x="18" y="0" type="line"/>
      <point x="248" y="0" type="line"/>
      <point x="248" y="10" type="line"/>
      <point x="186" y="17"/>
      <point x="166" y="35"/>
      <point x="187" y="77" type="curve" smooth="yes"/>
      <point x="466" y="632" type="line"/>
      <point x="459" y="681" type="line"/>
      <point x="157" y="80" type="line" smooth="yes"/>
      <point x="136" y="37"/>
      <point x="81" y="17"/>
      <point x="18" y="10" type="curve"/>
    </contour>
    <contour>
      <point x="747" y="187" type="curve"/>
      <point x="757" y="190" type="line"/>
      <point x="652" y="500" type="line"/>
      <point x="642" y="497" type="line"/>
      <point x="664" y="416"/>
      <point x="647" y="380"/>
      <point x="567" y="380" type="curve" smooth="yes"/>
      <point x="310" y="380" type="line"/>
      <point x="310" y="355" type="line"/>
      <point x="567" y="355" type="line" smooth="yes"/>
      <point x="638" y="355"/>
      <point x="718" y="261"/>
    </contour>
  </outline>
</glyph>
<glyph name="Eth" format="2">
  <advance width="677"/>
  <unicode hex="00D0"/>
  <outline>
    <contour>
      <point x="30" y="363" type="line"/>
      <point x="30" y="337" type="line"/>
      <point x="342" y="337" type="line"/>
      <point x="342" y="363" type="line"/>
    </contour>
    <component base="D"/>
  </outline>
</glyph>
<glyph name="multiply" format="2">
  <advance width="665"/>
  <unicode hex="00D7"/>
  <outline>
    <contour>
      <point x="128" y="489" type="line"/>
      <point x="106" y="468" type="line"/>
      <point x="559" y="15" type="line"/>
      <point x="581" y="36" type="line"/>
    </contour>
    <contour>
      <point x="90" y="32" type="line"/>
      <point x="109" y="15" type="line"/>
      <point x="567" y="473" type="line"/>
      <point x="548" y="490" type="line"/>
    </contour>
  </outline>
</glyph>
<glyph name="Oslash" format="2">
  <advance width="663"/>
  <unicode hex="00D8"/>
  <anchor x="332" y="0" name="bottom"/>
  <anchor x="332" y="700" name="top"/>
  <outline>
    <contour>
      <point x="551" y="766" type="line"/>
      <point x="135" y="-58" type="line"/>
      <point x="166" y="-58" type="line"/>
      <point x="580" y="764" type="line"/>
    </contour>
    <component base="O"/>
  </outline>
</glyph>
<glyph name="Thorn" format="2">
  <advance width="630"/>
  <unicode hex="00DE"/>
  <anchor x="315" y="0" name="bottom"/>
  <anchor x="315" y="700" name="top"/>
  <outline>
    <contour>
      <point x="220" y="84" type="curve" smooth="yes"/>
      <point x="220" y="616" type="line" smooth="yes"/>
      <point x="220" y="666"/>
      <point x="255" y="685"/>
      <point x="320" y="690" type="curve"/>
      <point x="320" y="700" type="line"/>
      <point x="25" y="700" type="line"/>
      <point x="25" y="690" type="line"/>
      <point x="93" y="684"/>
      <point x="127" y="665"/>
      <point x="125" y="616" type="curve" smooth="yes"/>
      <point x="125" y="84" type="line" smooth="yes"/>
      <point x="125" y="36"/>
      <point x="90" y="17"/>
      <point x="25" y="10" type="curve"/>
      <point x="25" y="0" type="line"/>
      <point x="320" y="0" type="line"/>
      <point x="320" y="10" type="line"/>
      <point x="255" y="17"/>
      <point x="220" y="36"/>
    </contour>
    <contour>
      <point x="148" y="139" type="line"/>
      <point x="301" y="139" type="line" smooth="yes"/>
      <point x="492" y="139"/>
      <point x="588" y="247"/>
      <point x="588" y="355" type="curve" smooth="yes"/>
      <point x="588" y="462"/>
      <point x="492.997" y="569"/>
      <point x="301" y="569" type="curve" smooth="yes"/>
      <point x="148" y="569" type="line"/>
      <point x="148" y="544" type="line"/>
      <point x="268" y="544" type="line" smooth="yes"/>
      <point x="415" y="544"/>
      <point x="488" y="449"/>
      <point x="488" y="354" type="curve" smooth="yes"/>
      <point x="488" y="259"/>
      <point x="415" y="164"/>
      <point x="268" y="164" type="curve" smooth="yes"/>
      <point x="148" y="164" type="line"/>
    </contour>
  </outline>
</glyph>
<glyph name="germandbls" format="2">
  <advance width="634"/>
  <unicode hex="00DF"/>
  <outline>
    <contour>
      <point x="12" y="0" type="line"/>
      <point x="198" y="0" type="line"/>
      <point x="198" y="500" type="line"/>
      <point x="186" y="513"/>
      <point x="181" y="536"/>
      <point x="181" y="579" type="curve" smooth="yes"/>
      <point x="181" y="652"/>
      <point x="215" y="690"/>
      <point x="272" y="690" type="curve" smooth="yes"/>
      <point x="347" y="690"/>
      <point x="399" y="643"/>
      <point x="399" y="574" type="curve" smooth="yes"/>
      <point x="399" y="460"/>
      <point x="267" y="467"/>
      <point x="267" y="369" type="curve" smooth="yes"/>
      <point x="267" y="305"/>
      <point x="313" y="259"/>
      <point x="410" y="221" type="curve" smooth="yes"/>
      <point x="497" y="186"/>
      <point x="527" y="149"/>
      <point x="527" y="101" type="curve" smooth="yes"/>
      <point x="527" y="38"/>
      <point x="494" y="9"/>
      <point x="442" y="9" type="curve" smooth="yes"/>
      <point x="352" y="9"/>
      <point x="313" y="93"/>
      <point x="258" y="253" type="curve"/>
      <point x="248" y="253" type="line"/>
      <point x="260" y="64" type="line"/>
      <point x="282" y="28"/>
      <point x="349" y="-14"/>
      <point x="437" y="-14" type="curve" smooth="yes"/>
      <point x="528" y="-14"/>
      <point x="599" y="50"/>
      <point x="599" y="146" type="curve" smooth="yes"/>
      <point x="599" y="209"/>
      <point x="558" y="254"/>
      <point x="452" y="295" type="curve" smooth="yes"/>
      <point x="369" y="329"/>
      <point x="339" y="361"/>
      <point x="340" y="409" type="curve" smooth="yes"/>
      <point x="341" y="493"/>
      <point x="469" y="471"/>
      <point x="469" y="574" type="curve" smooth="yes"/>
      <point x="469" y="659"/>
      <point x="381" y="715"/>
      <point x="277" y="715" type="curve" smooth="yes"/>
      <point x="176" y="715"/>
      <point x="112" y="656"/>
      <point x="112" y="547" type="curve" smooth="yes"/>
      <point x="112" y="500" type="line"/>
      <point x="16" y="500" type="line"/>
      <point x="16" y="477" type="line"/>
      <point x="112" y="477" type="line"/>
      <point x="112" y="84" type="line" smooth="yes"/>
      <point x="112" y="37"/>
      <point x="77" y="18"/>
      <point x="12" y="10" type="curve"/>
    </contour>
  </outline>
</glyph>
<glyph name="ae" format="2">
  <advance width="749"/>
  <unicode hex="00E6"/>
  <anchor x="375" y="0" name="bottom"/>
  <anchor x="375" y="500" name="top"/>
  <outline>
    <contour>
      <point x="220" y="-15" type="curve" smooth="yes"/>
      <point x="276" y="-15"/>
      <point x="333" y="22"/>
      <point x="364" y="82" type="curve"/>
      <point x="402" y="31"/>
      <point x="471" y="-11"/>
      <point x="531" y="-11" type="curve" smooth="yes"/>
      <point x="598" y="-11"/>
      <point x="670" y="19"/>
      <point x="703" y="150" type="curve"/>
      <point x="680" y="160" type="line"/>
      <point x="647" y="46"/>
      <point x="594" y="14"/>
      <point x="540" y="14" type="curve" smooth="yes"/>
      <point x="467" y="14"/>
      <point x="428" y="103"/>
      <point x="428" y="246" type="curve" smooth="yes"/>
      <point x="428" y="273"/>
      <point x="430" y="297"/>
      <point x="433" y="320" type="curve"/>
      <point x="707" y="320" type="line"/>
      <point x="707" y="405"/>
      <point x="655" y="515"/>
      <point x="524" y="515" type="curve" smooth="yes"/>
      <point x="471" y="515"/>
      <point x="423" y="489"/>
      <point x="387" y="446" type="curve"/>
      <point x="359" y="493"/>
      <point x="312" y="515"/>
      <point x="245" y="515" type="curve" smooth="yes"/>
      <point x="189" y="515"/>
      <point x="143" y="494"/>
      <point x="95" y="469" type="curve"/>
      <point x="67" y="303" type="line"/>
      <point x="77" y="303" type="line"/>
      <point x="115" y="425"/>
      <point x="165" y="489"/>
      <point x="234" y="489" type="curve" smooth="yes"/>
      <point x="299" y="489"/>
      <point x="314" y="408"/>
      <point x="317" y="345" type="curve"/>
      <point x="129" y="345"/>
      <point x="57" y="241"/>
      <point x="57" y="134" type="curve" smooth="yes"/>
      <point x="57" y="35"/>
      <point x="129" y="-15"/>
    </contour>
    <contour>
      <point x="230" y="11" type="curve" smooth="yes"/>
      <point x="187" y="11"/>
      <point x="167" y="55"/>
      <point x="167" y="149" type="curve" smooth="yes"/>
      <point x="167" y="262"/>
      <point x="179" y="320"/>
      <point x="318" y="320" type="curve"/>
      <point x="318" y="309"/>
      <point x="318" y="297"/>
      <point x="318" y="286" type="curve"/>
      <point x="318" y="174" type="line" smooth="yes"/>
      <point x="318" y="69"/>
      <point x="278" y="11"/>
    </contour>
    <contour>
      <point x="432" y="345" type="line"/>
      <point x="450" y="438"/>
      <point x="493" y="492"/>
      <point x="532" y="492" type="curve" smooth="yes"/>
      <point x="568" y="492"/>
      <point x="601" y="460"/>
      <point x="609" y="345" type="curve"/>
    </contour>
  </outline>
</glyph>
<glyph name="eth" format="2">
  <advance width="568"/>
  <unicode hex="00F0"/>
  <anchor x="300" y="0" name="bottom"/>
  <anchor x="300" y="700" name="top"/>
  <outline>
    <contour>
      <point x="63" y="250" type="curve" smooth="yes"/>
      <point x="63" y="90"/>
      <point x="143" y="-15"/>
      <point x="284" y="-15" type="curve" smooth="yes"/>
      <point x="432" y="-15"/>
      <point x="502" y="104"/>
      <point x="502" y="313" type="curve" smooth="yes"/>
      <point x="502" y="582"/>
      <point x="415" y="682"/>
      <point x="306" y="709" type="curve" smooth="yes"/>
      <point x="258" y="721"/>
      <point x="198" y="722"/>
      <point x="127" y="699" type="curve"/>
      <point x="94" y="626" type="line"/>
      <point x="104" y="622" type="line"/>
      <point x="155" y="673"/>
      <point x="230" y="700"/>
      <point x="294" y="684" type="curve" smooth="yes"/>
      <point x="363" y="667"/>
      <point x="408" y="612"/>
      <point x="413" y="471" type="curve"/>
      <point x="392" y="493"/>
      <point x="338" y="515"/>
      <point x="278" y="515" type="curve" smooth="yes"/>
      <point x="148" y="515"/>
      <point x="63" y="414"/>
    </contour>
    <contour>
      <point x="406" y="273" type="curve" smooth="yes"/>
      <point x="406" y="91"/>
      <point x="341" y="10"/>
      <point x="277" y="10" type="curve" smooth="yes"/>
      <point x="217" y="10"/>
      <point x="158" y="80"/>
      <point x="158" y="252" type="curve" smooth="yes"/>
      <point x="158" y="416"/>
      <point x="224" y="490"/>
      <point x="276" y="490" type="curve" smooth="yes"/>
      <point x="348" y="490"/>
      <point x="406" y="426"/>
    </contour>
    <contour>
      <point x="122" y="543" type="line"/>
      <point x="135" y="520" type="line"/>
      <point x="476" y="695" type="line"/>
      <point x="464" y="717" type="line"/>
    </contour>
  </outline>
</glyph>
<glyph name="divide" format="2">
  <advance width="654"/>
  <unicode hex="00F7"/>
  <outline>
    <contour>
      <point x="90" y="271" type="line"/>
      <point x="90" y="241" type="line"/>
      <point x="564" y="241" type="line"/>
      <point x="564" y="271" type="line"/>
    </contour>
    <contour>
      <point x="327" y="404" type="curve" smooth="yes"/>
      <point x="350" y="404"/>
      <point x="368" y="422"/>
      <point x="368" y="446" type="curve" smooth="yes"/>
      <point x="368" y="469"/>
      <point x="350" y="487"/>
      <point x="327" y="487" type="curve" smooth="yes"/>
      <point x="303" y="487"/>
      <point x="285" y="469"/>
      <point x="285" y="446" type="curve" smooth="yes"/>
      <point x="285" y="422"/>
      <point x="303" y="404"/>
    </contour>
    <contour>
      <point x="327" y="25" type="curve" smooth="yes"/>
      <point x="350" y="25"/>
      <point x="368" y="43"/>
      <point x="368" y="67" type="curve" smooth="yes"/>
      <point x="368" y="90"/>
      <point x="350" y="108"/>
      <point x="327" y="108" type="curve" smooth="yes"/>
      <point x="303" y="108"/>
      <point x="285" y="90"/>
      <point x="285" y="67" type="curve" smooth="yes"/>
      <point x="285" y="43"/>
      <point x="303" y="25"/>
    </contour>
  </outline>
</glyph>
<glyph name="oslash" format="2">
  <advance width="540"/>
  <unicode hex="00F8"/>
  <anchor x="270" y="500" name="top"/>
  <outline>
    <contour>
      <point x="420" y="561" type="line"/>
      <point x="108" y="-58" type="line"/>
      <point x="139" y="-58" type="line"/>
      <point x="449" y="559" type="line"/>
    </contour>
    <component base="o"/>
  </outline>
</glyph>
<glyph name="thorn" format="2">
  <advance width="574"/>
  <unicode hex="00FE"/>
  <anchor x="287" y="0" name="bottom"/>
  <anchor x="287" y="500" name="top"/>
  <outline>
    <contour>
      <point x="10" y="-200" type="line"/>
      <point x="276" y="-200" type="line"/>
      <point x="276" y="-190" type="line"/>
      <point x="211" y="-183"/>
      <point x="186" y="-164"/>
      <point x="186" y="-116" type="curve" smooth="yes"/>
      <point x="186" y="80" type="line"/>
      <point x="221" y="22"/>
      <point x="274" y="-15"/>
      <point x="338" y="-15" type="curve" smooth="yes"/>
      <point x="464" y="-15"/>
      <point x="526" y="118"/>
      <point x="526" y="250" type="curve" smooth="yes"/>
      <point x="526" y="383"/>
      <point x="464" y="515"/>
      <point x="338" y="515" type="curve" smooth="yes"/>
      <point x="281" y="515"/>
      <point x="220" y="488"/>
      <point x="186" y="442" type="curve"/>
      <point x="186" y="700" type="line"/>
      <point x="10" y="700" type="line"/>
      <point x="10" y="690" type="line"/>
      <point x="76" y="683"/>
      <point x="100" y="664"/>
      <point x="100" y="616" type="curve" smooth="yes"/>
      <point x="100" y="-116" type="line" smooth="yes"/>
      <point x="100" y="-164"/>
      <point x="75" y="-183"/>
      <point x="10" y="-190" type="curve"/>
    </contour>
    <contour>
      <point x="186" y="258" type="curve" smooth="yes"/>
      <point x="186" y="397"/>
      <point x="252" y="489"/>
      <point x="315" y="489" type="curve" smooth="yes"/>
      <point x="392" y="489"/>
      <point x="435" y="370"/>
      <point x="435" y="251" type="curve" smooth="yes"/>
      <point x="435" y="132"/>
      <point x="392" y="13"/>
      <point x="315" y="13" type="curve" smooth="yes"/>
      <point x="253" y="13"/>
      <point x="186" y="108"/>
    </contour>
  </outline>
</glyph>
<glyph name="idotless" format="2">
  <advance width="310"/>
  <unicode hex="0131"/>
  <anchor x="155" y="0" name="bottom"/>
  <anchor x="279" y="10" name="ogonek"/>
  <anchor x="155" y="500" name="top"/>
  <outline>
    <contour>
      <point x="10" y="0" type="line"/>
      <point x="296" y="0" type="line"/>
      <point x="296" y="10" type="line"/>
      <point x="231" y="17"/>
      <point x="196" y="36"/>
      <point x="196" y="84" type="curve" smooth="yes"/>
      <point x="196" y="500" type="line"/>
      <point x="10" y="500" type="line"/>
      <point x="10" y="490" type="line"/>
      <point x="76" y="483"/>
      <point x="110" y="464"/>
      <point x="110" y="416" type="curve" smooth="yes"/>
      <point x="110" y="84" type="line" smooth="yes"/>
      <point x="110" y="36"/>
      <point x="75" y="17"/>
      <point x="10" y="10" type="curve"/>
    </contour>
  </outline>
</glyph>
<glyph name="Lslash" format="2">
  <advance width="542"/>
  <unicode hex="0141"/>
  <outline>
    <contour>
      <point x="344" y="461" type="line"/>
      <point x="38" y="292" type="line"/>
      <point x="50" y="267" type="line"/>
      <point x="356" y="436" type="line"/>
    </contour>
    <component base="L"/>
  </outline>
</glyph>
<glyph name="lslash" format="2">
  <advance width="296"/>
  <unicode hex="0142"/>
  <outline>
    <contour>
      <point x="262" y="473" type="line"/>
      <point x="14" y="331" type="line"/>
      <point x="26" y="306" type="line"/>
      <point x="274" y="448" type="line"/>
    </contour>
    <component base="l"/>
  </outline>
</glyph>
<glyph name="OE" format="2">
  <advance width="859"/>
  <unicode hex="0152"/>
  <anchor x="430" y="0" name="bottom"/>
  <anchor x="430" y="700" name="top"/>
  <outline>
    <contour>
      <point x="624" y="675" type="line" smooth="yes"/>
      <point x="717" y="675"/>
      <point x="760" y="574"/>
      <point x="767" y="475" type="curve"/>
      <point x="777" y="475" type="line"/>
      <point x="777" y="700" type="line"/>
      <point x="315" y="700" type="line" smooth="yes"/>
      <point x="163" y="700"/>
      <point x="60" y="539"/>
      <point x="60" y="345" type="curve" smooth="yes"/>
      <point x="60" y="150"/>
      <point x="163" y="0"/>
      <point x="315" y="0" type="curve" smooth="yes"/>
      <point x="777" y="0" type="line"/>
      <point x="777" y="225" type="line"/>
      <point x="767" y="225" type="line"/>
      <point x="760" y="126"/>
      <point x="717" y="25"/>
      <point x="624" y="25" type="curve" smooth="yes"/>
      <point x="515" y="25" type="line"/>
      <point x="515" y="475" type="line"/>
      <point x="524" y="475" type="line" smooth="yes"/>
      <point x="595" y="475"/>
      <point x="675" y="381"/>
      <point x="704" y="307" type="curve"/>
      <point x="714" y="310" type="line"/>
      <point x="609" y="620" type="line"/>
      <point x="599" y="617" type="line"/>
      <point x="621" y="536"/>
      <point x="604" y="500"/>
      <point x="524" y="500" type="curve" smooth="yes"/>
      <point x="515" y="500" type="line"/>
      <point x="515" y="675" type="line"/>
    </contour>
    <contour>
      <point x="415" y="84" type="line" smooth="yes"/>
      <point x="415" y="55"/>
      <point x="411" y="25"/>
      <point x="378" y="25" type="curve" smooth="yes"/>
      <point x="332" y="25" type="line" smooth="yes"/>
      <point x="208" y="25"/>
      <point x="170" y="140"/>
      <point x="170" y="345" type="curve" smooth="yes"/>
      <point x="170" y="559"/>
      <point x="208" y="675"/>
      <point x="332" y="675" type="curve" smooth="yes"/>
      <point x="378" y="675" type="line" smooth="yes"/>
      <point x="411" y="675"/>
      <point x="415" y="645"/>
      <point x="415" y="616" type="curve" smooth="yes"/>
    </contour>
  </outline>
</glyph>
<glyph name="oe" format="2">
  <advance width="818"/>
  <unicode hex="0153"/>
  <anchor x="409" y="0" name="bottom"/>
  <anchor x="409" y="500" name="top"/>
  <outline>
    <contour>
      <point x="271" y="-15" type="curve" smooth="yes"/>
      <point x="343" y="-15"/>
      <point x="399" y="27"/>
      <point x="435" y="89" type="curve"/>
      <point x="475" y="23"/>
      <point x="541" y="-11"/>
      <point x="600" y="-11" type="curve" smooth="yes"/>
      <point x="667" y="-11"/>
      <point x="739" y="19"/>
      <point x="772" y="150" type="curve"/>
      <point x="749" y="160" type="line"/>
      <point x="716" y="46"/>
      <point x="663" y="14"/>
      <point x="609" y="14" type="curve" smooth="yes"/>
      <point x="536" y="14"/>
      <point x="497" y="103"/>
      <point x="497" y="246" type="curve" smooth="yes"/>
      <point x="497" y="273"/>
      <point x="499" y="297"/>
      <point x="501" y="320" type="curve"/>
      <point x="776" y="320" type="line"/>
      <point x="776" y="405"/>
      <point x="724" y="515"/>
      <point x="593" y="515" type="curve" smooth="yes"/>
      <point x="534" y="515"/>
      <point x="481" y="482"/>
      <point x="443" y="429" type="curve"/>
      <point x="402" y="484"/>
      <point x="341" y="515"/>
      <point x="271" y="515" type="curve" smooth="yes"/>
      <point x="142" y="515"/>
      <point x="48" y="412"/>
      <point x="48" y="246" type="curve" smooth="yes"/>
      <point x="48" y="80"/>
      <point x="142" y="-15"/>
    </contour>
    <contour>
      <point x="271" y="10" type="curve" smooth="yes"/>
      <point x="190" y="10"/>
      <point x="158" y="112"/>
      <point x="158" y="246" type="curve" smooth="yes"/>
      <point x="158" y="388"/>
      <point x="190" y="490"/>
      <point x="271" y="490" type="curve" smooth="yes"/>
      <point x="351" y="490"/>
      <point x="387" y="388"/>
      <point x="387" y="246" type="curve" smooth="yes"/>
      <point x="387" y="112"/>
      <point x="351" y="10"/>
    </contour>
    <contour>
      <point x="505" y="345" type="line"/>
      <point x="522" y="438"/>
      <point x="562" y="492"/>
      <point x="601" y="492" type="curve" smooth="yes"/>
      <point x="637" y="492"/>
      <point x="670" y="460"/>
      <point x="678" y="345" type="curve"/>
    </contour>
  </outline>
</glyph>
<glyph name="florin" format="2">
  <advance width="498"/>
  <unicode hex="0192"/>
  <outline>
    <contour>
      <point x="231" y="547" type="curve" smooth="yes"/>
      <point x="206" y="273" type="line"/>
      <point x="35" y="273" type="line"/>
      <point x="35" y="250" type="line"/>
      <point x="204" y="250" type="line"/>
      <point x="182" y="0" type="line"/>
      <point x="193" y="-23"/>
      <point x="198" y="-38"/>
      <point x="198" y="-79" type="curve" smooth="yes"/>
      <point x="198" y="-151"/>
      <point x="168" y="-190"/>
      <point x="127" y="-190" type="curve" smooth="yes"/>
      <point x="74" y="-190"/>
      <point x="41" y="-163"/>
      <point x="-15" y="-32" type="curve"/>
      <point x="-25" y="-32" type="line"/>
      <point x="-6" y="-169" type="line"/>
      <point x="26" y="-200"/>
      <point x="69" y="-215"/>
      <point x="122" y="-215" type="curve" smooth="yes"/>
      <point x="206" y="-215"/>
      <point x="257" y="-156"/>
      <point x="267" y="-47" type="curve" smooth="yes"/>
      <point x="294" y="250" type="line"/>
      <point x="463" y="250" type="line"/>
      <point x="463" y="273" type="line"/>
      <point x="296" y="273" type="line"/>
      <point x="317" y="501" type="line"/>
      <point x="304" y="513"/>
      <point x="300" y="523"/>
      <point x="300" y="579" type="curve" smooth="yes"/>
      <point x="300" y="651"/>
      <point x="330" y="690"/>
      <point x="371" y="690" type="curve" smooth="yes"/>
      <point x="425" y="690"/>
      <point x="459" y="660"/>
      <point x="513" y="532" type="curve"/>
      <point x="523" y="532" type="line"/>
      <point x="504" y="669" type="line"/>
      <point x="472" y="700"/>
      <point x="429" y="715"/>
      <point x="376" y="715" type="curve" smooth="yes"/>
      <point x="292" y="715"/>
      <point x="241" y="656"/>
    </contour>
  </outline>
</glyph>
<glyph name="jdotless" format="2">
  <advance width="270"/>
  <unicode hex="0237"/>
  <anchor x="135" y="-200" name="bottom"/>
  <anchor x="135" y="500" name="top"/>
  <outline>
    <contour>
      <point x="43" y="-214" type="curve" smooth="yes"/>
      <point x="131" y="-214"/>
      <point x="200" y="-154"/>
      <point x="200" y="-31" type="curve" smooth="yes"/>
      <point x="200" y="500" type="line"/>
      <point x="14" y="500" type="line"/>
      <point x="14" y="490" type="line"/>
      <point x="81" y="481"/>
      <point x="114" y="462"/>
      <point x="114" y="416" type="curve" smooth="yes"/>
      <point x="114" y="-52" type="line" smooth="yes"/>
      <point x="114" y="-135"/>
      <point x="84" y="-183"/>
      <point x="27" y="-183" type="curve" smooth="yes"/>
      <point x="-7" y="-183"/>
      <point x="-43" y="-160"/>
      <point x="-68" y="-106" type="curve"/>
      <point x="-91" y="-117" type="line"/>
      <point x="-63" y="-185"/>
      <point x="-12" y="-214"/>
    </contour>
  </outline>
</glyph>
<glyph name="gravecomb" format="2">
  <advance width="480"/>
  <unicode hex="0300"/>
  <anchor x="260" y="500" name="_top"/>
  <anchor x="260" y="763" name="top"/>
  <outline>
    <contour>
      <point x="156" y="725" type="line"/>
      <point x="353" y="569" type="line"/>
      <point x="363" y="584" type="line"/>
      <point x="188" y="763" type="line"/>
    </contour>
  </outline>
</glyph>
<glyph name="acutecomb" format="2">
  <advance width="480"/>
  <unicode hex="0301"/>
  <anchor x="260" y="500" name="_top"/>
  <anchor x="260" y="763" name="top"/>
  <outline>
    <contour>
      <point x="363" y="725" type="line"/>
      <point x="331" y="763" type="line"/>
      <point x="156" y="584" type="line"/>
      <point x="166" y="569" type="line"/>
    </contour>
  </outline>
</glyph>
<glyph name="circumflexcomb" format="2">
  <advance width="448"/>
  <unicode hex="0302"/>
  <anchor x="260" y="500" name="_top"/>
  <anchor x="260" y="751" name="top"/>
  <outline>
    <contour>
      <point x="412" y="571" type="line"/>
      <point x="260" y="751" type="line"/>
      <point x="108" y="571" type="line"/>
      <point x="119" y="557" type="line"/>
      <point x="260" y="685" type="line"/>
      <point x="401" y="557" type="line"/>
    </contour>
  </outline>
</glyph>
<glyph name="tildecomb" format="2">
  <advance width="600"/>
  <unicode hex="0303"/>
  <anchor x="310" y="500" name="_top"/>
  <anchor x="310" y="700" name="top"/>
  <outline>
    <contour>
      <point x="217" y="659" type="curve" smooth="yes"/>
      <point x="270" y="659"/>
      <point x="327" y="563"/>
      <point x="383" y="563" type="curve" smooth="yes"/>
      <point x="414" y="563"/>
      <point x="446" y="578"/>
      <point x="446" y="676" type="curve"/>
      <point x="436" y="676" type="line"/>
      <point x="436" y="613"/>
      <point x="423" y="604"/>
      <point x="403" y="604" type="curve" smooth="yes"/>
      <point x="350" y="604"/>
      <point x="293" y="700"/>
      <point x="237" y="700" type="curve" smooth="yes"/>
      <point x="206" y="700"/>
      <point x="174" y="685"/>
      <point x="174" y="587" type="curve"/>
      <point x="184" y="587" type="line"/>
      <point x="184" y="650"/>
      <point x="197" y="659"/>
    </contour>
  </outline>
</glyph>
<glyph name="macroncomb" format="2">
  <advance width="600"/>
  <unicode hex="0304"/>
  <anchor x="367" y="530" name="_top"/>
  <anchor x="367" y="688" name="top"/>
  <outline>
    <contour>
      <point x="217" y="688" type="line"/>
      <point x="217" y="648" type="line"/>
      <point x="517" y="648" type="line"/>
      <point x="517" y="688" type="line"/>
    </contour>
  </outline>
</glyph>
<glyph name="brevecomb" format="2">
  <advance width="600"/>
  <unicode hex="0306"/>
  <anchor x="290" y="500" name="_top"/>
  <anchor x="290" y="737" name="top"/>
  <outline>
    <contour>
      <point x="133" y="717" type="line"/>
      <point x="133" y="627"/>
      <point x="197" y="560"/>
      <point x="290" y="560" type="curve" smooth="yes"/>
      <point x="383" y="560"/>
      <point x="447" y="627"/>
      <point x="447" y="717" type="curve"/>
      <point x="429" y="717" type="line"/>
      <point x="429" y="668"/>
      <point x="376" y="616"/>
      <point x="290" y="616" type="curve" smooth="yes"/>
      <point x="204" y="616"/>
      <point x="151" y="668"/>
      <point x="151" y="717" type="curve"/>
    </contour>
  </outline>
</glyph>
<glyph name="dotaccentcomb" format="2">
  <advance width="600"/>
  <unicode hex="0307"/>
  <anchor x="345" y="477" name="_top"/>
  <anchor x="345" y="667" name="top"/>
  <outline>
    <contour>
      <point x="395" y="617" type="curve" smooth="yes"/>
      <point x="395" y="648"/>
      <point x="371" y="667"/>
      <point x="345" y="667" type="curve" smooth="yes"/>
      <point x="318" y="667"/>
      <point x="294" y="648"/>
      <point x="294" y="617" type="curve" smooth="yes"/>
      <point x="294" y="585"/>
      <point x="318" y="565"/>
      <point x="345" y="565" type="curve" smooth="yes"/>
      <point x="371" y="565"/>
      <point x="395" y="585"/>
    </contour>
  </outline>
</glyph>
<glyph name="dieresiscomb" format="2">
  <advance width="484"/>
  <unicode hex="0308"/>
  <anchor x="262" y="500" name="_top"/>
  <anchor x="262" y="667" name="top"/>
  <outline>
    <contour>
      <point x="185" y="559" type="curve" smooth="yes"/>
      <point x="213" y="559"/>
      <point x="238" y="580"/>
      <point x="238" y="614" type="curve" smooth="yes"/>
      <point x="238" y="647"/>
      <point x="213" y="667"/>
      <point x="185" y="667" type="curve" smooth="yes"/>
      <point x="157" y="667"/>
      <point x="132" y="647"/>
      <point x="132" y="614" type="curve" smooth="yes"/>
      <point x="132" y="580"/>
      <point x="157" y="559"/>
    </contour>
    <contour>
      <point x="340" y="559" type="curve" smooth="yes"/>
      <point x="367" y="559"/>
      <point x="392" y="580"/>
      <point x="392" y="614" type="curve" smooth="yes"/>
      <point x="392" y="647"/>
      <point x="367" y="667"/>
      <point x="340" y="667" type="curve" smooth="yes"/>
      <point x="311" y="667"/>
      <point x="286" y="647"/>
      <point x="286" y="614" type="curve" smooth="yes"/>
      <point x="286" y="580"/>
      <point x="311" y="559"/>
    </contour>
  </outline>
</glyph>
<glyph name="ringcomb" format="2">
  <advance width="600"/>
  <unicode hex="030A"/>
  <anchor x="255" y="500" name="_top"/>
  <anchor x="255" y="753" name="top"/>
  <outline>
    <contour>
      <point x="255" y="597" type="curve" smooth="yes"/>
      <point x="298" y="597"/>
      <point x="333" y="632"/>
      <point x="333" y="675" type="curve" smooth="yes"/>
      <point x="333" y="718"/>
      <point x="298" y="753"/>
      <point x="255" y="753" type="curve" smooth="yes"/>
      <point x="212" y="753"/>
      <point x="177" y="718"/>
      <point x="177" y="675" type="curve" smooth="yes"/>
      <point x="177" y="632"/>
      <point x="212" y="597"/>
    </contour>
    <contour>
      <point x="255" y="621" type="curve" smooth="yes"/>
      <point x="225" y="621"/>
      <point x="202" y="645"/>
      <point x="202" y="675" type="curve" smooth="yes"/>
      <point x="202" y="705"/>
      <point x="225" y="729"/>
      <point x="255" y="729" type="curve" smooth="yes"/>
      <point x="285" y="729"/>
      <point x="308" y="705"/>
      <point x="308" y="675" type="curve" smooth="yes"/>
      <point x="308" y="645"/>
      <point x="285" y="621"/>
    </contour>
  </outline>
</glyph>
<glyph name="hungarumlautcomb" format="2">
  <advance width="600"/>
  <unicode hex="030B"/>
  <anchor x="318" y="500" name="_top"/>
  <anchor x="350" y="763" name="top"/>
  <outline>
    <contour>
      <point x="363" y="725" type="line"/>
      <point x="331" y="763" type="line"/>
      <point x="156" y="584" type="line"/>
      <point x="166" y="569" type="line"/>
    </contour>
    <contour>
      <point x="543" y="705" type="line"/>
      <point x="517" y="747" type="line"/>
      <point x="319" y="594" type="line"/>
      <point x="327" y="578" type="line"/>
    </contour>
  </outline>
</glyph>
<glyph name="caroncomb" format="2">
  <advance width="600"/>
  <unicode hex="030C"/>
  <anchor x="260" y="500" name="_top"/>
  <anchor x="260" y="751" name="top"/>
  <outline>
    <contour>
      <point x="108" y="737" type="line"/>
      <point x="260" y="557" type="line"/>
      <point x="412" y="737" type="line"/>
      <point x="401" y="751" type="line"/>
      <point x="260" y="623" type="line"/>
      <point x="119" y="751" type="line"/>
    </contour>
  </outline>
</glyph>
<glyph name="commaturnedabovecomb" format="2">
  <advance width="600"/>
  <unicode hex="0312"/>
  <anchor x="331" y="500" name="_top"/>
  <anchor x="331" y="816" name="top"/>
  <outline>
    <contour>
      <point x="378" y="816" type="line"/>
      <point x="303" y="789"/>
      <point x="266" y="731"/>
      <point x="266" y="646" type="curve" smooth="yes"/>
      <point x="266" y="575"/>
      <point x="296" y="539"/>
      <point x="337" y="539" type="curve" smooth="yes"/>
      <point x="374" y="539"/>
      <point x="396" y="568"/>
      <point x="396" y="600" type="curve" smooth="yes"/>
      <point x="396" y="633"/>
      <point x="369" y="659"/>
      <point x="336" y="659" type="curve" smooth="yes"/>
      <point x="322" y="659"/>
      <point x="308" y="655"/>
      <point x="298" y="646" type="curve"/>
      <point x="288" y="701"/>
      <point x="312" y="775"/>
      <point x="385" y="799" type="curve"/>
    </contour>
  </outline>
</glyph>
<glyph name="commaaccentcomb" format="2">
  <advance width="600"/>
  <unicode hex="0326"/>
  <anchor x="331" y="50" name="_bottom"/>
  <anchor x="321" y="-222" name="bottom"/>
  <outline>
    <contour>
      <point x="264" y="-222" type="line"/>
      <point x="347" y="-208"/>
      <point x="382" y="-144"/>
      <point x="382" y="-50" type="curve" smooth="yes"/>
      <point x="382" y="-18"/>
      <point x="358" y="5"/>
      <point x="330" y="5" type="curve" smooth="yes"/>
      <point x="302" y="5"/>
      <point x="279" y="-18"/>
      <point x="279" y="-46" type="curve" smooth="yes"/>
      <point x="279" y="-74"/>
      <point x="302" y="-97"/>
      <point x="330" y="-97" type="curve" smooth="yes"/>
      <point x="340" y="-97"/>
      <point x="348" y="-94"/>
      <point x="355" y="-90" type="curve"/>
      <point x="355" y="-137"/>
      <point x="327" y="-197"/>
      <point x="260" y="-207" type="curve"/>
    </contour>
  </outline>
</glyph>
<glyph name="cedillacomb" format="2">
  <advance width="273"/>
  <unicode hex="0327"/>
  <anchor x="137" y="0" name="_bottom"/>
  <anchor x="137" y="-217" name="bottom"/>
  <outline>
    <contour>
      <point x="58" y="-182" type="curve"/>
      <point x="50" y="-196" type="line"/>
      <point x="66" y="-211"/>
      <point x="90" y="-217"/>
      <point x="114" y="-217" type="curve" smooth="yes"/>
      <point x="166" y="-217"/>
      <point x="223" y="-186"/>
      <point x="223" y="-133" type="curve" smooth="yes"/>
      <point x="223" y="-94"/>
      <point x="186" y="-57"/>
      <point x="114" y="-59" type="curve"/>
      <point x="141" y="6" type="line"/>
      <point x="115" y="6" type="line"/>
      <point x="86" y="-60" type="line"/>
      <point x="86" y="-78" type="line"/>
      <point x="135" y="-78"/>
      <point x="174" y="-104"/>
      <point x="174" y="-139" type="curve" smooth="yes"/>
      <point x="174" y="-176"/>
      <point x="140" y="-198"/>
      <point x="105" y="-198" type="curve" smooth="yes"/>
      <point x="89" y="-198"/>
      <point x="72" y="-193"/>
    </contour>
  </outline>
</glyph>
<glyph name="ogonekcomb" format="2">
  <advance width="600"/>
  <unicode hex="0328"/>
  <anchor x="399" y="3" name="_ogonek"/>
  <outline>
    <contour>
      <point x="304" y="3" type="line"/>
      <point x="213" y="-97"/>
      <point x="188" y="-228"/>
      <point x="293" y="-228" type="curve" smooth="yes"/>
      <point x="341" y="-228"/>
      <point x="373" y="-200"/>
      <point x="399" y="-171" type="curve"/>
      <point x="389" y="-160" type="line"/>
      <point x="377" y="-172"/>
      <point x="358" y="-190"/>
      <point x="320" y="-190" type="curve" smooth="yes"/>
      <point x="230" y="-190"/>
      <point x="251" y="-79"/>
      <point x="314" y="-7" type="curve"/>
    </contour>
  </outline>
</glyph>
<glyph name="mu" format="2">
  <advance width="506"/>
  <unicode hex="03BC"/>
  <outline>
    <contour>
      <point x="150" y="270" type="line"/>
      <point x="65" y="270" type="line"/>
      <point x="65" y="149" type="line" smooth="yes"/>
      <point x="65" y="35"/>
      <point x="127" y="-15"/>
      <point x="211" y="-15" type="curve" smooth="yes"/>
      <point x="287" y="-15"/>
      <point x="323" y="43"/>
      <point x="330" y="83" type="curve"/>
      <point x="330" y="0" type="line"/>
      <point x="506" y="0" type="line"/>
      <point x="506" y="10" type="line"/>
      <point x="440" y="17"/>
      <point x="416" y="36"/>
      <point x="416" y="84" type="curve" smooth="yes"/>
      <point x="416" y="500" type="line"/>
      <point x="330" y="500" type="line"/>
      <point x="330" y="239" type="line" smooth="yes"/>
      <point x="330" y="144"/>
      <point x="304" y="9"/>
      <point x="224" y="9" type="curve" smooth="yes"/>
      <point x="187" y="9"/>
      <point x="150" y="58"/>
      <point x="150" y="162" type="curve" smooth="yes"/>
    </contour>
    <contour>
      <point x="65" y="-200" type="line"/>
      <point x="150" y="-200" type="line"/>
      <point x="150" y="500" type="line"/>
      <point x="64" y="500" type="line"/>
    </contour>
  </outline>
</glyph>
<glyph name="endash" format="2">
  <advance width="542"/>
  <unicode hex="2013"/>
  <outline>
    <contour>
      <point x="80" y="266" type="line"/>
      <point x="80" y="236" type="line"/>
      <point x="462" y="236" type="line"/>
      <point x="462" y="266" type="line"/>
    </contour>
  </outline>
</glyph>
<glyph name="emdash" format="2">
  <advance width="712"/>
  <unicode hex="2014"/>
  <outline>
    <contour>
      <point x="80" y="266" type="line"/>
      <point x="80" y="236" type="line"/>
      <point x="632" y="236" type="line"/>
      <point x="632" y="266" type="line"/>
    </contour>
  </outline>
</glyph>
<glyph name="quotedblleft" format="2">
  <advance width="435"/>
  <unicode hex="201C"/>
  <outline>
    <contour>
      <point x="167" y="715" type="line"/>
      <point x="114" y="693"/>
      <point x="80" y="656"/>
      <point x="80" y="543" type="curve" smooth="yes"/>
      <point x="80" y="508"/>
      <point x="107" y="481"/>
      <point x="140" y="481" type="curve" smooth="yes"/>
      <point x="173" y="481"/>
      <point x="200" y="508"/>
      <point x="200" y="541" type="curve" smooth="yes"/>
      <point x="200" y="574"/>
      <point x="173" y="601"/>
      <point x="140" y="601" type="curve" smooth="yes"/>
      <point x="129" y="601"/>
      <point x="119" y="598"/>
      <point x="111" y="593" type="curve"/>
      <point x="111" y="648"/>
      <point x="138" y="682"/>
      <point x="174" y="699" type="curve"/>
    </contour>
    <contour>
      <point x="337" y="715" type="line"/>
      <point x="284" y="693"/>
      <point x="250" y="656"/>
      <point x="250" y="543" type="curve" smooth="yes"/>
      <point x="250" y="508"/>
      <point x="277" y="481"/>
      <point x="310" y="481" type="curve" smooth="yes"/>
      <point x="343" y="481"/>
      <point x="370" y="508"/>
      <point x="370" y="541" type="curve" smooth="yes"/>
      <point x="370" y="574"/>
      <point x="343" y="601"/>
      <point x="310" y="601" type="curve" smooth="yes"/>
      <point x="299" y="601"/>
      <point x="289" y="598"/>
      <point x="281" y="593" type="curve"/>
      <point x="281" y="648"/>
      <point x="308" y="682"/>
      <point x="344" y="699" type="curve"/>
    </contour>
  </outline>
</glyph>
<glyph name="dagger" format="2">
  <advance width="395"/>
  <unicode hex="2020"/>
  <outline>
    <contour>
      <point x="192" y="-200" type="line"/>
      <point x="202" y="-200" type="line"/>
      <point x="257" y="331" type="line"/>
      <point x="219" y="343"/>
      <point x="210" y="387"/>
      <point x="210" y="492" type="curve" smooth="yes"/>
      <point x="210" y="661"/>
      <point x="221" y="684"/>
      <point x="309" y="690" type="curve"/>
      <point x="309" y="699" type="line"/>
      <point x="85" y="699" type="line"/>
      <point x="85" y="690" type="line"/>
      <point x="174" y="684"/>
      <point x="185" y="661"/>
      <point x="185" y="492" type="curve" smooth="yes"/>
      <point x="185" y="387"/>
      <point x="175" y="343"/>
      <point x="137" y="331" type="curve"/>
    </contour>
    <contour>
      <point x="335" y="500" type="line"/>
      <point x="60" y="500" type="line"/>
      <point x="60" y="475" type="line"/>
      <point x="335" y="475" type="line"/>
    </contour>
  </outline>
</glyph>
<glyph name="daggerdbl" format="2">
  <advance width="395"/>
  <unicode hex="2021"/>
  <outline>
    <contour>
      <point x="185" y="250" type="line"/>
      <point x="137" y="53" type="line"/>
      <point x="175" y="41"/>
      <point x="185" y="7"/>
      <point x="185" y="-78" type="curve" smooth="yes"/>
      <point x="185" y="-162"/>
      <point x="174" y="-185"/>
      <point x="85" y="-191" type="curve"/>
      <point x="85" y="-200" type="line"/>
      <point x="309" y="-200" type="line"/>
      <point x="309" y="-191" type="line"/>
      <point x="221" y="-185"/>
      <point x="210" y="-162"/>
      <point x="210" y="-78" type="curve" smooth="yes"/>
      <point x="210" y="7"/>
      <point x="219" y="41"/>
      <point x="257" y="53" type="curve"/>
      <point x="209" y="250" type="line"/>
      <point x="257" y="446" type="line"/>
      <point x="219" y="458"/>
      <point x="210" y="492"/>
      <point x="210" y="577" type="curve" smooth="yes"/>
      <point x="210" y="661"/>
      <point x="221" y="684"/>
      <point x="309" y="690" type="curve"/>
      <point x="309" y="699" type="line"/>
      <point x="85" y="699" type="line"/>
      <point x="85" y="690" type="line"/>
      <point x="174" y="684"/>
      <point x="185" y="661"/>
      <point x="185" y="577" type="curve" smooth="yes"/>
      <point x="185" y="492"/>
      <point x="175" y="458"/>
      <point x="137" y="446" type="curve"/>
    </contour>
    <contour>
      <point x="335" y="585" type="line"/>
      <point x="60" y="585" type="line"/>
      <point x="60" y="560" type="line"/>
      <point x="335" y="560" type="line"/>
    </contour>
    <contour>
      <point x="335" y="-86" type="line"/>
      <point x="335" y="-61" type="line"/>
      <point x="60" y="-61" type="line"/>
      <point x="60" y="-86" type="line"/>
    </contour>
  </outline>
</glyph>
<glyph name="bullet" format="2">
  <advance width="412"/>
  <unicode hex="2022"/>
  <outline>
    <contour>
      <point x="205" y="154" type="curve" smooth="yes"/>
      <point x="269" y="154"/>
      <point x="322" y="206"/>
      <point x="322" y="269" type="curve" smooth="yes"/>
      <point x="322" y="333"/>
      <point x="269" y="386"/>
      <point x="205" y="386" type="curve" smooth="yes"/>
      <point x="142" y="386"/>
      <point x="90" y="333"/>
      <point x="90" y="269" type="curve" smooth="yes"/>
      <point x="90" y="206"/>
      <point x="142" y="154"/>
    </contour>
  </outline>
</glyph>
<glyph name="perthousand" format="2">
  <advance width="968"/>
  <unicode hex="2030"/>
  <outline>
    <contour>
      <point x="85" y="0" type="line"/>
      <point x="119" y="0" type="line"/>
      <point x="568" y="715" type="line"/>
      <point x="534" y="715" type="line"/>
    </contour>
    <contour>
      <point x="192" y="463" type="curve" smooth="yes"/>
      <point x="261" y="463"/>
      <point x="317" y="519"/>
      <point x="317" y="589" type="curve" smooth="yes"/>
      <point x="317" y="657"/>
      <point x="261" y="713"/>
      <point x="192" y="713" type="curve" smooth="yes"/>
      <point x="123" y="713"/>
      <point x="67" y="657"/>
      <point x="67" y="589" type="curve" smooth="yes"/>
      <point x="67" y="519"/>
      <point x="123" y="463"/>
    </contour>
    <contour>
      <point x="294" y="589" type="curve" smooth="yes"/>
      <point x="294" y="533"/>
      <point x="241" y="508"/>
      <point x="192" y="508" type="curve" smooth="yes"/>
      <point x="142" y="508"/>
      <point x="90" y="533"/>
      <point x="90" y="589" type="curve" smooth="yes"/>
      <point x="90" y="644"/>
      <point x="142" y="668"/>
      <point x="192" y="668" type="curve" smooth="yes"/>
      <point x="241" y="668"/>
      <point x="294" y="645"/>
    </contour>
    <contour>
      <point x="468" y="-14" type="curve" smooth="yes"/>
      <point x="536" y="-14"/>
      <point x="592" y="42"/>
      <point x="592" y="111" type="curve" smooth="yes"/>
      <point x="592" y="180"/>
      <point x="536" y="236"/>
      <point x="468" y="236" type="curve" smooth="yes"/>
      <point x="398" y="236"/>
      <point x="342" y="180"/>
      <point x="342" y="111" type="curve" smooth="yes"/>
      <point x="342" y="42"/>
      <point x="398" y="-14"/>
    </contour>
    <contour>
      <point x="569" y="111" type="curve" smooth="yes"/>
      <point x="569" y="56"/>
      <point x="517" y="31"/>
      <point x="468" y="31" type="curve" smooth="yes"/>
      <point x="418" y="31"/>
      <point x="365" y="56"/>
      <point x="365" y="111" type="curve" smooth="yes"/>
      <point x="365" y="167"/>
      <point x="418" y="191"/>
      <point x="468" y="191" type="curve" smooth="yes"/>
      <point x="517" y="191"/>
      <point x="569" y="167"/>
    </contour>
    <contour>
      <point x="778" y="-14" type="curve" smooth="yes"/>
      <point x="846" y="-14"/>
      <point x="902" y="42"/>
      <point x="902" y="111" type="curve" smooth="yes"/>
      <point x="902" y="180"/>
      <point x="846" y="236"/>
      <point x="778" y="236" type="curve" smooth="yes"/>
      <point x="708" y="236"/>
      <point x="652" y="180"/>
      <point x="652" y="111" type="curve" smooth="yes"/>
      <point x="652" y="42"/>
      <point x="708" y="-14"/>
    </contour>
    <contour>
      <point x="879" y="111" type="curve" smooth="yes"/>
      <point x="879" y="56"/>
      <point x="827" y="31"/>
      <point x="778" y="31" type="curve" smooth="yes"/>
      <point x="728" y="31"/>
      <point x="675" y="56"/>
      <point x="675" y="111" type="curve" smooth="yes"/>
      <point x="675" y="167"/>
      <point x="728" y="191"/>
      <point x="778" y="191" type="curve" smooth="yes"/>
      <point x="827" y="191"/>
      <point x="879" y="167"/>
    </contour>
  </outline>
</glyph>
<glyph name="guilsinglleft" format="2">
  <advance width="270"/>
  <unicode hex="2039"/>
  <outline>
    <contour>
      <point x="213" y="413" type="line"/>
      <point x="33" y="261" type="line"/>
      <point x="213" y="109" type="line"/>
      <point x="227" y="120" type="line"/>
      <point x="99" y="261" type="line"/>
      <point x="227" y="402" type="line"/>
    </contour>
  </outline>
</glyph>
<glyph name="guilsinglright" format="2">
  <advance width="272"/>
  <unicode hex="203A"/>
  <outline>
    <contour>
      <point x="57" y="413" type="line"/>
      <point x="43" y="402" type="line"/>
      <point x="171" y="261" type="line"/>
      <point x="43" y="120" type="line"/>
      <point x="57" y="109" type="line"/>
      <point x="237" y="261" type="line"/>
    </contour>
  </outline>
</glyph>
<glyph name="fraction" format="2">
  <advance width="458"/>
  <unicode hex="2044"/>
  <outline>
    <contour>
      <point x="402" y="700" type="line"/>
      <point x="20" y="0" type="line"/>
      <point x="56" y="0" type="line"/>
      <point x="438" y="700" type="line"/>
    </contour>
  </outline>
</glyph>
<glyph name="euro" format="2">
  <advance width="725"/>
  <unicode hex="20AC"/>
  <outline>
    <contour>
      <point x="415" y="-15" type="curve" smooth="yes"/>
      <point x="487" y="-15"/>
      <point x="568" y="4"/>
      <point x="611" y="63" type="curve"/>
      <point x="632" y="230" type="line"/>
      <point x="622" y="230" type="line"/>
      <point x="582" y="103"/>
      <point x="522" y="8"/>
      <point x="419" y="10" type="curve" smooth="yes"/>
      <point x="312" y="12"/>
      <point x="244" y="142"/>
      <point x="244" y="345" type="curve" smooth="yes"/>
      <point x="244" y="565"/>
      <point x="327" y="690"/>
      <point x="428" y="690" type="curve" smooth="yes"/>
      <point x="504" y="690"/>
      <point x="576" y="619"/>
      <point x="622" y="470" type="curve"/>
      <point x="632" y="470" type="line"/>
      <point x="611" y="637" type="line"/>
      <point x="580" y="679"/>
      <point x="517" y="715"/>
      <point x="417" y="715" type="curve" smooth="yes"/>
      <point x="267" y="715"/>
      <point x="144" y="574"/>
      <point x="144" y="345" type="curve" smooth="yes"/>
      <point x="144" y="143"/>
      <point x="263" y="-15"/>
    </contour>
    <contour>
      <point x="65" y="254" type="line"/>
      <point x="538" y="254" type="line"/>
      <point x="538" y="279" type="line"/>
      <point x="65" y="278" type="line"/>
    </contour>
    <contour>
      <point x="65" y="421" type="line"/>
      <point x="538" y="421" type="line"/>
      <point x="538" y="446" type="line"/>
      <point x="65" y="446" type="line"/>
    </contour>
  </outline>
</glyph>
<glyph name="trademark" format="2">
  <advance width="583"/>
  <unicode hex="2122"/>
  <outline>
    <contour>
      <point x="237" y="715" type="line"/>
      <point x="41" y="715" type="line"/>
      <point x="41" y="618" type="line"/>
      <point x="45" y="618" type="line"/>
      <point x="48" y="661"/>
      <point x="67" y="700"/>
      <point x="106" y="700" type="curve" smooth="yes"/>
      <point x="118" y="700" type="line"/>
      <point x="118" y="450" type="line" smooth="yes"/>
      <point x="118" y="429"/>
      <point x="103" y="420"/>
      <point x="75" y="418" type="curve"/>
      <point x="75" y="414" type="line"/>
      <point x="202" y="414" type="line"/>
      <point x="202" y="418" type="line"/>
      <point x="173" y="420"/>
      <point x="159" y="429"/>
      <point x="159" y="450" type="curve" smooth="yes"/>
      <point x="159" y="700" type="line"/>
      <point x="170" y="700" type="line" smooth="yes"/>
      <point x="210" y="700"/>
      <point x="229" y="661"/>
      <point x="231" y="618" type="curve"/>
      <point x="237" y="618" type="line"/>
    </contour>
    <contour>
      <point x="529" y="711" type="curve"/>
      <point x="529" y="715" type="line"/>
      <point x="443" y="715" type="line"/>
      <point x="389" y="590" type="line"/>
      <point x="336" y="715" type="line"/>
      <point x="249" y="715" type="line"/>
      <point x="249" y="711" type="line"/>
      <point x="277" y="708"/>
      <point x="292" y="700"/>
      <point x="292" y="679" type="curve" smooth="yes"/>
      <point x="292" y="450" type="line" smooth="yes"/>
      <point x="292" y="429"/>
      <point x="277" y="420"/>
      <point x="258" y="418" type="curve"/>
      <point x="258" y="414" type="line"/>
      <point x="350" y="414" type="line"/>
      <point x="350" y="418" type="line"/>
      <point x="323" y="420"/>
      <point x="307" y="429"/>
      <point x="307" y="450" type="curve" smooth="yes"/>
      <point x="307" y="674" type="line"/>
      <point x="376" y="515" type="line"/>
      <point x="443" y="678" type="line"/>
      <point x="443" y="450" type="line" smooth="yes"/>
      <point x="443" y="429"/>
      <point x="428" y="420"/>
      <point x="409" y="418" type="curve"/>
      <point x="409" y="414" type="line"/>
      <point x="529" y="414" type="line"/>
      <point x="529" y="418" type="line"/>
      <point x="501" y="420"/>
      <point x="486" y="429"/>
      <point x="486" y="450" type="curve" smooth="yes"/>
      <point x="486" y="679" type="line" smooth="yes"/>
      <point x="486" y="700"/>
      <point x="501" y="708"/>
    </contour>
  </outline>
</glyph>
<glyph name="leftArrow" format="2">
  <advance width="774"/>
  <unicode hex="2190"/>
  <outline>
    <contour>
      <point x="256" y="99" type="line"/>
      <point x="270" y="110" type="line"/>
      <point x="122" y="251" type="line"/>
      <point x="270" y="391" type="line"/>
      <point x="256" y="403" type="line"/>
      <point x="56" y="251" type="line"/>
    </contour>
    <contour>
      <point x="108" y="238" type="line"/>
      <point x="710" y="237" type="line"/>
      <point x="710" y="262" type="line"/>
      <point x="108" y="263" type="line"/>
    </contour>
  </outline>
</glyph>
<glyph name="upArrow" format="2">
  <advance width="396"/>
  <unicode hex="2191"/>
  <outline>
    <contour>
      <point x="46" y="382" type="line"/>
      <point x="57" y="368" type="line"/>
      <point x="198" y="516" type="line"/>
      <point x="339" y="368" type="line"/>
      <point x="350" y="382" type="line"/>
      <point x="198" y="582" type="line"/>
    </contour>
    <contour>
      <point x="185" y="-72" type="line"/>
      <point x="210" y="-72" type="line"/>
      <point x="210" y="530" type="line"/>
      <point x="185" y="530" type="line"/>
    </contour>
  </outline>
</glyph>
